<?xml version="1.0" encoding="UTF-8" standalone="no"?>
<svg
   id="victory"
   viewBox="0 0 250000 250000"
   version="1.1"
   width="250000"
   height="250000"
   xmlns="http://www.w3.org/2000/svg"
   xmlns:svg="http://www.w3.org/2000/svg">
  <defs
     id="defs1">
    <style
       id="style1">.cls-1{fill:#fff;}</style>
  </defs>
  <title
     id="title1">victory</title>
  <polygon
     class="cls-1"
     points="132.971,342.13 156.497,342.13 156.935,276.887 140.475,276.887 138.94,288.417 136.672,276.887 133.409,276.887 "
     id="polygon1"
     style="fill:#ffffff;fill-opacity:0.147414" />
  <path
     class="cls-1"
     d="m 343.24,339.77951 -15.843,-25.8 a 18.185,18.185 0 0 0 4.706,-4.981 20.943,20.943 0 0 0 3.254,-13.019 18.241,18.241 0 0 0 -1.686,-6.392 15.643,15.643 0 0 0 -4.274,-5.372 19.671,19.671 0 0 0 -5.8,-3.177 31,31 0 0 0 -6.7,-1.49 61.932,61.932 0 0 0 -6.824,-0.392 93.965,93.965 0 0 0 -11.882,0.745 c -2.233,0.285 -4.316,0.527 -6.283,0.734 l 0.759,5.758 -4.121,-5.43 c -0.273,0.024 -0.559,0.053 -0.826,0.075 l 0.314,58.587 22.51,0.235 -0.48,-21.728 11.764,21.647 z m -27.529,-39.882 a 7.8,7.8 0 0 1 -3.137,2.706 11.132,11.132 0 0 1 -3.843,1.02 l -0.471,-13.02 a 6.622,6.622 0 0 1 1.177,-0.078 9.875,9.875 0 0 1 3.137,0.471 6.128,6.128 0 0 1 3.254,2.2 5.283,5.283 0 0 1 1.02,3.254 6.54,6.54 0 0 1 -1.137,3.447 z"
     id="path1"
     style="fill:#ffffff;fill-opacity:0.147414" />
  <polygon
     class="cls-1"
     points="52.003,271.852 84.236,342.463 104.748,342.557 108.212,333.018 105.885,318.298 110.568,326.533 130.459,271.757 105.22,271.757 93.878,305.787 81.589,271.947 "
     id="polygon2"
     style="fill:#ffffff;fill-opacity:0.147414"
     transform="translate(291.741,13.558734)" />
  <polygon
     class="cls-1"
     points="279.423,277.872 218.049,278.382 218.156,301.914 237.293,301.316 235.452,343.918 248.57,343.857 246.853,335.748 252.889,343.838 259.16,343.809 259.157,301.31 279.614,300.964 "
     id="polygon3"
     style="fill:#ffffff;fill-opacity:0.147414"
     transform="translate(-157.6525,-2.5190141)" />
  <path
     class="cls-1"
     d="m 278.07353,305.97495 a 32.215,32.215 0 0 0 -4.09,-11.032 24.132,24.132 0 0 0 -7.731,-7.918 20.7,20.7 0 0 0 -11.369,-3.04 26.48,26.48 0 0 0 -13.96,3.715 30.107,30.107 0 0 0 -10.207,10.4 40.817,40.817 0 0 0 -3.227,6.83 34.155,34.155 0 0 0 -1.951,15.16 22.722,22.722 0 0 0 1.951,7.279 24.432,24.432 0 0 0 4.24,6.418 25.343,25.343 0 0 0 5.854,4.728 27.537,27.537 0 0 0 6.98,2.889 29.55,29.55 0 0 0 7.542,0.976 28.493,28.493 0 0 0 11.033,-2.214 24.555,24.555 0 0 0 9.231,-6.717 23.82,23.82 0 0 0 4.053,-6.98 35.615,35.615 0 0 0 1.951,-8.1 39.536,39.536 0 0 0 -0.3,-12.394 z m -21.84,14.748 a 7.26,7.26 0 0 1 -5.028,2.064 7.537,7.537 0 0 1 -3.04,-0.638 6.677,6.677 0 0 1 -2.514,-1.914 8.024,8.024 0 0 1 -1.52,-3.056 l -3.316,-1.032 3.114,-2.2 c 0.036,-0.324 0.08,-0.653 0.146,-0.993 a 11.882,11.882 0 0 1 0.976,-2.89 9.459,9.459 0 0 1 1.688,-2.439 8.188,8.188 0 0 1 2.327,-1.689 6.711,6.711 0 0 1 2.964,-0.637 5.482,5.482 0 0 1 2.89,0.75 6.417,6.417 0 0 1 2.064,2.027 9.029,9.029 0 0 1 1.2,2.927 15.206,15.206 0 0 1 0.376,3.377 q -0.076,4.279 -2.327,6.343 z"
     id="path3"
     style="fill:#ffffff;fill-opacity:0.147414" />
  <path
     class="cls-1"
     d="m 205.465,329.2 4.9,-3.088 -2.835,-4.376 q -1.533,1.279 -3.278,2.513 a 29.794,29.794 0 0 1 -3.662,2.214 25.889,25.889 0 0 1 -3.918,1.618 13.228,13.228 0 0 1 -4.045,0.639 7.707,7.707 0 0 1 -5.706,-2.129 10.667,10.667 0 0 1 -2.853,-5.323 18.258,18.258 0 0 1 -0.128,-6.941 19.22,19.22 0 0 1 2.513,-6.94 16.785,16.785 0 0 1 5.067,-5.323 13.065,13.065 0 0 1 7.494,-2.129 20.86,20.86 0 0 1 7.835,1.788 l 5.621,-19.247 a 74.092,74.092 0 0 0 -7.622,-1.362 56.225,56.225 0 0 0 -6.686,-0.426 37.726,37.726 0 0 0 -9.794,1.149 29.035,29.035 0 0 0 -7.494,3.109 26.212,26.212 0 0 0 -8.686,8.772 40.224,40.224 0 0 0 -5.025,12.221 44.738,44.738 0 0 0 -1.022,13.5 35.167,35.167 0 0 0 3.192,12.561 24.96,24.96 0 0 0 7.665,9.41 22.22,22.22 0 0 0 12.391,4.173 5.927,5.927 0 0 0 0.979,0.085 h 0.979 a 32.029,32.029 0 0 0 10.646,-1.618 42.239,42.239 0 0 0 7.835,-3.577 31.333,31.333 0 0 0 6.472,-5.194 l -4.034,-6.228 z"
     id="path4"
     style="fill:#ffffff;fill-opacity:0.147414" />
  <polygon
     class="cls-1"
     points="400.767,343.483 409.32,343.512 412.535,336.84 411.446,343.519 425.546,343.566 454.606,281.907 430.732,281.989 422.006,300.1 407.682,281.989 384.467,281.907 413.115,319.116 "
     id="polygon4"
     style="fill:#ffffff;fill-opacity:0.147414"
     transform="translate(25.1135,3.4087341)" />
  <path
     class="cls-1"
     d="m 136.76137,118.10791 -24.82582,-15.8488 c 5.35946,-4.092591 17.45907,-6.500422 26.56251,-9.603019 0,0 -17.11248,2.338586 -30.44393,6.234924 L 90.643765,87.243248 c 0,0 20.503585,-22.357571 48.280885,-19.394733 l 54.55582,47.320435 c 0,0 -37.88654,-8.30216 -56.7191,2.93896 z"
     id="path5"
     style="fill:#ffffff;fill-opacity:0.147414" />
  <path
     class="cls-1"
     d="M 192.37476,63.116566 174.22122,43.58296 c -2.52263,5.043045 -2.8412,10.39573 -3.44994,19.028334 0,0 -4.44197,-14.569452 -4.16572,-27.222684 L 149.0632,13.192565 c 0,0 -12.24389,23.260137 -2.23803,49.812924 l 58.63447,50.090411 c 0,0 -18.95088,-32.206717 -13.08488,-49.979334 z"
     id="path6"
     style="fill:#ffffff;fill-opacity:0.147414" />
  <polygon
     class="cls-1"
     points="227.598,169.239 213.256,168.92 212.239,175.635 229.419,179.402 260.287,211.922 263.976,208.108 239.479,181.174 240.053,174.731 285.695,188.729 288.361,196.036 276.715,224.377 278.916,263.616 222.792,265.583 233.01,224.319 186.672,191.172 201.936,150.892 235.808,154.619 234.325,165.512 "
     id="polygon6"
     style="fill:#ffffff;fill-opacity:0.147414"
     transform="rotate(45,261.86726,166.61889)" />
  <polygon
     class="cls-1"
     points="268.976,142.896 259.237,174.485 244.235,169.984 253.642,138.517 "
     id="polygon7"
     style="fill:#ffffff;fill-opacity:0.147414"
     transform="rotate(38.987137,261.6435,164.9845)" />
  <polygon
     class="cls-1"
     points="289.388,151.914 280.355,179.764 264.871,176.004 274.673,146.65 "
     id="polygon8"
     style="fill:#ffffff;fill-opacity:0.147414"
     transform="rotate(38.987137,261.6435,164.9845)" />
  <polygon
     class="cls-1"
     points="228.733,147.603 243.716,149.476 248.346,135.862 233.352,130.865 "
     id="polygon9"
     style="fill:#ffffff;fill-opacity:0.147414"
     transform="rotate(38.987137,261.6435,164.9845)" />
  <polygon
     class="cls-1"
     points="221.785,147.127 227.598,131.083 211.395,126.899 205.02,145.529 "
     id="polygon10"
     style="fill:#ffffff;fill-opacity:0.147414"
     transform="rotate(38.987137,261.6435,164.9845)" />
  <polygon
     class="cls-1"
     points="91.444,157.197 91.179,163.301 191.897,166.551 194.982,158.878 "
     id="polygon11"
     style="fill:#ffffff;fill-opacity:0.147414"
     transform="rotate(38.987137,261.6435,164.9845)" />
  <polygon
     class="cls-1"
     points="287.336,170.788 312.218,171.73 315.427,161.861 290.504,161.188 "
     id="polygon12"
     style="fill:#ffffff;fill-opacity:0.147414"
     transform="rotate(38.987137,261.6435,164.9845)" />
  <polygon
     class="cls-1"
     points="357.392,159.189 367.109,151.782 342.419,145.45 330.374,159.459 321.318,157.623 315.48,176.831 330.407,174.652 339.841,187.474 444.65,171.666 388.318,157.22 378.259,160.095 383.613,156.014 375.649,153.972 "
     id="polygon13"
     style="fill:#ffffff;fill-opacity:0.147414"
     transform="rotate(38.987137,261.6435,164.9845)" />
</svg>
