<?xml version="1.0" encoding="UTF-8" standalone="no"?>
<svg
   id="svg"
   version="1.1"
   width="750.4057"
   height="768.14893"
   sodipodi:docname="kill2.svg"
   inkscape:version="1.4.2 (ebf0e940d0, 2025-05-08)"
   xmlns:inkscape="http://www.inkscape.org/namespaces/inkscape"
   xmlns:sodipodi="http://sodipodi.sourceforge.net/DTD/sodipodi-0.dtd"
   xmlns="http://www.w3.org/2000/svg"
   xmlns:svg="http://www.w3.org/2000/svg">
  <defs
     id="defs1" />
  <sodipodi:namedview
     id="namedview1"
     pagecolor="#ffffff"
     bordercolor="#000000"
     borderopacity="0.25"
     inkscape:showpageshadow="2"
     inkscape:pageopacity="0.0"
     inkscape:pagecheckerboard="0"
     inkscape:deskcolor="#d1d1d1"
     inkscape:zoom="0.92454212"
     inkscape:cx="426.69771"
     inkscape:cy="354.77021"
     inkscape:window-width="2560"
     inkscape:window-height="1348"
     inkscape:window-x="0"
     inkscape:window-y="0"
     inkscape:window-maximized="1"
     inkscape:current-layer="svg" />
  <path
     style="opacity:0.520498;fill:#ffffff;fill-opacity:1;stroke-width:10;stroke-opacity:0.5"
     d="M 159.54818,713.08605 C -46.380128,464.42648 -53.889093,81.026516 142.3936,43.994754 c 714.26565,-134.75725 621.01493,42.78899 580.31695,495.101356 -1.89702,21.08323 0.2216,23.73338 -0.63381,34.84463 53.08631,64.08865 -87.59178,103.8271 -185.40285,150.93439 -11.72721,16.57107 -18.81866,37.90161 -40.74345,40.19606 -118.22811,6.07239 -209.65302,9.26867 -336.38226,-51.98514 z"
     id="path2"
     sodipodi:nodetypes="csscccc" />
  <path
     d="m 211.54287,42.333384 c -6.2,1.911 -7.741,3.898 -8.112,10.463 l -0.311,5.488 -3.95,0.5 c -4.726,0.598 -7.182,4.037 -8.203,11.486 -0.779,5.679 0.807,7.494 6.594,7.546 5.566,0.05 10.059,4.824 10.059,10.691 0,5.234 -2.851,7.277 -10.154,7.277 -5.937,0 -6.288,-0.146 -9.996,-4.162 -3.472,-3.761 -4.079,-4.055 -6.292,-3.046 -3.1,1.412 -3.874,5.261 -3.409,16.965996 0.314,7.942 0.637,9.202 3.101,12.129 3.397,4.035 3.443,5.429 0.25,7.521 -3.181,2.084 -3.182,4.86 -0.005,11.799 2.371,5.18 9.545,31.612 10.973,40.43 0.59,3.643 0.32,4.538 -2.261,7.5 -1.611,1.85 -3.679,4.826 -4.594,6.613 -0.915,1.787 -2.258,3.25 -2.984,3.25 -1.885,0 -4.629,3.315 -4.629,5.594 0,2.475 -3.021,8.106 -7.491,13.962 -2.869,3.759 -3.509,5.459 -3.509,9.326 0,3.505 -0.661,5.621 -2.554,8.174 -2.361,3.185 -2.504,3.973 -1.902,10.48 0.552,5.967 0.242,8.397 -2.043,16 -3.36,11.179 -5.611,13.76 -12.106,13.878 l -4.73,0.086 -1.583,5 c -2.372,7.496 -4.676,7.312 -15.028,-1.199 -4.55,-3.741 -9.236,-7.371 -10.413,-8.068 -2.447,-1.448 -39.860998,-1.355 -41.309998,0.103 -0.457,0.46 0.175,1.652 1.404,2.648 3.278,2.658 12.934,5.338 43.244998,12.003 11.142,2.45 13.523,3.779 14.373,8.027 1.608,8.039 -2.834,8.763 -18.853,3.074 -13.538,-4.807 -38.998998,-13.906 -42.824998,-15.304 -2.504,-0.915 -3.189,-0.678 -6.047,2.092 -1.773,1.718 -4.128,3.124 -5.234,3.124 -2.696,0 -4.342,1.448 -9.374,8.245 -2.447,3.306 -6.849,7.479 -10.37,9.83 -5.048,3.371 -6.743,5.275 -9.701,10.896 -1.971,3.746 -6.191,9.673 -9.377,13.17 -7.38,8.101 -8.937,10.465 -8.185,12.425 0.896,2.336 3.724,1.343 5.547,-1.946 0.878,-1.584 1.814,-2.863 2.081,-2.842 0.267,0.02 2.06,0.328 3.985,0.683 5.082,0.937 13.324,-3.897 24.172,-14.178 4.875,-4.62 10.543,-9.095 12.596,-9.945 2.052,-0.85 5.143,-3.074 6.867,-4.942 5.18,-5.611 12.062,-4.486 16.834,2.753 4.233,6.419 18.504998,20.012 23.743998,22.614 2.506,1.244 5.28,1.985 6.164,1.646 0.884,-0.34 3.654,-3.696 6.156,-7.458 5.054,-7.603 9.895,-12.205 12.35,-11.74 1.132,0.214 1.711,1.609 1.929,4.65 0.24,3.33 -0.508,6.073 -3.209,11.759 -1.937,4.079 -4.023,10.22 -4.635,13.648 -0.613,3.428 -2.175,8.06 -3.473,10.294 -2.251,3.876 -2.396,5.285 -3.179,30.832 -0.924,30.181 -0.754,29.606 -8.785,29.606 -5.092,0 -9.178,2.515 -7.456,4.59 0.643,0.776 2.253,1.41 3.576,1.41 1.323,0 5.206,1.418 8.628,3.152 3.421,1.733 10.481,4.33 15.687,5.771 l 9.466,2.619 8.034,9.809 c 4.419,5.394 8.86,10.266 9.869,10.826 1.264,0.701 3.256,0.66 6.398,-0.131 3.222,-0.812 4.876,-0.837 5.626,-0.087 1.567,1.567 -2.135,4.851 -9.575,8.495 -5.156,2.526 -6.736,3.914 -8.802,7.732 -4.465,8.251 -8.464,12.371 -14.31,14.744 -5.027,2.04 -5.675,2.684 -8.069,8.019 -4.19,9.337 -3.205,11.965 3.233,8.636 1.506,-0.779 8.571,-5.121 15.701,-9.65 18.958,-12.043 18.164,-11.634 19.655,-10.143 1.954,1.954 2.979,19.169 1.298,21.807 -0.736,1.154 -5.309,3.799 -10.164,5.877 -4.854,2.079 -11.116,5.293 -13.915,7.142 -5.757,3.804 -15.587,8.041 -25.911,11.169 -4.143,1.255 -9.856,4.083 -13.997,6.928 -6.554,4.503 -7.294,5.407 -11.710998,14.296 -2.593,5.219 -4.732,10.209 -4.753,11.089 -0.022,0.88 1.38,3.559 3.114,5.953 1.734,2.393 3.958,7.012 4.943,10.263 1.987998,6.568 5.875998,12.78 9.471998,15.137 1.551,1.016 4.714,1.547 9.213,1.547 6.835,0 6.875,-0.016 17.785,-7.263 16.223,-10.776 47.472,-36.655 50.918,-42.167 1.044,-1.67 1.061,-3.855 0.092,-11.315 -1.208,-9.303 -0.73,-12.809 1.452,-10.627 1.133,1.133 11.23,35.807 12.412,42.622 0.358,2.062 1.033,3.75 1.5,3.75 0.466,0 2.246,1.306 3.954,2.901 2.753,2.572 3.106,3.532 3.106,8.454 0,4.622 0.377,5.816 2.25,7.132 6.69,4.699 10.247,6.615 13.739,7.399 5.787,1.3 12.426,7.191 13.923,12.352 0.68,2.344 2.792,7.497 4.694,11.45 4.36,9.064 7.929,11.607 15.63,11.135 l 5.264,-0.323 0.303,4.155 c 0.289,3.967 0.143,4.208 -3.246,5.326 -1.952,0.644 -5.601,1.25 -8.11,1.345 -5.589,0.213 -5.961,-0.219 -13.926,-16.182 -3.195,-6.404 -6.489,-12.432 -7.32,-13.394 -1.853,-2.146 -4.537,-2.255 -6.201,-0.25 -2.189,2.638 -3.207,1.683 -2.523,-2.366 0.644,-3.811 0.565,-3.933 -5.511,-8.5 -3.39,-2.549 -6.795,-4.634 -7.565,-4.634 -1.98,0 -1.769,3.998 0.692,13.12 2.03,7.522 2.354,8.012 10.75,16.214 11.368,11.106 17.764,16.511 21.834,18.452 3.683,1.756 4.13,3.616 1.702,7.083 -1.518,2.167 -1.486,2.494 0.5,5.182 1.167,1.577 2.121,3.515 2.121,4.305 0,1.919 5.13,6.163 14.073,11.644 4.038,2.475 8.85,5.517 10.693,6.759 5.001,3.373 10.929,6.241 12.897,6.241 0.958,0 3.113,1.285 4.789,2.855 3.298,3.089 73.384,39.145 76.092,39.145 0.904,0 1.879,-0.9 2.166,-2 0.288,-1.1 0.965,-2 1.504,-2 0.539,0 3.974,2.865 7.633,6.368 9.543,9.133 9.59,9.149 19.941,6.582 4.791,-1.188 12.43,-3.688 16.974,-5.555 8.867,-3.644 12.154,-4.013 20.439,-2.298 4.647,0.963 6.063,1.906 11.514,7.675 5.693,6.026 6.658,6.641 11.5,7.33 7.617,1.084 19.244,1.054 22.166,-0.057 1.722,-0.654 2.89,-2.218 3.715,-4.971 1.152,-3.847 1.003,-4.432 -3.512,-13.795 -2.593,-5.379 -6.027,-11.141 -7.63,-12.806 -1.603,-1.665 -4.435,-6.901 -6.293,-11.635 -3.324,-8.466 -15.534,-31.661 -18.471,-35.088 -0.825,-0.963 -2.096,-1.75 -2.825,-1.75 -1.648,0 -5.365,7.104 -5.365,10.255 0,6.254 11.025,42.691 13.552,44.788 1.151,0.955 1.803,0.741 3.277,-1.08 l 1.84,-2.273 1.666,2.378 c 2.49,3.555 2.108,7.438 -0.97,9.859 -4.921,3.871 -8.937,2.02 -12.858,-5.927 -2.725,-5.526 -12.449,-17.847 -14.63,-18.539 -1.494,-0.474 -3.027,0.496 -6.248,3.955 -6.035,6.48 -8.275,6.274 -18.814,-1.734 -14.202,-10.79 -31.645,-21.682 -34.723,-21.682 -0.866,0 -1.126,1.946 -0.904,6.75 0.295,6.374 0.185,6.768 -1.968,7.073 -3.727,0.529 -8.05,-4.922 -8.417,-10.615 -0.284,-4.396 -0.612,-4.894 -5.198,-7.889 -2.693,-1.759 -6.518,-4.741 -8.5,-6.629 -1.983,-1.887 -6.98,-5.366 -11.105,-7.73 -11.288,-6.471 -30.159,-19.355 -33.095,-22.596 -1.427,-1.575 -6.118,-8.039 -10.424,-14.364 -8.794,-12.916 -20.328,-27.043 -24.513,-30.023 -3.585,-2.553 -6.968,-2.605 -6.968,-0.108 0,1.028 3.6,9.637 8,19.131 10.699,23.086 10.709,27.224 0.034,14.468 -17.852,-21.33 -22.272,-30.47 -27.991,-57.872 -5.29,-25.348 -13.751,-51.878 -21.718,-68.096 -4.176,-8.502 -5.982,-13.725 -7.951,-23 -4.538,-21.376 -4.475,-22.005 3.255,-32.634 3.909,-5.373 4.102,-7.439 1.37,-14.627 -1.099,-2.893 -1.999,-6.381 -1.999,-7.75 0,-2.285 0.37,-2.489 4.525,-2.489 5.796,0 14.931,3.21 19.377,6.808 6.76,5.472 7.03,6.262 8.638,25.22 0.814,9.609 2.112,20.847 2.882,24.972 0.771,4.125 1.697,10.791 2.057,14.814 0.712,7.957 1.822,11.691 6.435,21.657 1.858,4.015 3.406,9.524 4.014,14.282 1.11,8.686 7.512,31.409 9.931,35.247 0.866,1.375 7.16,9.668 13.985,18.429 6.825,8.76 13.957,18.348 15.849,21.305 1.892,2.957 5.757,8.285 8.59,11.839 5.411,6.789 9.035,8.972 29.717,17.903 4.125,1.781 13.549,6.228 20.943,9.881 l 13.443,6.643 h 15.332 15.332 l 6.725,-3.39 c 3.699,-1.864 7.461,-4.227 8.36,-5.25 0.9,-1.023 2.911,-5.46 4.471,-9.86 l 2.835,-8 0.029,-41.5 c 0.017,-22.825 0.398,-42.666 0.849,-44.092 0.657,-2.082 0.278,-3.234 -1.933,-5.861 -3.025,-3.596 -4.785,-12.025 -3.733,-17.877 0.353,-1.957 0.065,-4.328 -0.697,-5.752 -1.123,-2.098 -0.995,-3.064 0.957,-7.233 l 2.253,-4.81 -1.583,-21.2 c -0.871,-11.66 -1.583,-24.553 -1.583,-28.652 0,-6.934 0.22,-7.703 3.148,-11.039 5.082,-5.788 7.845,-6.783 14.952,-5.384 3.318,0.652 6.977,1.952 8.133,2.888 2.034,1.646 2.061,1.989 0.836,10.607 l -1.265,8.905 4.5,11.5 c 9.949,25.422 12.089,30.975 16.304,42.297 4.602,12.362 5.148,15.118 3.229,16.304 -1.384,0.855 -5.222,-3.352 -9.071,-9.946 -3.427,-5.871 -6.857,-7.673 -10.609,-5.575 -2.134,1.193 -3.084,3.055 -4.825,9.453 -2.748,10.099 -2.802,15.581 -0.348,35.699 4.441,36.412 7.621,53.988 10.585,58.513 0.809,1.234 3.036,2.899 4.951,3.699 3.954,1.652 4.489,4.086 1.799,8.191 -1.461,2.231 -1.518,3.171 -0.438,7.211 2.25,8.41 4.736,12.963 7.277,13.322 3.09,0.438 3.8,4.393 0.95,5.298 -2.593,0.823 -6.722,-1.373 -11.054,-5.881 -4.247,-4.418 -6.565,-4.765 -5.586,-0.835 0.377,1.512 2.159,6.125 3.96,10.25 1.801,4.125 4.279,10.538 5.505,14.252 1.812,5.481 2.686,6.845 4.649,7.25 1.33,0.274 3.431,0.717 4.668,0.984 1.282,0.277 3.541,2.506 5.25,5.18 2.506,3.922 3.892,4.993 8.42,6.511 2.981,0.999 5.514,1.706 5.63,1.57 0.116,-0.136 -0.391,-2.497 -1.127,-5.247 -0.735,-2.75 -1.832,-8.813 -2.436,-13.473 -0.615,-4.742 -2.43,-11.787 -4.121,-16 -2,-4.981 -3.493,-11.248 -4.414,-18.527 -1.521,-12.019 -3.526,-44.566 -2.816,-45.717 0.243,-0.395 1.747,-0.456 3.342,-0.137 2.826,0.565 3.018,0.331 7.374,-8.992 5.93,-12.689 8.43,-13.309 20.039,-4.969 6.631,4.764 14.386,8.293 18.251,8.305 2.323,0.007 4.445,-1.162 8.147,-4.49 5.464,-4.913 8.298,-5.541 13.311,-2.948 5.728,2.962 10.905,-1.843 7.532,-6.991 -1.482,-2.262 -2.11,-2.457 -6.122,-1.907 -5.48,0.751 -7.038,-1.399 -3.637,-5.019 2.654,-2.824 2.686,-4.265 0.127,-5.635 -1.394,-0.746 -2,-2.094 -2,-4.445 0,-2.401 -1.104,-4.773 -3.822,-8.215 -2.103,-2.662 -8.918,-12.49 -15.146,-21.84 -13.184,-19.795 -14.331,-21.187 -18.146,-22.025 -3.598,-0.79 -4.108,-1.643 -5.026,-8.409 -0.665,-4.9 -2.365,-7.885 -15.958,-28.025 -24.634,-36.498 -27.963,-39.911 -40.902,-41.926 -9.926,-1.546 -38.191,-2.373 -41.257,-1.207 -1.923,0.731 -2.815,1.958 -3.299,4.539 -0.365,1.946 -0.391,4.248 -0.058,5.117 0.531,1.383 0.965,1.322 3.514,-0.493 4.061,-2.891 6.905,-2.694 7.716,0.535 1.766,7.038 -2.857,30.782 -6.248,32.083 -0.835,0.32 -3.232,0.069 -5.327,-0.558 -3.034,-0.91 -5.305,-3.019 -11.175,-10.381 -4.051,-5.081 -11.116,-13.002 -15.7,-17.603 -7.507,-7.533 -8.9,-8.496 -14.028,-9.692 -3.132,-0.73 -8.381,-2.748 -11.666,-4.483 -4.862,-2.568 -6.787,-3.065 -10.359,-2.671 -3.437,0.379 -5.712,-0.142 -10.5,-2.408 -3.362,-1.59 -7.668,-2.892 -9.569,-2.892 -1.901,-10e-4 -7.862,-0.735 -13.246,-1.632 l -9.79,-1.631 -4.317,3.979 c -2.375,2.189 -6.426,5.216 -9.004,6.726 -5.142,3.014 -5.059,2.824 -9.539,21.932 -1.145,4.881 -2.833,10.021 -3.751,11.423 -1.599,2.44 -1.729,2.469 -3.034,0.684 -0.837,-1.145 -1.363,-4.51 -1.363,-8.723 0,-8.483 -1.014,-10.465 -9.676,-18.918 -7.297,-7.121 -15.279,-11.27 -27.677,-14.384 -3.381,-0.849 -9.359,-2.475 -13.284,-3.612 l -7.137,-2.069 -6.863,3.812 c -3.775,2.097 -9.22,5.307 -12.1,7.134 -6.075,3.854 -10.187,4.924 -13.047,3.394 -2.725,-1.459 -13.749,-24.246 -17.459,-36.091 -4.628,-14.775 -3.024,-22.165 5.13,-23.639 4.959,-0.897 8.061,-2.627 11.743,-6.551 5.977,-6.369 6.718,-10.187 3.264,-16.814 -2.45,-4.701 -2.39,-5.085 3.229,-20.426 5.382,-14.693 6.636,-16.917 14.342,-25.437 9.697,-10.721 7.267,-12.78 -5.76,-4.881 -8.56,5.191 -10.363,7.497 -12.277,15.701 -1.511,6.478 -2.837,9.022 -4.701,9.022 -0.691,0 -0.848,-8.002 -0.48,-24.41 l 0.549,-24.409 3.829,-7.341 c 2.107,-4.037 10.927,-17.963 19.602,-30.947 l 15.772,-23.608 0.879,-8.392 c 0.483,-4.616 1.833,-10.868 2.999,-13.893 2.885,-7.477 2.729,-9.66 -1.861,-26.171 -7.826,-28.145 -9.526,-35.719 -8.297,-36.948 2.7,-2.7 4.86,0.304 19.42,27.017 3.717,6.819 7.793,13.569 9.059,15 l 2.302,2.602 0.309,-2.671 c 0.17,-1.469 -1.534,-10.019 -3.787,-19 -7.475,-29.807 -8.682,-32.778 -15.067,-37.079996 -2.364,-1.593 -3.455,-3.101 -3.455,-4.775 0,-2.928 2.584,-3.747 4.807,-1.524 0.853,0.853 1.872,1.55 2.266,1.55 1.407,0 -0.534,-12.739 -4.092,-26.849 -3.459,-13.714 -3.767,-17.151 -1.538,-17.151 1.625,0 1.971,0.767 18.448,40.964 2.81,6.856 5.559,12.480996 6.109,12.499996 0.586,0.021 1.207,-4.926996 1.5,-11.963996 0.275,-6.6 0.878,-12.584 1.339,-13.299 1.319,-2.041 3.442,0.338 5.059,5.669 0.772,2.546 3.299,9.13 5.616,14.63 2.316,5.499996 4.723,11.369996 5.349,13.044996 0.626,1.674 1.97,4.315 2.988,5.868 1.774,2.707 2.085,2.796 7.576,2.175 4.904,-0.555 6.111,-0.346 8.4,1.455 5.182,4.075 2.737,6.859 -4.349,4.951 -5.324,-1.433 -7.167,-0.162 -4.948,3.414 2.016,3.248 18.772,18.394 21.203,19.166 3.417,1.084 4.434,-1.235 1.779,-4.061 -1.298,-1.382 -2.932,-2.513 -3.63,-2.513 -0.698,0 -1.928,-0.941 -2.733,-2.091 -1.291,-1.842 -1.28,-2.635 0.085,-6.64 1.942,-5.702 1.293,-22.921 -1.344,-35.605996 -2.482,-11.943 -0.619,-12.958 6.372,-3.474 8.412,11.413996 24.98,34.667996 29.583,41.523996 2.664,3.966 5.687,7.48 6.717,7.807 1.031,0.327 6.65,-0.556 12.486,-1.963 5.837,-1.406 11.236,-2.557 12,-2.557 2.944,0 105.18,41.147 110.566,44.5 2.875,1.789 36.67,47.231 40.16,54 1.328,2.576 16.716,17.5 18.044,17.5 1.811,0 1.209,-4.023 -1.32,-8.821 -1.647,-3.123 -3.011,-7.254 -3.031,-9.179 -0.047,-4.367 -1.431,-6.791 -6.281,-11.006 -2.098,-1.823 -4.957,-5.569 -6.354,-8.326 -1.397,-2.757 -4.017,-7.297 -5.822,-10.09 -1.805,-2.793 -8.152,-13.328 -14.105,-23.412 -15.039,-25.474 -23.826,-34.718 -35.248,-37.08 -3.469,-0.717 -6.812,-2.309 -9.531,-4.536 -2.303,-1.888 -8.161,-5.338 -13.017,-7.668 l -8.829,-4.237 -5.914,1.222 c -3.253,0.672 -6.353,0.95 -6.89,0.618 -1.6,-0.989 -1.111,-3.384 0.954,-4.673 1.49,-0.931 1.705,-1.625 0.944,-3.047 -1.134,-2.12 -18.156,-10.406 -28.178,-13.716 -4.324,-1.429 -8.5,-3.716 -11.456,-6.274 l -4.651,-4.026 -6.545,0.644 c -11.266,1.107 -35.609,1.933 -38.156,1.294 -1.457,-0.366 -10.038,-8.903996 -21.39,-21.280996 l -18.956,-20.671 -8.021,0.651 c -4.411,0.358 -11.082,1.006 -14.823,1.44 -8.433,0.978 -8.936,0.694 -21.678,-12.219 -10.429,-10.568 -11.089,-10.833 -20.097,-8.058 m 162.827,24.519 c -3.741,1.975 -3.75,1.995 -3.75,8.433 0,5.679 0.283,6.638 2.362,8.001 1.3,0.851 5.237,1.814 8.75,2.139 5.442,0.504 6.632,0.315 8.039,-1.275 3.351,-3.789 5.091,-15.724 2.649,-18.166 -1.984,-1.984 -13.716,-1.42 -18.05,0.868 m 275.314,22.597 c -2.915,3.311 -4.721,6.721 -6.224,11.749996 -1.165,3.897 -2.56,7.648 -3.101,8.335 -1.761,2.237 -5.018,1.328 -9.854,-2.75 -5.414,-4.565 -8.578,-5.02 -11.711,-1.686 -3.463,3.687 -2.734,5.899 3.826,11.605 5.182,4.507 6,5.692 6,8.695 0,2.358 -0.79,4.267 -2.455,5.931 -2.337,2.338 -3.036,2.455 -14.631,2.455 h -12.178 l -3.366,3.569 c -5.54,5.875 -5.636,10.473 -0.271,13.112 5.312,2.614 22.581,7.643 26.537,7.728 4.896,0.106 9.127,-2.53 11.239,-6.999 0.756,-1.6 2.724,-4.339 4.374,-6.086 2.724,-2.884 2.938,-3.592 2.323,-7.692 l -0.677,-4.515 15.251,-15.538 c 8.388,-8.546 15.637,-16.227 16.109,-17.07 1.242,-2.219996 -3.881,-11.113996 -7.796,-13.533996 -5.367,-3.317 -8.696,-2.648 -13.395,2.69 m -78.564,33.768996 c -5.353,2.418 -6.805,4.115 -7.422,8.672 l -0.595,4.394 -5.131,-0.332 c -6.168,-0.399 -9.204,1.289 -20.352,11.316 -4.125,3.711 -9.427,8.131 -11.782,9.824 -4.141,2.976 -4.262,3.216 -3.655,7.267 0.393,2.615 0.217,4.443 -0.467,4.866 -1.701,1.051 -1.298,5.243 0.924,9.599 2.616,5.126 5.181,5.186 8.331,0.195 1.308,-2.07 3.167,-4.42 4.132,-5.22 0.965,-0.801 3.956,-4.719 6.647,-8.707 2.691,-3.988 5.803,-8.1 6.916,-9.137 1.113,-1.037 6.846,-3.539 12.739,-5.56 11.637,-3.991 16.272,-6.457 26.52,-14.111 9.831,-7.342 9.14,-10.136 -3.237,-13.097 -7.015,-1.678 -9.8,-1.672 -13.568,0.031 m 9.9,32.454 c -10.175,7.534 -30.409,32.661 -33.704,41.852 -2.974,8.298 -2.188,12.604 2.675,14.652 2.487,1.046 4.463,3.716 9.629,13.01 3.575,6.432 7.26,12.685 8.189,13.896 l 1.689,2.202 2.111,-2.077 c 1.776,-1.749 2.349,-4.357 3.62,-16.479 1.631,-15.552 2.426,-17.706 8.803,-23.868 2.095,-2.025 4.221,-5.5 5.201,-8.5 0.912,-2.792 2.356,-6.426 3.209,-8.076 1.419,-2.745 2.418,-7.094 3.79,-16.5 0.401,-2.742 -0.147,-4.529 -2.528,-8.25 -3.698,-5.778 -6.784,-6.231 -12.684,-1.862 m -285.533,89.547 c -1.996,0.686 -8.97,4.421 -15.498,8.3 -7.957,4.728 -16.606,8.79 -26.243,12.326 -14.164,5.196 -14.4,5.332 -16.211,9.356 -1.774,3.941 -2.002,4.083 -6.558,4.083 h -4.72 l -10.319,21.911 c -6.204,13.175 -10.318,23.154 -10.318,25.03 0,3.116 12.011,24.795 16.069,29.003 2.5,2.592 3.625,1.264 1.578,-1.861 -2.186,-3.335 -0.994,-3.837 7.194,-3.03 l 6.837,0.674 9.311,-5.614 c 5.121,-3.087 10.031,-5.604 10.911,-5.593 0.88,0.011 5.237,0.611 9.681,1.334 4.504,0.733 9.031,0.964 10.227,0.521 1.521,-0.562 5.112,-6.771 12.351,-21.355 l 10.206,-20.563 -1.778,-14.724 c -0.979,-8.098 -2.185,-15.482 -2.681,-16.409 -0.496,-0.927 -2.253,-2.647 -3.904,-3.823 -1.651,-1.175 -3.002,-2.82 -3.002,-3.656 0,-0.835 2.7,-4.33 6,-7.766 7.744,-8.065 8.014,-10.601 0.867,-8.144 m 268.062,24.337 c -2.771,2.476 -3.51,4.47 -6.917,18.677 -2.097,8.747 -3.584,16.503 -3.303,17.236 0.923,2.404 4.889,2.503 16.925,0.421 17.209,-2.976 19.556,-3.762 19.177,-6.42 -0.27,-1.901 -0.898,-2.17 -4.811,-2.06 -2.475,0.069 -6.345,0.457 -8.6,0.861 -5.486,0.985 -5.714,0.155 -4.252,-15.461 0.655,-6.986 0.903,-13.45 0.552,-14.364 -0.974,-2.541 -5.298,-1.993 -8.771,1.11 m -189.178,6.978 c -0.857,0.962 -3.009,8.169 -4.782,16.015 l -3.224,14.266 2.684,7.234 c 7.852,21.159 11.409,31.69 12.069,35.735 1.098,6.73 2.43,8.589 10.045,14.023 16.37,11.68 21.347,12.073 10.184,0.802 -5.282,-5.333 -7.971,-8.908 -8.813,-11.718 -1.727,-5.765 -0.337,-7.107 7.362,-7.107 5.054,0 7.064,0.577 12.397,3.56 3.501,1.957 8.494,4.195 11.096,4.971 2.602,0.777 6.514,2.325 8.692,3.441 2.179,1.115 4.85,2.028 5.935,2.028 1.085,0 3.898,0.932 6.25,2.071 2.884,1.396 4.799,1.779 5.875,1.177 2.192,-1.227 13.061,-15.827 15.495,-20.814 3.33,-6.823 2.646,-12.867 -3.498,-30.934 -3.796,-11.16 -6.172,-16.634 -7.855,-18.094 -3.8,-3.299 -28.945,-9.645 -43.163,-10.894 -4.4,-0.387 -10.025,-1.544 -12.5,-2.573 -4.974,-2.066 -16.843,-4.939 -20.407,-4.939 -1.256,0 -2.984,0.788 -3.842,1.75 m 143.995,8.474 c -0.879,1.802 -2.776,9.576 -4.217,17.276 -3.758,20.083 -5.517,27.876 -6.517,28.883 -1.401,1.41 -3.928,-0.092 -5.224,-3.105 -3.767,-8.762 -22.64,-32.688 -24.419,-30.958 -0.464,0.452 0.452,3.152 2.035,6 8.54,15.37 13.502,25.901 14.676,31.147 1.253,5.599 1.185,6.249 -1.436,13.648 -3.688,10.413 -2.866,13.811 4.888,20.194 3.035,2.499 6.81,4.827 8.389,5.174 7.511,1.649 8.234,8.733 2.716,26.604 -1.939,6.277 -4.04,14.041 -4.67,17.252 -1.55,7.901 -3.813,10.063 -9.842,9.405 -5.63,-0.614 -7.125,-0.138 -7.125,2.269 0,3.187 50.697,96.83 61.029,112.727 2.734,4.207 4.971,8.203 4.971,8.882 0,0.678 1.294,2.278 2.876,3.556 1.582,1.277 3.4,3.34 4.042,4.585 1.854,3.598 4.526,1.235 7.548,-6.675 1.474,-3.855 4.396,-8.921 6.572,-11.394 4.402,-5.001 6.166,-8.746 5.004,-10.626 -1.143,-1.85 -4.32,-0.896 -5.606,1.684 -2.169,4.352 -4.545,6.26 -6.494,5.217 -0.994,-0.532 -2.089,-1.857 -2.435,-2.946 -0.379,-1.195 -2.193,-2.448 -4.579,-3.163 -5.6,-1.678 -6.692,-3.297 -4.605,-6.83 2.39,-4.045 2.168,-5.702 -2.449,-18.285 -7.379,-20.114 -19.694,-44.164 -31.549,-61.611 -2.379,-3.502 -4.325,-7 -4.325,-7.775 0,-0.775 1.125,-1.836 2.5,-2.359 2.072,-0.788 2.5,-1.613 2.5,-4.822 0,-3.071 0.723,-4.616 3.5,-7.475 l 3.5,-3.604 v -10.167 c 0,-9.872 -0.087,-10.268 -3,-13.585 -1.65,-1.879 -3,-4.211 -3,-5.182 0,-0.971 -0.479,-7.735 -1.064,-15.03 -0.85,-10.603 -0.736,-17.992 0.566,-36.809 0.895,-12.949 1.32,-24.282 0.942,-25.185 -0.378,-0.902 -0.969,-7.905 -1.315,-15.561 -0.663,-14.676 -1.592,-17.082 -4.383,-11.356 m 111.754,24.902 c -3.85,1.091 -7.675,2.663 -8.5,3.493 -1.334,1.343 -1.247,1.717 0.786,3.385 4.437,3.639 17.868,6.217 22.709,4.36 3.076,-1.181 3.689,-5.082 1.479,-9.415 -1.817,-3.562 -2.38,-3.942 -5.744,-3.878 -2.052,0.039 -6.88,0.964 -10.73,2.055 m -308.952,13.781 c -0.827,1.599 -2.465,6.436 -3.641,10.75 -2.784,10.214 -3.039,10.66 -10.648,18.608 l -6.476,6.765 0.375,7.422 c 0.314,6.225 0.775,7.849 2.858,10.077 4.008,4.284 5.618,4.781 7.823,2.414 1.523,-1.636 2.653,-1.941 5.323,-1.44 2.817,0.528 4.041,0.117 7.251,-2.434 2.124,-1.688 4.397,-3.069 5.05,-3.069 0.653,0 4.529,2.468 8.613,5.485 4.083,3.016 8.959,6.616 10.835,8 1.876,1.383 3.964,2.515 4.639,2.515 2.465,0 5.571,-3.598 6.475,-7.5 1.973,-8.512 1.257,-12.977 -3.649,-22.77 -2.543,-5.076 -5.445,-10.392 -6.448,-11.812 -1.004,-1.42 -2.76,-5.02 -3.904,-8 -4.409,-11.489 -6.003,-12.763 -9.196,-7.35 -2.822,4.782 -5.751,4.373 -7.649,-1.068 -2.971,-8.52 -3.464,-9.5 -4.775,-9.5 -0.744,0 -2.029,1.308 -2.856,2.907 m 243.895,5.277 c -3.292,2.891 -3.903,3.081 -6.608,2.06 -3.401,-1.284 -5.382,-0.804 -8.585,2.079 -4.377,3.94 -2.759,6.447 7.462,11.56 6.961,3.482 8.288,5.232 8.288,10.929 0,5.26 2.064,7.031 5.54,4.754 3.039,-1.991 4.022,-4.338 6.523,-15.566 3.332,-14.957 2.192,-19 -5.357,-19 -2.661,0 -4.609,0.854 -7.263,3.184 m 53.103,19.537 c -6.456,5.58 -8.085,8.22 -7.375,11.95 0.493,2.59 11.031,3.165 15.399,0.841 6.044,-3.216 8.776,-12.262 4.972,-16.466 -2.987,-3.3 -5.869,-2.485 -12.996,3.675 m 88.799,5.73 c -7.996,3.479 -3.941,16.549 5.135,16.549 5.597,0 8.696,-5.907 6.535,-12.455 -1.804,-5.467 -5.519,-6.77 -11.67,-4.094 m -379.44,70.948 c 1.933,2.058 5.185,12.908 6.656,22.213 0.551,3.485 0.3,4.44 -1.644,6.25 -3.012,2.806 -5.494,2.698 -9.578,-0.417 -1.843,-1.406 -3.734,-2.319 -4.203,-2.029 -0.469,0.29 -1.096,3.209 -1.394,6.488 -0.661,7.292 -1.12,8.096 -4.627,8.096 -6.312,0 -9.684,-7.351 -10.663,-23.239 -0.637,-10.35 -0.53,-11.794 0.916,-12.349 3.063,-1.175 6.246,0.522 9.514,5.074 1.795,2.498 3.68,4.285 4.19,3.969 0.511,-0.315 0.928,-3.664 0.928,-7.443 0,-7.717 1.348,-10.05 5.365,-9.283 1.362,0.261 3.405,1.462 4.54,2.67 m 21.842,-1.149 c 0.546,0.688 1.546,2.969 2.223,5.07 1.507,4.677 2.913,5.309 7.047,3.171 4.068,-2.104 7.287,-1.298 8.932,2.235 0.71,1.526 1.517,7.724 1.792,13.774 0.466,10.22 0.354,11.133 -1.58,12.869 -1.588,1.426 -2.916,1.712 -5.609,1.207 -4.448,-0.835 -5.868,-3.3 -6.533,-11.347 -0.286,-3.448 -0.949,-6.373 -1.475,-6.5 -0.526,-0.126 -1.539,1.796 -2.251,4.271 -1.977,6.865 -6.97,9.225 -10.729,5.07 -1.476,-1.63 -5.55,-18.421 -5.561,-22.92 -0.002,-0.742 1.527,-2.88 3.397,-4.75 3.579,-3.579 8.415,-4.584 10.347,-2.15 m -53.362,18 c 0.788,1.238 1.986,6.403 2.663,11.48 1.486,11.149 1.03,12.041 -6.376,12.471 -4.792,0.277 -5.31,0.563 -7.169,3.955 -2.057,3.754 -13.473,14.844 -15.28,14.844 -1.461,0 -2.223,-2.555 -2.223,-7.457 0,-7.694 1.053,-10.642 4.535,-12.696 3.56,-2.1 12.765,-13.89 13.934,-17.847 1.331,-4.503 3.482,-7 6.031,-7 1.454,0 3.037,0.917 3.885,2.25 m 84.365,1.9 c 0.633,0.633 1.943,4.512 2.911,8.621 1.562,6.622 2.163,7.728 5.3,9.741 1.947,1.248 5.114,3.932 7.039,5.964 1.925,2.032 4.733,4.341 6.24,5.13 4.657,2.439 8.774,12.625 6.409,15.859 -1.83,2.503 -4.13,1.073 -11.17,-6.946 -5.948,-6.775 -7.389,-7.538 -9.479,-5.019 -3.002,3.617 -10.249,-0.091 -13.82,-7.072 -1.284,-2.511 -0.387,-24.327 1.076,-26.178 1.238,-1.565 3.98,-1.614 5.494,-0.1 m 157.326,0.707 c -3.528,6.592 14.619,36.143 22.195,36.143 1.674,0 3.073,-0.775 3.779,-2.093 0.94,-1.758 0.546,-3.022 -2.465,-7.901 -4.233,-6.858 -4.474,-10.234 -1.085,-15.221 2.585,-3.804 3.274,-8.188 1.463,-9.308 -1.206,-0.745 -17.413,-3.468 -20.678,-3.473 -1.218,-0.002 -2.662,0.832 -3.209,1.853 m 38.451,43.099 c -1.178,1.906 3.799,6.325 11.968,10.625 9.192,4.839 11.005,4.314 11.005,-3.186 0,-4.746 -0.106,-4.921 -3.683,-6.093 -5.818,-1.906 -18.401,-2.784 -19.29,-1.346 m -16.527,17.389 c 0,0.74 0.949,2.202 2.108,3.25 1.16,1.048 2.847,3.48 3.75,5.405 4.141,8.827 24.835,11.181 21.482,2.444 -0.778,-2.029 -21.555,-12.444 -24.823,-12.444 -1.442,0 -2.517,0.575 -2.517,1.345 m 33.667,20.322 c -1.654,1.653 -0.261,4.298 4.936,9.367 5.979,5.833 22.929,25.714 26.857,31.503 1.301,1.917 3.295,7.518 4.429,12.447 4.731,20.545 17.383,36.338 23.28,29.056 3.393,-4.19 1.677,-14.25 -5.924,-34.739 -4.178,-11.261 -5.25,-12.707 -22.936,-30.952 l -10.809,-11.151 -6.451,-0.605 c -5.001,-0.468 -7.037,-1.165 -9.055,-3.099 -2.778,-2.661 -3.281,-2.874 -4.327,-1.827 m -295.851,23.626 c 1.855,1.496 4.184,6.248 4.184,8.536 0,2.016 -2.813,3.513 -8.849,4.71 -5.414,1.073 -2.041,2.913 4.983,2.718 5.456,-0.151 6.404,0.127 8.877,2.601 1.841,1.84 3.158,4.638 3.927,8.344 0.662,3.187 2.039,6.372 3.217,7.436 1.132,1.024 2.705,3.475 3.495,5.447 0.95,2.375 2.61,4.146 4.915,5.245 1.914,0.913 3.892,2.743 4.396,4.066 0.898,2.364 -0.125,13.443 -1.439,15.568 -1.341,2.17 -3.378,0.873 -5.408,-3.444 -1.555,-3.308 -2.825,-4.631 -4.86,-5.059 -4.762,-1.003 -5.643,-1.907 -10.254,-10.533 -3.05,-5.705 -5.387,-8.84 -7.252,-9.728 -3.945,-1.879 -7.558,-7.745 -8.867,-14.398 -0.967,-4.915 -1.617,-6.039 -4.47,-7.722 -3.603,-2.126 -6.572,-7.75 -5.75,-10.893 0.279,-1.067 1.482,-2.431 2.673,-3.033 4.347,-2.194 13.688,-2.116 16.482,0.139 m -113.288,18.232 c -7.173,4.32 -21.287,14.078 -24.278,16.786 -2.42,2.192 -2.948,5.14 -1.121,6.269 0.621,0.383 4.748,1.062 9.171,1.508 7.896,0.796 13.7,2.442 13.7,3.885 0,0.402 1.331,2.123 2.958,3.825 l 2.957,3.095 -1.576,4.627 c -1.776,5.21 -1.274,10.976 1.168,13.411 1.429,1.426 1.912,1.375 5.283,-0.552 5.087,-2.908 8.21,-7.733 8.21,-12.685 0,-4.194 -4.056,-10.551 -10.931,-17.131 -1.688,-1.615 -3.069,-3.812 -3.069,-4.881 0,-1.65 0.511,-1.861 3.382,-1.395 1.909,0.31 3.869,0.062 4.5,-0.569 2.436,-2.436 0.218,-17.059 -2.835,-18.693 -1.353,-0.724 -3.165,-0.122 -7.519,2.5 m 236.24,4.311 c 1.489,0.945 3.232,6.512 3.232,10.324 0,1.733 -0.923,3.346 -2.626,4.586 l -2.625,1.913 1.87,7.261 1.871,7.262 -2.745,2.361 c -2.028,1.744 -2.745,3.282 -2.745,5.886 0,2.656 -0.616,3.928 -2.5,5.163 -1.732,1.135 -2.5,2.545 -2.5,4.589 0,5.107 -1.512,6.773 -5.552,6.117 -2.935,-0.476 -4.033,-0.112 -6.351,2.109 -2.506,2.401 -3.083,2.556 -5.459,1.474 -2.317,-1.056 -2.953,-0.933 -4.962,0.954 -3.004,2.822 -6.246,2.751 -8.166,-0.179 -2.425,-3.701 -7.51,-18.406 -7.51,-21.716 0,-4.11 2.447,-4.803 7.232,-2.049 3.301,1.9 4.748,2.137 9.578,1.568 7.026,-0.828 9.926,-2.582 11.838,-7.16 1.41,-3.374 1.672,-3.519 5.417,-3.017 2.164,0.29 3.935,0.331 3.935,0.09 0,-0.241 -1.171,-2.748 -2.601,-5.572 -2.029,-4.004 -2.465,-5.984 -1.983,-9 0.34,-2.127 0.162,-4.72 -0.395,-5.761 -0.558,-1.042 -0.77,-2.53 -0.472,-3.307 1.256,-3.271 10.998,-5.941 14.219,-3.896 m 292.232,23.826 c -3.447,2.375 -3.967,3.323 -3.985,7.272 -0.017,3.958 3.389,11.623 5.531,12.445 2.211,0.849 4.41,-0.355 5.009,-2.743 0.296,-1.178 3.46427,-5.741 3.30127,-10.139 -0.264,-7.12 -3.57527,-8.028 -5.35627,-8.277 -1.1,-0.154 -3.125,0.495 -4.5,1.442 m -367.789,13.22 c 3.141,0.55 7.028,1.974 8.638,3.164 2.651,1.96 3.263,2.043 6.49,0.876 5.791,-2.094 7.765,-0.499 11.574,9.352 4.857,12.564 3.111,15.74 -5.321,9.685 -4.215,-3.027 -4.546,-3.105 -6.735,-1.571 -3.37,2.36 -5.503,1.992 -8.599,-1.485 -3.883,-4.361 -5.492,-5.018 -9.023,-3.685 -2.522,0.951 -3.486,0.848 -5.718,-0.615 -4.854,-3.18 -8.158,-13.52 -5.267,-16.485 1.267,-1.299 2.586,-1.227 13.961,0.764 m -226.559,11.044 c -3.109,3.259 -5.652,6.704 -5.652,7.655 0,2.274 6.679,8.564 11.546,10.874 3.384,1.605 4.16,1.659 6.334,0.437 3.271,-1.838 4.331,-5.965 3.566,-13.892 -0.715,-7.42 -3.146,-11 -7.468,-11 -1.961,0 -4.179,1.579 -8.326,5.926 m 82.696,7.666 c -0.934,1.426 -1.903,5.051 -2.152,8.057 -0.4,4.827 -0.109,5.955 2.492,9.658 1.62,2.306 4.119,6.218 5.552,8.693 1.434,2.475 5.027,6.871 7.984,9.769 4.91,4.811 6.183,5.484 14.665,7.754 9.457,2.531 11.111,2.512 11.111,-0.13 0,-2.835 -9.438,-16.032 -26.308,-36.787 -8.376,-10.306 -10.467,-11.405 -13.344,-7.014 m 274.119,61.633 c -0.891,2.321 13.644,35.775 15.543,35.775 0.883,0 3.028,-1.913 4.767,-4.25 1.739,-2.337 4.134,-5.448 5.322,-6.913 l 2.161,-2.663 -2.292,-3.218 c -2.706,-3.801 -1.815,-6.272 2.442,-6.778 3.211,-0.382 4.166,-2.233 2.632,-5.1 -2.026,-3.785 -5.659,-5.231 -15.253,-6.069 -5.109,-0.447 -10.522,-1.129 -12.03,-1.517 -1.955,-0.502 -2.898,-0.292 -3.292,0.733 m -253.985,6.72 c -1.11,0.45 -3.472,2.177 -5.25,3.838 -4.345,4.059 -4.21,7.404 0.621,15.367 3.347,5.516 4.291,6.393 7.183,6.677 11.158,1.096 19.89,-7.017 17.557,-16.313 l -0.627,-2.499 -3.233,3.101 -3.233,3.101 -0.27,-3.358 c -0.5,-6.228 -1.193,-7.614 -4.62,-9.24 -3.755,-1.782 -5.118,-1.895 -8.128,-0.674"
     stroke="none"
     fill="undefined"
     fill-rule="evenodd"
     id="path1"
     style="display:inline"
     sodipodi:nodetypes="cccccsssccccccscssscscsccccccccsccscscccccscccccccccccccccscsccccccsccccccsccccccccccscscscscsccsccccsccccccscccccsccscscscscccscccsccssssccccsccscccccccccsccccsccsscccscsccsccccccccccccccccccsccccccccscscccccccccscccccscccccccccccscccscccccccsccccccccssccscscccsssccccccccccccccsccccccccscsccccssscsccccccccccccccscccccccsccscccssccccccccccccccccsccccscccscccccccscsccccsscccccccscscccccccsssccccccccccccsscccccccsccscccccscccccscsccccccccccccccccscscscccsccsccccscccccccsccccccscsccccccscscccsssccsssccccccccccscccccccccssccscsccccscccccsccsccsccccscccsccscsccccscccsccccccccccscccccssscsccccsccscccccsccscscccsccccccscccccscccccccscccccccccccccscsccccccsccccsscscscccscccccscscscccssccsscscccccccsccccccccscccccscccsccccccsscccsscccccccccsccccccccc" />
</svg>
