<?xml version="1.0" encoding="UTF-8" standalone="no"?>
<svg
   id="kill"
   viewBox="0 0 500 500"
   version="1.1"
   sodipodi:docname="kill.svg"
   inkscape:version="1.4.2 (ebf0e940d0, 2025-05-08)"
   xmlns:inkscape="http://www.inkscape.org/namespaces/inkscape"
   xmlns:sodipodi="http://sodipodi.sourceforge.net/DTD/sodipodi-0.dtd"
   xmlns="http://www.w3.org/2000/svg"
   xmlns:svg="http://www.w3.org/2000/svg"
   xmlns:rdf="http://www.w3.org/1999/02/22-rdf-syntax-ns#"
   xmlns:cc="http://creativecommons.org/ns#"
   xmlns:dc="http://purl.org/dc/elements/1.1/">
  <sodipodi:namedview
     id="namedview5"
     pagecolor="#ffffff"
     bordercolor="#000000"
     borderopacity="0.25"
     inkscape:showpageshadow="2"
     inkscape:pageopacity="0.0"
     inkscape:pagecheckerboard="0"
     inkscape:deskcolor="#d1d1d1"
     inkscape:zoom="1.5273506"
     inkscape:cx="261.56404"
     inkscape:cy="269.74814"
     inkscape:window-width="2560"
     inkscape:window-height="1348"
     inkscape:window-x="0"
     inkscape:window-y="0"
     inkscape:window-maximized="1"
     inkscape:current-layer="kill" />
  <defs
     id="defs1">
    <style
       id="style1">.cls-1{fill:#fff;}</style>
  </defs>
  <title
     id="title1">Artboard 1</title>
  <g
     id="g5"
     inkscape:label="DeadByDaylight"
     transform="matrix(0.84926262,0,0,0.84926262,113.40922,-45.434274)">
    <path
       style="display:inline;fill:#ffffff;fill-opacity:1;stroke-width:4.23228;stroke-opacity:0.5"
       d="m 105.74729,264.6925 -3.08995,-32.15839 5.72214,-1.6022 1.94552,-10.75761 -1.60219,-12.24536 4.34882,-1.25888 7.55321,10.9865 17.39529,1.48776 20.3708,21.17189 22.43076,3.54772 11.32983,7.7821 24.9485,10.75762 18.42527,25.29183 4.6713,7.9235 -0.66531,12.79165 -0.34382,17.16537 2.11714,20.46428 -6.12264,24.62614 20.48701,51.57315 -3.75657,0.3479 -36.98679,4.49919 6.63639,19.97827 1.29477,10.35817 0.32369,12.2194 6.11039,8.70403 4.86374,3.94914 -6.44243,4.58347 0.0805,7.65714 -2.50297,3.84037 -13.03382,-1.22027 -7.44493,-5.26001 -9.14432,-0.7283 -32.4502,-9.0634 -28.08035,-22.49665 -2.78562,-6.75973 -16.55502,-25.20493 -19.259723,-55.02777 -16.670175,-17.8031 4.208002,-35.28251 12.62402,-40.62344 z"
       id="path2-6"
       inkscape:label="DeadByDaylight_bg" />
    <path
       d="m 109.6751,205.70371 c -2.62401,0.80879 -3.27621,1.64974 -3.43323,4.42823 l -0.13162,2.32268 -1.67175,0.21162 c -2.00018,0.25309 -3.03963,1.70857 -3.47174,4.8612 -0.3297,2.40351 0.34154,3.17167 2.79076,3.19368 2.35569,0.0212 4.25726,2.04165 4.25726,4.52473 0,2.21518 -1.20663,3.07983 -4.29746,3.07983 -2.51271,0 -2.66126,-0.0618 -4.230592,-1.76147 -1.469448,-1.59177 -1.726348,-1.71619 -2.662952,-1.28916 -1.312008,0.5976 -1.639587,2.22661 -1.442785,7.18049 0.132893,3.36128 0.269596,3.89455 1.31243,5.13334 1.437707,1.70773 1.457175,2.29771 0.105808,3.1831 -1.34629,0.88201 -1.346713,2.05689 -0.0021,4.99367 1.003475,2.19232 4.039721,13.37909 4.644091,17.11112 0.2497,1.54182 0.13543,1.92061 -0.95692,3.17421 -0.681827,0.78297 -1.557063,2.0425 -1.944317,2.79881 -0.387253,0.75631 -0.955649,1.37549 -1.262913,1.37549 -0.797785,0 -1.959124,1.403 -1.959124,2.36754 0,1.04749 -1.278572,3.43069 -3.170403,5.90912 -1.214242,1.59091 -1.485108,2.3104 -1.485108,3.94702 0,1.48342 -0.279754,2.37897 -1.080925,3.45947 -0.999242,1.34798 -1.059763,1.68149 -0.80498,4.43543 0.233622,2.52541 0.102421,3.55385 -0.864655,6.77166 -1.422047,4.73126 -2.374734,5.82362 -5.123602,5.87356 l -2.00187,0.0364 -0.66997,2.11614 c -1.003898,3.17252 -1.979016,3.09464 -6.360275,-0.50745 -1.925689,-1.5833 -3.908937,-3.11962 -4.407076,-3.41461 -1.03564,-0.61283 -16.870301,-0.57347 -17.483559,0.0436 -0.193415,0.19469 0.07406,0.69918 0.594213,1.12071 1.387342,1.12494 5.474036,2.25919 18.302505,5.08001 4.71561,1.03691 5.723316,1.59938 6.08306,3.39725 0.680551,3.40234 -1.199429,3.70875 -7.979123,1.30101 -5.729664,-2.03446 -16.505477,-5.88541 -18.124749,-6.47709 -1.059764,-0.38725 -1.349675,-0.28695 -2.559261,0.8854 -0.750384,0.7271 -1.747087,1.32216 -2.215177,1.32216 -1.141024,0 -1.837658,0.61284 -3.967342,3.48952 -1.03564,1.39919 -2.898691,3.16532 -4.388878,4.16033 -2.136456,1.42671 -2.853828,2.23253 -4.105737,4.6115 -0.834183,1.58541 -2.620207,4.09389 -3.968612,5.57391 -3.123425,3.42858 -3.782391,4.42909 -3.464124,5.25862 0.379213,0.98866 1.576103,0.56839 2.347648,-0.82361 0.371594,-0.67039 0.767736,-1.2117 0.880738,-1.20281 0.113002,0.008 0.87185,0.13882 1.686565,0.28906 2.150846,0.39657 5.639093,-1.64932 10.230274,-6.00053 2.063238,-1.95531 4.462096,-3.84926 5.330983,-4.209 0.868465,-0.35975 2.176663,-1.30101 2.906309,-2.0916 2.192323,-2.37473 5.10498,-1.8986 7.124625,1.16515 1.791527,2.7167 7.831837,8.46965 10.04913,9.57089 1.06061,0.52649 2.234646,0.8401 2.608779,0.69663 0.374134,-0.1439 1.546477,-1.56425 2.605394,-3.15644 2.138996,-3.2178 4.187844,-5.1655 5.226869,-4.9687 0.479095,0.0906 0.724144,0.68098 0.816408,1.96801 0.101574,1.40935 -0.215,2.57027 -1.35814,4.97675 -0.819793,1.72634 -1.702647,4.32539 -1.961663,5.77622 -0.259439,1.45082 -0.920522,3.41122 -1.469872,4.35671 -0.952687,1.64043 -1.014055,2.23676 -1.345443,13.04897 -0.391063,12.77346 -0.319114,12.5301 -3.71806,12.5301 -2.155079,0 -3.88439,1.06442 -3.15559,1.94262 0.272135,0.32842 0.953533,0.59675 1.513464,0.59675 0.559931,0 2.203326,0.60014 3.651614,1.33401 1.447864,0.73346 4.435855,1.83258 6.639182,2.44245 l 4.006279,1.10844 3.400216,4.15145 c 1.870246,2.28289 3.749803,4.34486 4.17684,4.58187 0.534961,0.29668 1.378031,0.27933 2.707815,-0.0555 1.363641,-0.34366 2.063661,-0.35424 2.381082,-0.0368 0.663199,0.6632 -0.903592,2.05308 -4.052411,3.59533 -2.182165,1.06907 -2.850866,1.65651 -3.725255,3.2724 -1.889715,3.49205 -3.582205,5.23575 -6.056397,6.24008 -2.127569,0.86338 -2.401821,1.13594 -3.415029,3.39386 -1.773327,3.95169 -1.356447,5.06393 1.368297,3.655 0.637382,-0.32969 3.627489,-2.16735 6.645107,-4.08415 8.023562,-5.09694 7.687519,-4.92384 8.318552,-4.2928 0.826988,0.82698 1.260797,8.11286 0.549351,9.22933 -0.311496,0.48841 -2.246919,1.60785 -4.301693,2.48732 -2.05435,0.87989 -4.704605,2.24014 -5.889221,3.02269 -2.436526,1.60996 -6.59686,3.40318 -10.966269,4.72704 -1.753435,0.53115 -4.171338,1.72804 -5.923926,2.93213 -2.773838,1.90579 -3.087027,2.28839 -4.956422,6.05047 -1.097431,2.20883 -2.002717,4.32074 -2.011605,4.69318 -0.0093,0.37244 0.584055,1.50627 1.317933,2.51947 0.733878,1.01279 1.675138,2.96768 2.092018,4.3436 0.841373,2.77976 2.486885,5.40885 4.008814,6.4064 0.656427,0.43 1.995098,0.65474 3.899202,0.65474 2.892766,0 2.909695,-0.007 7.527115,-3.07391 6.866033,-4.56071 20.091494,-15.51343 21.549939,-17.84627 0.44185,-0.70679 0.449045,-1.63154 0.03894,-4.78883 -0.51126,-3.93729 -0.308957,-5.42113 0.614527,-4.49764 0.479519,0.47951 4.752849,15.15453 5.253109,18.03883 0.15152,0.8727 0.4372,1.58711 0.63484,1.58711 0.19723,0 0.95057,0.55274 1.67345,1.22778 1.16515,1.08855 1.31454,1.49485 1.31454,3.57798 0,1.95616 0.15956,2.46149 0.95227,3.01846 2.8314,1.98875 4.33682,2.79966 5.81473,3.13147 2.44922,0.55019 5.25904,3.04343 5.89261,5.22771 0.28779,0.99205 1.18165,3.17295 1.98663,4.84597 1.84528,3.83614 3.35578,4.91241 6.61506,4.71264 l 2.22788,-0.1367 0.12823,1.75851 c 0.12232,1.67895 0.0605,1.78095 -1.3738,2.25412 -0.82614,0.27256 -2.3705,0.52903 -3.43238,0.56924 -2.36542,0.0901 -2.52286,-0.0927 -5.89387,-6.84868 -1.35222,-2.71035 -2.74633,-5.26157 -3.09804,-5.66872 -0.78424,-0.90825 -1.92018,-0.95438 -2.62443,-0.10581 -0.92645,1.11648 -1.3573,0.7123 -1.06781,-1.00135 0.27256,-1.61293 0.23912,-1.66456 -2.33241,-3.59744 -1.43474,-1.07881 -2.87584,-1.96124 -3.20172,-1.96124 -0.83799,0 -0.74869,1.69206 0.29287,5.55275 0.85916,3.18352 0.99628,3.39091 4.54971,6.86222 4.81126,4.70038 7.51822,6.98793 9.24076,7.80941 1.55875,0.74319 1.74794,1.5304 0.72034,2.99773 -0.64246,0.91713 -0.62892,1.05553 0.21161,2.19317 0.49391,0.66743 0.89767,1.48764 0.89767,1.822 0,0.81217 2.17116,2.60835 5.95609,4.92807 1.709,1.04749 3.74557,2.33495 4.52558,2.8606 2.11656,1.42754 4.62546,2.64136 5.45838,2.64136 0.40545,0 1.31751,0.54385 2.02684,1.20832 1.3958,1.30735 31.05818,16.56727 32.20428,16.56727 0.3826,0 0.79525,-0.3809 0.91672,-0.84645 0.12189,-0.46556 0.40841,-0.84646 0.63653,-0.84646 0.22812,0 1.68191,1.21255 3.2305,2.69512 4.03887,3.86534 4.05876,3.87211 8.4396,2.78568 2.02768,-0.50279 5.26073,-1.56086 7.18387,-2.35103 3.75277,-1.54224 5.14392,-1.69841 8.65037,-0.97258 1.96674,0.40757 2.56603,0.80668 4.87305,3.24828 2.40944,2.55037 2.81785,2.81066 4.86712,3.10226 3.22373,0.45878 8.14461,0.44609 9.38128,-0.0241 0.7288,-0.27679 1.22313,-0.93872 1.5723,-2.10387 0.48755,-1.62816 0.42449,-1.87575 -1.48638,-5.83843 -1.09743,-2.27655 -2.5508,-4.71519 -3.22923,-5.41986 -0.67844,-0.70468 -1.87702,-2.9207 -2.66338,-4.92427 -1.40681,-3.58305 -6.57443,-13.39983 -7.81745,-14.85023 -0.34916,-0.40757 -0.88709,-0.74065 -1.19562,-0.74065 -0.69748,0 -2.27062,3.00661 -2.27062,4.34021 0,2.64687 4.66609,18.06804 5.73559,18.95555 0.48714,0.40418 0.76308,0.31361 1.38692,-0.45709 l 0.77874,-0.962 0.7051,1.00644 c 1.05384,1.50457 0.89216,3.14797 -0.41053,4.17261 -2.08271,1.63831 -3.78239,0.85492 -5.44187,-2.50848 -1.1533,-2.33876 -5.26877,-7.55335 -6.19183,-7.84623 -0.63231,-0.20061 -1.28111,0.20992 -2.64433,1.67387 -2.55419,2.74252 -3.50222,2.65533 -7.96262,-0.73388 -6.01069,-4.56663 -13.39306,-9.17643 -14.69576,-9.17643 -0.36651,0 -0.47655,0.8236 -0.38259,2.85679 0.12485,2.69765 0.0783,2.86441 -0.83292,2.99349 -1.57737,0.22389 -3.40699,-2.08313 -3.56231,-4.49257 -0.1202,-1.86051 -0.25902,-2.07128 -2.19994,-3.33884 -1.13976,-0.74446 -2.7586,-2.00653 -3.59744,-2.80559 -0.83926,-0.79863 -2.95414,-2.27104 -4.69995,-3.27155 -4.7774,-2.73871 -12.76414,-8.19158 -14.00674,-9.56327 -0.60395,-0.66658 -2.58931,-3.40233 -4.41173,-6.07925 -3.72187,-5.46641 -8.60339,-11.44536 -10.3746,-12.70658 -1.51727,-1.0805 -2.94905,-1.10251 -2.94905,-0.0457 0,0.43508 1.52362,4.07865 3.38582,8.09678 4.52812,9.77065 4.53235,11.52197 0.0144,6.12327 -7.55547,-9.02746 -9.42614,-12.89577 -11.84658,-24.49307 -2.23888,-10.72799 -5.81981,-21.95624 -9.19167,-28.82015 -1.7674,-3.59829 -2.53175,-5.80881 -3.36509,-9.73425 -1.92061,-9.04693 -1.89395,-9.31314 1.37761,-13.81164 1.6544,-2.274 1.73608,-3.14839 0.57982,-6.19056 -0.46513,-1.2244 -0.84603,-2.70062 -0.84603,-3.28002 0,-0.96707 0.15659,-1.05341 1.9151,-1.05341 2.45304,0 6.31923,1.35856 8.2009,2.88134 2.86102,2.3159 2.97529,2.65025 3.65584,10.67381 0.34451,4.06681 0.89386,8.82304 1.21975,10.56886 0.32631,1.74582 0.71822,4.56706 0.87058,6.26971 0.30134,3.36762 0.77112,4.94796 2.72347,9.16585 0.78636,1.69926 1.44152,4.03083 1.69884,6.04455 0.46979,3.67616 3.17929,13.29317 4.20308,14.91752 0.36652,0.58194 3.03032,4.09178 5.91885,7.79968 2.88853,3.70748 5.907,7.76539 6.70775,9.01688 0.80074,1.25148 2.43652,3.50644 3.63553,5.0106 2.29008,2.87329 3.82386,3.7972 12.57707,7.57705 1.74582,0.75377 5.73432,2.63587 8.86367,4.18192 l 5.68946,2.81151 h 6.48894 6.48893 l 2.84621,-1.43475 c 1.56552,-0.78889 3.15771,-1.78898 3.53819,-2.22194 0.38091,-0.43297 1.23202,-2.31083 1.89225,-4.17304 l 1.19986,-3.38582 0.0123,-17.56398 c 0.007,-9.66018 0.16844,-18.05745 0.35932,-18.66098 0.27806,-0.88116 0.11766,-1.36872 -0.8181,-2.48054 -1.28027,-1.52193 -2.02515,-5.08932 -1.57991,-7.56605 0.1494,-0.82826 0.0275,-1.83173 -0.29499,-2.43441 -0.47529,-0.88793 -0.42111,-1.29677 0.40503,-3.06121 l 0.95353,-2.03573 -0.66997,-8.97244 c -0.36863,-4.93484 -0.66997,-10.39152 -0.66997,-12.12634 0,-2.93466 0.0931,-3.26012 1.33232,-4.67201 2.15085,-2.44965 3.32023,-2.87076 6.32811,-2.27866 1.40427,0.27594 2.95287,0.82614 3.44212,1.22228 0.86085,0.69663 0.87227,0.8418 0.35382,4.48918 l -0.53539,3.76885 1.90453,4.86713 c 4.2107,10.75931 5.11641,13.10949 6.90032,17.90128 1.94769,5.23195 2.17877,6.39837 1.3666,6.90032 -0.58575,0.36186 -2.2101,-1.41866 -3.8391,-4.20943 -1.45041,-2.48478 -2.90208,-3.24743 -4.49003,-2.3595 -0.90317,0.50491 -1.30524,1.29296 -2.04208,4.00078 -1.16303,4.27418 -1.18589,6.59432 -0.14728,15.10882 1.87955,15.41059 3.22542,22.84925 4.47987,24.76436 0.34239,0.52227 1.28492,1.22694 2.0954,1.56552 1.67345,0.69918 1.89987,1.72931 0.76139,3.46667 -0.61834,0.94422 -0.64246,1.34205 -0.18537,3.05189 0.95226,3.55935 2.0044,5.48631 3.07983,5.63825 1.30777,0.18538 1.60827,1.85924 0.40206,2.24227 -1.09743,0.34831 -2.84494,-0.5811 -4.67836,-2.48901 -1.79745,-1.86982 -2.77849,-2.01668 -2.36415,-0.3534 0.15955,0.63993 0.91375,2.59228 1.67598,4.33809 0.76223,1.74582 1.81099,4.45998 2.32987,6.03185 0.76689,2.31972 1.13679,2.897 1.96759,3.06841 0.56289,0.11596 1.4521,0.30345 1.97563,0.41646 0.54258,0.11723 1.49865,1.06061 2.22195,2.19232 1.06061,1.6599 1.6472,2.11318 3.56358,2.75564 1.26164,0.4228 2.33368,0.72203 2.38278,0.66447 0.0491,-0.0576 -0.16549,-1.0568 -0.47698,-2.22068 -0.31108,-1.16388 -0.77536,-3.72991 -1.03099,-5.70216 -0.26028,-2.00695 -1.02844,-4.98859 -1.74412,-6.77165 -0.84646,-2.1081 -1.47834,-4.76047 -1.86813,-7.84115 -0.64373,-5.08678 -1.4923,-18.86159 -1.19181,-19.34873 0.10284,-0.16717 0.73938,-0.19299 1.41443,-0.058 1.19604,0.23912 1.2773,0.14009 3.12088,-3.80567 2.50975,-5.37034 3.56782,-5.63274 8.48108,-2.10302 2.80642,2.01626 6.08856,3.50983 7.72433,3.51491 0.98316,0.003 1.88125,-0.49179 3.44805,-1.90029 2.31251,-2.07933 3.51194,-2.34511 5.63359,-1.24768 2.42425,1.2536 4.6153,-0.78001 3.18775,-2.95879 -0.62722,-0.95734 -0.89301,-1.03987 -2.591,-0.8071 -2.31929,0.31785 -2.97868,-0.59209 -1.53928,-2.12418 1.12325,-1.1952 1.13679,-1.80507 0.0537,-2.38489 -0.58998,-0.31573 -0.84646,-0.88624 -0.84646,-1.88125 0,-1.01617 -0.46724,-2.02007 -1.61758,-3.47682 -0.89005,-1.12664 -3.77435,-5.28612 -6.41021,-9.24331 -5.57984,-8.3778 -6.06529,-8.96694 -7.6799,-9.3216 -1.52278,-0.33435 -1.73863,-0.69536 -2.12715,-3.55893 -0.28145,-2.07382 -1.00093,-3.33715 -6.75388,-11.86097 -10.4258,-15.44699 -11.83473,-16.89146 -17.31088,-17.74427 -4.20096,-0.65431 -16.16351,-1.00432 -17.46113,-0.51084 -0.81387,0.30938 -1.19139,0.82868 -1.39623,1.92104 -0.15448,0.8236 -0.16548,1.79787 -0.0246,2.16566 0.22474,0.58532 0.40842,0.5595 1.48723,-0.20866 1.71873,-1.22355 2.92239,-1.14017 3.26563,0.22643 0.74742,2.97868 -1.20917,13.02781 -2.64433,13.57843 -0.3534,0.13544 -1.36788,0.0292 -2.25454,-0.23616 -1.28408,-0.38513 -2.24523,-1.27772 -4.72958,-4.39353 -1.71449,-2.15042 -4.7046,-5.50281 -6.64468,-7.45009 -3.17718,-3.18818 -3.76673,-3.59574 -5.93705,-4.10193 -1.32555,-0.30895 -3.54707,-1.16303 -4.93738,-1.89733 -2.05773,-1.08685 -2.87245,-1.29719 -4.38422,-1.13044 -1.45464,0.1604 -2.41748,-0.0601 -4.4439,-1.01913 -1.42289,-0.67294 -3.24531,-1.22398 -4.04987,-1.22398 -0.80456,-4.2e-4 -3.32742,-0.31107 -5.60608,-0.69071 l -4.14341,-0.69028 -1.82707,1.68402 c -1.00517,0.92645 -2.71967,2.20756 -3.81075,2.84663 -2.17624,1.27561 -2.14111,1.1952 -4.03717,9.28225 -0.4846,2.06577 -1.19901,4.24117 -1.58753,4.83453 -0.67675,1.03268 -0.73177,1.04495 -1.28408,0.28949 -0.35424,-0.48459 -0.57686,-1.90876 -0.57686,-3.69182 0,-3.59024 -0.42915,-4.42908 -4.09516,-8.00663 -3.08829,-3.01381 -6.4665,-4.76978 -11.71369,-6.08772 -1.43093,-0.35932 -3.96099,-1.04749 -5.62216,-1.5287 l -3.02058,-0.87566 -2.90462,1.61335 c -1.59768,0.88751 -3.90216,2.24607 -5.121059,3.01931 -2.571111,1.63112 -4.311426,2.08398 -5.521859,1.43644 -1.153297,-0.61749 -5.818966,-10.2616 -7.389143,-15.27474 -1.9587,-6.25319 -1.279842,-9.38085 2.171161,-10.00469 2.098789,-0.37963 3.411644,-1.11182 4.96997,-2.77257 2.529636,-2.69554 2.843248,-4.31142 1.381417,-7.11616 -1.036909,-1.98959 -1.011515,-2.15211 1.366604,-8.64486 2.277815,-6.21849 2.808543,-7.15975 6.069939,-10.76566 4.10405,-4.53743 3.0756,-5.40885 -2.43779,-2.06577 -3.622838,2.19697 -4.385918,3.17294 -5.195977,6.6451 -0.639498,2.74168 -1.200699,3.81837 -1.989596,3.81837 -0.292451,0 -0.358898,-3.38667 -0.20315,-10.331 l 0.232352,-10.33058 1.620542,-3.10692 c 0.891742,-1.70858 4.624615,-7.60245 8.296119,-13.09765 l 6.67516,-9.99157 0.37202,-3.55173 c 0.20442,-1.95363 0.77577,-4.59965 1.26926,-5.87991 1.22101,-3.16448 1.15499,-4.08839 -0.78763,-11.07631 -3.31218,-11.91176 -4.03167,-15.11729 -3.51153,-15.63744 1.14272,-1.14272 2.05689,0.12866 8.2191,11.43436 1.57314,2.88599 3.29822,5.74278 3.83402,6.34842 l 0.97427,1.10124 0.13078,-1.13044 c 0.072,-0.62172 -0.64923,-4.24032 -1.60276,-8.04134 -3.16363,-12.61516 -3.67447,-13.87258 -6.37678,-15.6933 -1.00052,-0.67421 -1.46226,-1.31243 -1.46226,-2.02092 0,-1.23921 1.09362,-1.58583 2.03446,-0.645 0.36101,0.36102 0.79228,0.65601 0.95904,0.65601 0.59548,0 -0.22601,-5.39151 -1.73185,-11.36326 -1.46395,-5.80415 -1.59431,-7.25879 -0.65093,-7.25879 0.68775,0 0.83418,0.32462 7.80772,17.33712 1.18927,2.90166 2.35272,5.28232 2.5855,5.29036 0.24801,0.009 0.51083,-2.08525 0.63484,-5.06351 0.11639,-2.7933 0.37159,-5.3259 0.5667,-5.62851 0.55824,-0.86381 1.45675,0.14305 2.14111,2.39928 0.32674,1.07754 1.39624,3.86408 2.37685,6.19183 0.9802,2.32776 1.99891,4.81211 2.26385,5.52102 0.26494,0.70848 0.83376,1.82623 1.26461,2.4835 0.75081,1.14568 0.88243,1.18335 3.20638,0.92052 2.07551,-0.23489 2.58634,-0.14644 3.55511,0.6158 2.19317,1.72465 1.15838,2.90292 -1.84062,2.0954 -2.25326,-0.60648 -3.03327,-0.0686 -2.09413,1.4449 0.85323,1.37465 7.94484,7.78486 8.97371,8.1116 1.44617,0.45878 1.87659,-0.52269 0.75292,-1.71873 -0.54935,-0.58491 -1.2409,-1.06358 -1.53632,-1.06358 -0.29541,0 -0.81598,-0.39825 -1.15668,-0.88497 -0.54639,-0.77958 -0.54173,-1.1152 0.036,-2.81023 0.82191,-2.41325 0.54723,-9.70082 -0.56882,-15.06947 -1.05046,-5.05461 -0.26198,-5.48419 2.69681,-1.47029 3.56019,4.83072 10.57224,14.67247 12.52036,17.57413 1.12748,1.67852 2.4069,3.16574 2.84283,3.30414 0.43634,0.1384 2.81446,-0.23531 5.28442,-0.8308 2.47039,-0.59506 4.7554,-1.08219 5.07874,-1.08219 1.24599,0 44.51516,17.41457 46.79466,18.83366 1.21678,0.75715 15.51978,19.98949 16.99685,22.85433 0.56205,1.09023 7.07469,7.40649 7.63673,7.40649 0.76647,0 0.51169,-1.70265 -0.55866,-3.7333 -0.69706,-1.32174 -1.27434,-3.07009 -1.2828,-3.88481 -0.0199,-1.84824 -0.60564,-2.87414 -2.6583,-4.65805 -0.88793,-0.77154 -2.09794,-2.35696 -2.68919,-3.5238 -0.59125,-1.16684 -1.70011,-3.08829 -2.46404,-4.27037 -0.76393,-1.18208 -3.45016,-5.64079 -5.96963,-9.90862 -6.36493,-10.78132 -10.08384,-14.69364 -14.91795,-15.69331 -1.46818,-0.30345 -2.88304,-0.97723 -4.03379,-1.91976 -0.9747,-0.79906 -3.45397,-2.25919 -5.50917,-3.24532 l -3.73668,-1.79321 -2.50297,0.51718 c -1.37676,0.28441 -2.68877,0.40207 -2.91604,0.26156 -0.67717,-0.41858 -0.47021,-1.43221 0.40376,-1.97775 0.63061,-0.39403 0.7216,-0.68775 0.39952,-1.28958 -0.47994,-0.89724 -7.68413,-4.40411 -11.92572,-5.805 -1.83004,-0.60479 -3.59744,-1.57271 -4.84851,-2.65533 l -1.96843,-1.70392 -2.77003,0.27256 c -4.76809,0.46852 -15.07074,0.8181 -16.1487,0.54766 -0.61664,-0.1549 -4.24836,-3.76843 -9.05285,-9.00672 l -8.02272,-8.74855 -3.39471,0.27552 c -1.86686,0.15151 -4.69022,0.42577 -6.27352,0.60945 -3.56908,0.41391 -3.78196,0.29372 -9.17474,-5.17143 -4.41385,-4.47268 -4.69318,-4.58483 -8.50562,-3.41037 m 68.913,10.37713 c -1.5833,0.83588 -1.58711,0.84434 -1.58711,3.56909 0,2.40351 0.11977,2.80938 0.99967,3.38624 0.55019,0.36017 2.21644,0.76774 3.70324,0.90529 2.30321,0.21331 2.80685,0.13332 3.40234,-0.53962 1.41823,-1.60361 2.15465,-6.65484 1.12113,-7.68836 -0.83969,-0.83969 -5.805,-0.60099 -7.63927,0.36736 m 116.52067,9.56369 c -1.23371,1.40131 -1.99806,2.84452 -2.63417,4.97293 -0.49306,1.64932 -1.08347,3.23685 -1.31243,3.52761 -0.74531,0.94676 -2.12376,0.56205 -4.1705,-1.16388 -2.29135,-1.93203 -3.63045,-2.1246 -4.95642,-0.71356 -1.46564,1.56044 -1.15711,2.49662 1.61927,4.91156 2.19317,1.90749 2.53937,2.40902 2.53937,3.67997 0,0.99798 -0.33435,1.80592 -1.03903,2.51017 -0.98908,0.98951 -1.28492,1.03903 -6.19225,1.03903 h -5.15407 l -1.42459,1.5105 c -2.34468,2.48647 -2.38531,4.43247 -0.11469,5.54937 2.24818,1.10632 9.55691,3.23473 11.2312,3.27071 2.07213,0.0449 3.86281,-1.07077 4.75667,-2.96218 0.31996,-0.67716 1.15287,-1.83639 1.8512,-2.57577 1.15287,-1.22059 1.24344,-1.52023 0.98316,-3.25547 l -0.28653,-1.91087 6.45466,-6.57612 c 3.55004,-3.61691 6.61802,-6.86773 6.81778,-7.22451 0.52565,-0.93957 -1.64255,-4.70376 -3.29949,-5.72797 -2.27146,-1.40385 -3.68039,-1.12071 -5.66914,1.13848 m -33.25051,14.292 c -2.26554,1.02336 -2.88007,1.74158 -3.1412,3.67023 l -0.25182,1.85967 -2.17158,-0.14051 c -2.61047,-0.16887 -3.8954,0.54554 -8.61355,4.78925 -1.74581,1.5706 -3.98977,3.44127 -4.98647,4.15779 -1.75259,1.25953 -1.8038,1.3611 -1.5469,3.0756 0.16633,1.10674 0.0918,1.88041 -0.19765,2.05943 -0.71991,0.44481 -0.54935,2.21899 0.39107,4.06257 1.10716,2.16947 2.19274,2.19486 3.52591,0.0825 0.55358,-0.87608 1.34036,-1.87067 1.74878,-2.20925 0.40841,-0.33901 1.67429,-1.99722 2.8132,-3.68505 1.13891,-1.68784 2.45599,-3.42815 2.92704,-3.86704 0.47106,-0.43889 2.89743,-1.4978 5.39151,-2.35315 4.92511,-1.6891 6.88677,-2.73278 11.22401,-5.97217 4.16076,-3.10734 3.86831,-4.28984 -1.36999,-5.54302 -2.96894,-0.71018 -4.14763,-0.70764 -5.74236,0.0131 m 4.18996,13.73545 c -4.30635,3.1886 -12.86995,13.82306 -14.26448,17.71295 -1.25868,3.51195 -0.92603,5.33437 1.13213,6.20114 1.05257,0.4427 1.88887,1.57272 4.07527,5.5062 1.51304,2.7222 3.07263,5.36865 3.46581,5.88118 l 0.71484,0.93195 0.89343,-0.87905 c 0.75165,-0.74022 0.99416,-1.844 1.53209,-6.97438 0.69028,-6.58204 1.02675,-7.49368 3.72568,-10.10161 0.88666,-0.85704 1.78644,-2.32775 2.20121,-3.59744 0.38598,-1.18165 0.99712,-2.71966 1.35814,-3.41799 0.60056,-1.16176 1.02336,-3.00238 1.60403,-6.98327 0.16972,-1.16049 -0.0622,-1.9168 -1.06992,-3.49163 -1.5651,-2.44541 -2.87118,-2.63714 -5.36823,-0.78805 M 145.20258,291.5708 c -0.84476,0.29034 -3.79636,1.87109 -6.55919,3.5128 -3.36763,2.00102 -7.02813,3.72017 -11.10678,5.21671 -5.99461,2.19909 -6.09449,2.25665 -6.86096,3.95972 -0.7508,1.66795 -0.8473,1.72804 -2.77553,1.72804 h -1.99764 l -4.36729,9.27336 c -2.62571,5.57603 -4.36687,9.79943 -4.36687,10.5934 0,1.31878 5.0834,10.49395 6.80086,12.27489 1.05807,1.09701 1.5342,0.53496 0.66785,-0.78762 -0.92518,-1.41147 -0.42069,-1.62393 3.04471,-1.28239 l 2.89361,0.28526 3.94068,-2.376 c 2.16735,-1.30651 4.2454,-2.37178 4.61784,-2.36712 0.37244,0.005 2.21645,0.25859 4.09727,0.56459 1.90622,0.31022 3.82218,0.40799 4.32836,0.2205 0.64373,-0.23786 2.16354,-2.86568 5.22729,-9.03804 l 4.31947,-8.70285 -0.7525,-6.23161 c -0.41434,-3.4273 -0.92475,-6.55242 -1.13468,-6.94475 -0.20992,-0.39233 -0.95353,-1.12029 -1.65228,-1.618 -0.69875,-0.4973 -1.27053,-1.19351 -1.27053,-1.54733 0,-0.35339 1.14272,-1.83257 2.53937,-3.28679 3.27748,-3.41333 3.39175,-4.48664 0.36694,-3.44677 M 258.654,301.87091 c -1.17276,1.04791 -1.48553,1.89183 -2.92747,7.90463 -0.88751,3.70198 -1.51685,6.98454 -1.39792,7.29477 0.39064,1.01744 2.06916,1.05934 7.16314,0.17818 7.28333,-1.25953 8.27665,-1.59219 8.11625,-2.71713 -0.11428,-0.80456 -0.38006,-0.91841 -2.03616,-0.87185 -1.04749,0.0292 -2.68538,0.19342 -3.63976,0.3644 -2.32183,0.41688 -2.41833,0.0656 -1.79957,-6.54353 0.27722,-2.95668 0.38218,-5.69242 0.23363,-6.07925 -0.41223,-1.07543 -2.24227,-0.8435 -3.71214,0.46978 m -80.06548,2.95329 c -0.36271,0.40714 -1.27349,3.45735 -2.02388,6.778 l -1.36449,6.03777 1.13595,3.06164 c 3.32319,8.95508 4.82861,13.4121 5.10794,15.12406 0.46471,2.84832 1.02845,3.63511 4.25133,5.93493 6.92825,4.94331 9.03465,5.10963 4.31016,0.33943 -2.2355,-2.25708 -3.37356,-3.77012 -3.72992,-4.95939 -0.73091,-2.43991 -0.14262,-3.00788 3.11581,-3.00788 2.139,0 2.98969,0.2442 5.24676,1.50669 1.48172,0.82826 3.5949,1.77544 4.69614,2.10387 1.10124,0.32884 2.75691,0.984 3.6787,1.45632 0.92222,0.4719 2.05266,0.85831 2.51186,0.85831 0.45921,0 1.64975,0.39445 2.64518,0.87651 1.22059,0.59082 2.03107,0.75292 2.48647,0.49814 0.92771,-0.5193 5.52778,-6.69844 6.55792,-8.80908 1.40935,-2.88768 1.11986,-5.44568 -1.48045,-13.09214 -1.60658,-4.72323 -2.61217,-7.03998 -3.32446,-7.65789 -1.60827,-1.39623 -12.25034,-4.08204 -18.2678,-4.61065 -1.86221,-0.16379 -4.24287,-0.65347 -5.29036,-1.08897 -2.10514,-0.87439 -7.12843,-2.09032 -8.63682,-2.09032 -0.53157,0 -1.26291,0.3335 -1.62604,0.74065 m 60.94276,3.58643 c -0.37202,0.76266 -1.17488,4.05284 -1.78476,7.31169 -1.59049,8.4997 -2.33495,11.79792 -2.75818,12.22411 -0.59294,0.59675 -1.66244,-0.0389 -2.21094,-1.31413 -1.5943,-3.70832 -9.58189,-13.83448 -10.33481,-13.1023 -0.19638,0.1913 0.1913,1.33402 0.86127,2.53937 3.61437,6.50502 5.71443,10.96204 6.2113,13.18229 0.5303,2.36966 0.50152,2.64476 -0.60776,5.77622 -1.56087,4.40708 -1.21297,5.84521 2.06874,8.54668 1.2845,1.05764 2.88219,2.04292 3.55046,2.18978 3.17887,0.6979 3.48486,3.69605 1.14949,11.25956 -0.82064,2.65661 -1.70984,5.94255 -1.97648,7.30154 -0.656,3.34393 -1.61376,4.25894 -4.16541,3.98046 -2.38277,-0.25986 -3.0155,-0.0584 -3.0155,0.96031 0,1.34882 21.45641,40.98119 25.8292,47.70925 1.15711,1.78052 2.10387,3.47174 2.10387,3.75912 0,0.28694 0.54766,0.96411 1.2172,1.50499 0.66955,0.54047 1.43898,1.41359 1.71069,1.94051 0.78467,1.52277 1.91553,0.52268 3.19453,-2.82505 0.62384,-1.63155 1.86051,-3.77562 2.78145,-4.82227 1.86306,-2.11656 2.60963,-3.70155 2.11784,-4.49722 -0.48375,-0.78297 -1.82835,-0.37921 -2.37262,0.71272 -0.91798,1.84189 -1.92357,2.64941 -2.74844,2.20798 -0.42069,-0.22516 -0.88413,-0.78594 -1.03056,-1.24683 -0.16041,-0.50576 -0.92814,-1.03606 -1.93797,-1.33867 -2.37008,-0.71018 -2.83224,-1.39539 -1.94896,-2.89065 1.01151,-1.71196 0.91756,-2.41325 -1.03649,-7.73873 -3.123,-8.51281 -8.33506,-18.69146 -13.35243,-26.07552 -1.00686,-1.48214 -1.83046,-2.9626 -1.83046,-3.2906 0,-0.328 0.47613,-0.77705 1.05807,-0.99839 0.87693,-0.33351 1.05807,-0.68267 1.05807,-2.04081 0,-1.29974 0.30599,-1.95362 1.4813,-3.16363 l 1.4813,-1.52532 v -4.30296 c 0,-4.17811 -0.0368,-4.34571 -1.26969,-5.74956 -0.69832,-0.79524 -1.26968,-1.78221 -1.26968,-2.19317 0,-0.41095 -0.20273,-3.27367 -0.45032,-6.36112 -0.35974,-4.48749 -0.31149,-7.61472 0.23955,-15.57861 0.37879,-5.48038 0.55866,-10.27683 0.39868,-10.659 -0.15998,-0.38175 -0.41011,-3.34562 -0.55654,-6.58586 -0.2806,-6.2113 -0.67378,-7.22958 -1.85501,-4.80618 m 47.29745,10.53923 c -1.62943,0.46175 -3.24828,1.12706 -3.59744,1.47834 -0.56458,0.5684 -0.52776,0.72668 0.33266,1.43263 1.87786,1.54013 7.56224,2.63121 9.61109,1.84527 1.30185,-0.49983 1.56129,-2.15084 0.62595,-3.98469 -0.769,-1.50754 -1.00728,-1.66837 -2.43102,-1.64128 -0.86846,0.0165 -2.91181,0.40799 -4.54124,0.86973 m -130.75723,5.83251 c -0.35001,0.67674 -1.04325,2.7239 -1.54097,4.54971 -1.17827,4.32285 -1.28619,4.51161 -4.50653,7.87543 l -2.74083,2.86314 0.15871,3.1412 c 0.13289,2.63459 0.328,3.32192 1.20959,4.26487 1.6963,1.81311 2.37769,2.02345 3.31091,1.02167 0.64458,-0.6924 1.12283,-0.82148 2.25285,-0.60945 1.19223,0.22347 1.71026,0.0495 3.06882,-1.03013 0.89894,-0.71441 1.86094,-1.29889 2.13731,-1.29889 0.27636,0 1.9168,1.04453 3.64526,2.32141 1.72804,1.27645 3.7917,2.80007 4.58568,3.38582 0.79398,0.58533 1.67768,1.06442 1.96336,1.06442 1.04325,0 2.3578,-1.52277 2.7404,-3.17421 0.83503,-3.60252 0.532,-5.49223 -1.54436,-9.63691 -1.07627,-2.14831 -2.30448,-4.39819 -2.72898,-4.99917 -0.42492,-0.60099 -1.16811,-2.12461 -1.65228,-3.38583 -1.86601,-4.86247 -2.54064,-5.40166 -3.89201,-3.11073 -1.19435,2.02388 -2.43398,1.85078 -3.23727,-0.452 -1.25741,-3.60591 -1.46606,-4.02067 -2.02092,-4.02067 -0.31488,0 -0.85873,0.55358 -1.20874,1.23032 m 103.22327,2.23338 c -1.39327,1.22355 -1.65186,1.30396 -2.79669,0.87185 -1.4394,-0.54343 -2.27782,-0.34028 -3.63342,0.87989 -1.85247,1.66752 -1.16769,2.72855 3.15813,4.89252 2.94609,1.47368 3.50772,2.21433 3.50772,4.62546 0,2.22618 0.87354,2.97572 2.34468,2.01203 1.28619,-0.84265 1.70223,-1.83597 2.76072,-6.58797 1.4102,-6.33023 0.92772,-8.04134 -2.26723,-8.04134 -1.12621,0 -1.95066,0.36144 -3.07391,1.34756 m 22.47469,8.26861 c -2.73236,2.36161 -3.4218,3.47894 -3.12131,5.05758 0.20865,1.09616 4.66863,1.33952 6.51729,0.35593 2.558,-1.3611 3.71426,-5.18962 2.1043,-6.96887 -1.26419,-1.39666 -2.48393,-1.05173 -5.50028,1.55536 m 37.58225,2.4251 c -3.38413,1.47241 -1.66794,7.004 2.17328,7.004 2.36881,0 3.68039,-2.50001 2.76579,-5.27131 -0.7635,-2.31378 -2.33579,-2.86525 -4.93907,-1.73269 m -160.58974,30.0272 c 0.8181,0.871 2.19444,5.46303 2.817,9.40117 0.2332,1.47495 0.12697,1.87913 -0.69578,2.64518 -1.27477,1.18757 -2.32522,1.14187 -4.05368,-0.17649 -0.78001,-0.59506 -1.58034,-0.98147 -1.77883,-0.85873 -0.1985,0.12274 -0.46386,1.35814 -0.58998,2.7459 -0.27976,3.08618 -0.47402,3.42646 -1.95828,3.42646 -2.67142,0 -4.09854,-3.11115 -4.51288,-9.8354 -0.2696,-4.38041 -0.22431,-4.99156 0.38767,-5.22645 1.29635,-0.49729 2.64349,0.22093 4.0266,2.14746 0.75969,1.05723 1.55748,1.81354 1.77332,1.6798 0.21627,-0.13332 0.39276,-1.55071 0.39276,-3.15009 0,-3.26606 0.57051,-4.25345 2.27062,-3.92883 0.57644,0.11046 1.44109,0.61876 1.92146,1.13002 m 9.24415,-0.48629 c 0.23108,0.29118 0.65431,1.25656 0.94084,2.14577 0.6378,1.97944 1.23286,2.24692 2.98249,1.34205 1.72169,-0.89047 3.08406,-0.54935 3.78027,0.94592 0.30049,0.64585 0.64204,3.26901 0.75843,5.82955 0.19722,4.32539 0.14982,4.7118 -0.66871,5.44652 -0.67208,0.60352 -1.23413,0.72457 -2.37388,0.51084 -1.88252,-0.3534 -2.48351,-1.39666 -2.76495,-4.80237 -0.12105,-1.4593 -0.40165,-2.69724 -0.62426,-2.75099 -0.22262,-0.0533 -0.65135,0.76012 -0.95269,1.80761 -0.83672,2.90546 -2.9499,3.90428 -4.54082,2.14577 -0.62468,-0.68987 -2.34892,-7.79629 -2.35357,-9.7004 -8.5e-4,-0.31403 0.64627,-1.21889 1.43771,-2.01033 1.51473,-1.51473 3.56146,-1.94008 4.37914,-0.90994 m -22.58431,7.61811 c 0.3335,0.52396 0.84053,2.70993 1.12706,4.85866 0.62892,4.71857 0.43592,5.09609 -2.69851,5.27808 -2.02811,0.11723 -2.24734,0.23828 -3.03412,1.67387 -0.87058,1.5888 -5.70215,6.2824 -6.46693,6.2824 -0.61833,0 -0.94083,-1.08135 -0.94083,-3.15602 0,-3.25631 0.44566,-4.50399 1.91934,-5.3733 1.50669,-0.88878 5.40251,-5.87864 5.89726,-7.55336 0.56332,-1.90579 1.47368,-2.9626 2.55249,-2.9626 0.61537,0 1.28534,0.38811 1.64424,0.95227 m 35.70566,0.80413 c 0.2679,0.26791 0.82233,1.90961 1.23201,3.64865 0.66109,2.80262 0.91545,3.27071 2.24311,4.12267 0.82403,0.52819 2.16439,1.66413 2.97911,2.52413 0.81471,0.86 2.00314,1.83724 2.64094,2.17116 1.97098,1.03226 3.71341,5.34326 2.71247,6.71198 -0.77451,1.05934 -1.74793,0.45413 -4.72746,-2.93974 -2.51736,-2.86737 -3.12723,-3.1903 -4.01178,-2.12418 -1.27053,1.53081 -4.33767,-0.0385 -5.84901,-2.99307 -0.54343,-1.06273 -0.16379,-10.29588 0.45539,-11.07927 0.52396,-0.66236 1.68445,-0.6831 2.32522,-0.0423 m 66.58481,0.29922 c -1.49315,2.78993 6.18717,15.29674 9.39355,15.29674 0.70849,0 1.30058,-0.328 1.59938,-0.88581 0.39784,-0.74404 0.23108,-1.279 -1.04326,-3.34393 -1.79152,-2.9025 -1.89352,-4.33132 -0.4592,-6.44196 1.09405,-1.60996 1.38565,-3.46539 0.61918,-3.93941 -0.51041,-0.3153 -7.36967,-1.46775 -8.75151,-1.46987 -0.51549,-8.4e-4 -1.12663,0.35213 -1.35814,0.78424 m 16.27355,18.24072 c -0.49856,0.80667 1.60785,2.67692 5.0652,4.4968 3.89031,2.048 4.65762,1.82581 4.65762,-1.3484 0,-2.00865 -0.0449,-2.08271 -1.55874,-2.57873 -2.46235,-0.80668 -7.78783,-1.17827 -8.16408,-0.56967 m -6.99469,7.35952 c 0,0.31319 0.40164,0.93195 0.89216,1.37549 0.49095,0.44354 1.20493,1.47283 1.58711,2.28755 1.75259,3.73583 10.51087,4.73211 9.09179,1.03437 -0.32927,-0.85873 -9.12269,-5.26665 -10.5058,-5.26665 -0.61029,0 -1.06526,0.24335 -1.06526,0.56924 m 14.24882,8.60084 c -0.70002,0.6996 -0.11046,1.81904 2.08906,3.96438 2.53048,2.46869 9.7042,10.88289 11.36664,13.33296 0.55062,0.81133 1.39454,3.18183 1.87448,5.26793 2.00229,8.69522 7.35698,15.37927 9.85275,12.29732 1.43602,-1.77333 0.70976,-6.03101 -2.5072,-14.70253 -1.76825,-4.76597 -2.22195,-5.37796 -9.70716,-13.09976 l -4.57468,-4.71942 -2.73024,-0.25605 c -2.11657,-0.19808 -2.97826,-0.49307 -3.83234,-1.31159 -1.17573,-1.12621 -1.38861,-1.21636 -1.83131,-0.77324 m -125.21251,9.99919 c 0.78509,0.63315 1.77079,2.64433 1.77079,3.61268 0,0.85323 -1.19054,1.4868 -3.74515,1.99341 -2.29136,0.45412 -0.86381,1.23286 2.10895,1.15033 2.30913,-0.0639 2.71035,0.0538 3.75699,1.10082 0.77917,0.77874 1.33656,1.96293 1.66202,3.53141 0.28018,1.34883 0.86296,2.69682 1.36153,3.14713 0.47909,0.43339 1.14483,1.47072 1.47918,2.30532 0.40207,1.00517 1.10463,1.75471 2.08017,2.21984 0.81006,0.3864 1.6472,1.16091 1.86051,1.72084 0.38006,1.00052 -0.0529,5.68946 -0.60903,6.58882 -0.56755,0.91841 -1.42966,0.36948 -2.28881,-1.4576 -0.65812,-1.40004 -1.19562,-1.95997 -2.05689,-2.14111 -2.01542,-0.4245 -2.38828,-0.80709 -4.33979,-4.45786 -1.29084,-2.41452 -2.27993,-3.74134 -3.06925,-4.11717 -1.66963,-0.79524 -3.19876,-3.2779 -3.75276,-6.09364 -0.40927,-2.08017 -0.68436,-2.55587 -1.89183,-3.26817 -1.5249,-0.89978 -2.78146,-3.28002 -2.43357,-4.61022 0.11808,-0.45159 0.62723,-1.02887 1.13129,-1.28365 1.83978,-0.92857 5.79315,-0.89556 6.97565,0.0588 m -47.946686,7.7163 c -3.035817,1.82835 -9.009261,5.95821 -10.275137,7.10431 -1.024212,0.92772 -1.247677,2.1754 -0.474439,2.65322 0.262825,0.1621 2.009488,0.44947 3.881427,0.63823 3.341811,0.33689 5.798228,1.03352 5.798228,1.64424 0,0.17014 0.563317,0.89851 1.251909,1.61885 l 1.251486,1.30989 -0.667008,1.95828 c -0.751653,2.20502 -0.539193,4.64535 0.494331,5.67591 0.604793,0.60353 0.809209,0.58194 2.235919,-0.23362 2.15296,-1.23075 3.4747,-3.27282 3.4747,-5.36865 0,-1.77502 -1.71661,-4.46548 -4.62631,-7.25032 -0.714408,-0.68352 -1.298886,-1.61335 -1.298886,-2.06578 0,-0.69833 0.21627,-0.78763 1.431356,-0.5904 0.80795,0.1312 1.63747,0.0262 1.90453,-0.24082 1.03098,-1.03099 0.0923,-7.21985 -1.19985,-7.91141 -0.57263,-0.30642 -1.33952,-0.0516 -3.182256,1.05807 m 99.983456,1.82454 c 0.63018,0.39995 1.36787,2.75606 1.36787,4.36941 0,0.73345 -0.39064,1.41612 -1.1114,1.94092 l -1.11097,0.80964 0.79143,3.07306 0.79186,3.07348 -1.16176,0.99925 c -0.8583,0.73811 -1.16176,1.38903 -1.16176,2.49112 0,1.12409 -0.26071,1.66244 -1.05807,2.18513 -0.73303,0.48036 -1.05807,1.07711 -1.05807,1.94219 0,2.16143 -0.63992,2.86653 -2.34976,2.58889 -1.24218,-0.20146 -1.70688,-0.0474 -2.68793,0.89259 -1.06061,1.01617 -1.30481,1.08177 -2.3104,0.62383 -0.98062,-0.44692 -1.24979,-0.39487 -2.10006,0.40376 -1.27138,1.19435 -2.64348,1.16431 -3.45608,-0.0757 -1.02633,-1.56637 -3.17845,-7.78994 -3.17845,-9.19083 0,-1.73947 1.03564,-2.03276 3.06079,-0.86719 1.39708,0.80413 2.00949,0.90443 4.05368,0.66362 2.9736,-0.35043 4.20097,-1.09278 5.01018,-3.03032 0.59675,-1.42797 0.70764,-1.48934 2.29263,-1.27688 0.91586,0.12274 1.6654,0.14009 1.6654,0.0381 0,-0.10199 -0.4956,-1.16303 -1.10082,-2.35822 -0.85873,-1.69461 -1.04325,-2.5326 -0.83926,-3.80906 0.1439,-0.9002 0.0686,-1.99764 -0.16717,-2.43822 -0.23617,-0.441 -0.32589,-1.07076 -0.19977,-1.39961 0.53158,-1.38438 4.65467,-2.5144 6.01789,-1.6489 m 123.68085,10.08384 c -1.45887,1.00516 -1.67895,1.40638 -1.68657,3.07771 -0.007,1.67514 1.43432,4.91919 2.34088,5.26708 0.93575,0.35932 1.86643,-0.15025 2.11995,-1.16092 0.12527,-0.49856 1.46617,-2.42975 1.39719,-4.29111 -0.11173,-3.01338 -1.51316,-3.39767 -2.26693,-3.50306 -0.46555,-0.0652 -1.32258,0.2095 -1.90452,0.6103 m -155.65871,5.59508 c 1.32936,0.23277 2.97444,0.83545 3.65584,1.33909 1.12198,0.82953 1.381,0.86466 2.74675,0.37075 2.45092,-0.88624 3.28637,-0.21119 4.89845,3.95803 2.05562,5.31744 1.31666,6.66161 -2.252,4.09896 -1.78391,-1.28111 -1.924,-1.31412 -2.85044,-0.66489 -1.42628,0.99882 -2.32903,0.84307 -3.63934,-0.62849 -1.6434,-1.8457 -2.32437,-2.12376 -3.81879,-1.5596 -1.06738,0.40249 -1.47538,0.3589 -2.42002,-0.26028 -2.05435,-1.34587 -3.4527,-5.72205 -2.22914,-6.97692 0.53623,-0.54977 1.09446,-0.5193 5.90869,0.32335 m -95.886183,4.67413 c -1.315817,1.3793 -2.392087,2.83732 -2.392087,3.23981 0,0.96242 2.826742,3.62453 4.886594,4.60219 1.432205,0.67928 1.76063,0.70213 2.680728,0.18495 1.38438,-0.7779 1.833002,-2.52456 1.509232,-5.87949 -0.302608,-3.14035 -1.331476,-4.65551 -3.160668,-4.65551 -0.829951,0 -1.768671,0.66828 -3.523799,2.50805 m 34.999283,3.24447 c -0.39529,0.60352 -0.8054,2.13772 -0.91078,3.40995 -0.16929,2.04292 -0.0461,2.52032 1.05468,4.08754 0.68563,0.97596 1.74328,2.63163 2.34976,3.67912 0.60691,1.04749 2.12757,2.908 3.37906,4.13452 2.07805,2.03615 2.61682,2.32098 6.20664,3.28171 4.00247,1.07119 4.70249,1.06315 4.70249,-0.055 0,-1.19985 -3.99443,-6.7852 -11.13429,-15.5693 -3.54496,-4.36179 -4.42993,-4.82692 -5.64756,-2.96852 m 116.01492,26.08483 c -0.3771,0.98231 5.77453,15.14099 6.57824,15.14099 0.37371,0 1.28153,-0.80964 2.01753,-1.79872 0.73599,-0.98909 1.74962,-2.30575 2.25242,-2.92578 l 0.91459,-1.12706 -0.97004,-1.36194 c -1.14525,-1.6087 -0.76815,-2.65449 1.03353,-2.86865 1.35898,-0.16167 1.76317,-0.94506 1.11394,-2.15846 -0.85747,-1.60192 -2.39505,-2.21391 -6.45551,-2.56857 -2.16227,-0.18919 -4.4532,-0.47783 -5.09143,-0.64204 -0.82741,-0.21246 -1.22652,-0.12358 -1.39327,0.31023 m -107.49364,2.84409 c -0.46978,0.19045 -1.46945,0.92137 -2.22195,1.62435 -1.83892,1.71788 -1.78179,3.13358 0.26283,6.50375 1.41654,2.33453 1.81607,2.7057 3.04005,2.82589 4.72238,0.46386 8.41801,-2.96979 7.43062,-6.90412 l -0.26537,-1.05765 -1.36829,1.31244 -1.3683,1.31243 -0.11427,-1.4212 c -0.21162,-2.63587 -0.50491,-3.22246 -1.95532,-3.91063 -1.58922,-0.7542 -2.16608,-0.80202 -3.44,-0.28526"
       stroke="none"
       fill="undefined"
       fill-rule="evenodd"
       id="path1-7"
       style="display:inline;stroke-width:0.423228"
       sodipodi:nodetypes="cccccsssccccccscssscscsccccccccsccscscccccscccccccccccccccscsccccccsccccccsccccccccccscscscscsccsccccsccccccscccccsccscscscscccscccsccssssccccsccscccccccccsccccsccsscccscsccsccccccccccccccccccsccccccccscscccccccccscccccscccccccccccscccscccccccsccccccccssccscscccsssccccccccccccccsccccccccscsccccssscsccccccccccccccscccccccsccscccssccccccccccccccccsccccscccscccccccscsccccsscccccccscscccccccsssccccccccccccsscccccccsccscccccscccccscsccccccccccccccccscscscccsccsccccscccccccsccccccscsccccccscscccsssccsssccccccccccscccccccccssccscsccccscccccsccsccsccccscccsccscsccccscccsccccccccccscccccssscsccccsccscccccsccscscccsccccccscccccscccccccscccccccccccccscsccccccsccccsscscscccscccccscscscccssccsscscccccccsccccccccscccccscccsccccccsscccsscccccccccsccccccccc"
       inkscape:label="DeadByDaylight" />
  </g>
  <metadata
     id="metadata5">
    <rdf:RDF>
      <cc:Work
         rdf:about="">
        <dc:title>Artboard 1</dc:title>
      </cc:Work>
    </rdf:RDF>
  </metadata>
</svg>
