<?xml version="1.0" encoding="UTF-8" standalone="no"?>
<svg
   id="killed"
   viewBox="0 0 500 500"
   version="1.1"
   sodipodi:docname="killed (1).svg"
   inkscape:version="1.4.2 (ebf0e940d0, 2025-05-08)"
   xmlns:inkscape="http://www.inkscape.org/namespaces/inkscape"
   xmlns:sodipodi="http://sodipodi.sourceforge.net/DTD/sodipodi-0.dtd"
   xmlns:xlink="http://www.w3.org/1999/xlink"
   xmlns="http://www.w3.org/2000/svg"
   xmlns:svg="http://www.w3.org/2000/svg"
   xmlns:rdf="http://www.w3.org/1999/02/22-rdf-syntax-ns#"
   xmlns:cc="http://creativecommons.org/ns#"
   xmlns:dc="http://purl.org/dc/elements/1.1/">
  <sodipodi:namedview
     id="namedview4"
     pagecolor="#2f2f2f"
     bordercolor="#000000"
     borderopacity="0.25"
     inkscape:showpageshadow="2"
     inkscape:pageopacity="0.0"
     inkscape:pagecheckerboard="true"
     inkscape:deskcolor="#d1d1d1"
     inkscape:zoom="1.5457354"
     inkscape:cx="323.79409"
     inkscape:cy="246.16114"
     inkscape:window-width="2560"
     inkscape:window-height="1348"
     inkscape:window-x="0"
     inkscape:window-y="0"
     inkscape:window-maximized="1"
     inkscape:current-layer="killed" />
  <defs
     id="defs1">
    <style
       id="style1">.cls-1{fill:#fff;}</style>
    <radialGradient
       inkscape:collect="always"
       xlink:href="#linearGradient1"
       id="radialGradient2"
       cx="411.90094"
       cy="367.53055"
       fx="411.90094"
       fy="367.53055"
       r="352.9671"
       gradientTransform="matrix(0.70828129,0,0,0.68772712,-41.741725,-10.015675)"
       gradientUnits="userSpaceOnUse" />
    <linearGradient
       id="linearGradient1"
       inkscape:collect="always">
      <stop
         style="stop-color:#b60b0b;stop-opacity:1;"
         offset="0"
         id="stop1" />
      <stop
         style="stop-color:#520404;stop-opacity:1;"
         offset="1"
         id="stop2" />
    </linearGradient>
  </defs>
  <title
     id="title1">killed</title>
  <metadata
     id="metadata4">
    <rdf:RDF>
      <cc:Work
         rdf:about="">
        <dc:title>killed</dc:title>
      </cc:Work>
    </rdf:RDF>
  </metadata>
  <path
     d="m 202.96946,0.60949367 c -1.96335,0.53829383 -4.85172,0.79256673 -6.48148,0.57087473 -3.11927,-0.42496877 -11.29496,0.6629513 -14.65151,1.9506067 -1.10491,0.4235522 -2.77362,1.9810627 -3.70785,3.4613706 -1.89819,3.0073625 -3.1476,3.8282603 -8.03403,5.2788203 -1.85287,0.550335 -3.91538,1.604257 -4.58329,2.342286 -0.66791,0.73803 -2.82463,5.76116 -4.79294,11.162514 -1.96831,5.401353 -3.92884,10.458481 -4.35593,11.237591 -0.4278,0.779109 -1.01072,3.010195 -1.29616,4.957969 -0.9753,6.652886 -5.82136,19.131385 -8.81951,22.711747 -1.52493,1.820992 -3.25101,3.878549 -3.83535,4.571956 -0.58433,0.694116 -2.04905,1.466851 -3.25526,1.718291 -1.2062,0.250731 -3.50457,1.71687 -5.10741,3.257382 -1.60355,1.540511 -3.5407,2.800544 -4.30494,2.800544 -0.76423,0 -2.35787,0.814523 -3.5414,1.811075 -1.18354,0.995844 -3.35938,1.992395 -4.83544,2.214796 -2.2063,0.332184 -3.79497,1.531304 -8.94134,6.74992 -5.19241,5.265363 -6.18826,6.628805 -5.84403,7.999329 0.60204,2.400366 -0.2054,3.889881 -2.10856,3.889881 -1.06738,0 -2.37486,0.907313 -3.64269,2.527853 -2.553351,3.26376 -5.060666,4.54788 -10.33382,5.29299 -3.554864,0.50217 -4.680323,1.02559 -6.714507,3.11998 -3.017987,3.10723 -4.730611,3.22409 -5.717955,0.39168 -0.818065,-2.34654 -2.249501,-2.71343 -3.951501,-1.01214 -1.430728,1.43144 -1.403105,2.33237 0.126782,4.11583 1.22391,1.42647 1.217536,1.43072 -0.531211,0.33006 -0.973887,-0.61267 -3.088106,-2.43295 -4.697321,-4.045 -3.350171,-3.35371 -4.64845,-3.5499 -10.007307,-1.51289 -2.049057,0.7784 -4.561331,1.41586 -5.582673,1.41586 -1.020633,0 -2.993905,0.70261 -4.384261,1.56246 -1.389648,0.85915 -3.976999,1.93361 -5.749828,2.38762 -2.944325,0.75503 -3.221971,1.01355 -3.217721,2.99532 0.0035,1.87836 -0.298187,2.22613 -2.249502,2.59231 -1.794076,0.33644 -2.565395,1.06667 -3.783638,3.58249 -1.406647,2.90608 -1.723957,3.14618 -3.953627,2.98824 -1.781327,-0.12678 -2.321037,-0.44339 -2.034183,-1.19487 0.289687,-0.75786 0.04745,-0.71183 -0.934932,0.17778 -1.429311,1.29332 -3.242511,5.04154 -6.232875,12.88576 -1.039757,2.72688 -2.487484,5.61596 -3.216305,6.41986 -0.72953,0.80461 -1.326611,2.05685 -1.326611,2.78284 0,0.72669 -0.369723,2.3437 -0.821607,3.59382 -0.735904,2.03347 -0.607705,2.63693 1.212578,5.71653 1.119084,1.89395 2.546979,4.39985 3.1731,5.56851 0.626121,1.16867 1.795493,3.24039 2.598684,4.60383 4.629327,7.85909 8.00287,14.12171 8.00287,14.85762 0,0.46321 1.274907,3.41604 2.833126,6.56222 1.558218,3.14548 2.833125,6.24704 2.833125,6.89158 0,0.64454 1.313153,3.34875 2.918119,6.00977 1.604965,2.66172 3.87359,6.87953 5.040838,9.3741 1.905276,4.07191 2.046933,4.83968 1.387523,7.51203 -1.643213,6.65714 -2.487484,11.71426 -2.684386,16.0794 -0.500755,11.09594 -1.11696,16.60778 -2.090138,18.67596 -1.637547,3.48262 -5.31636,8.36905 -8.282642,11.00174 -1.624797,1.44277 -3.745391,4.5677 -5.286611,7.79109 -3.149019,6.58702 -6.917075,11.39058 -8.9718,11.43662 -0.988052,0.022 -3.341671,2.13617 -6.820748,6.12734 -2.9216606,3.3523 -6.5190215,7.37038 -7.9943714,8.9293 -1.4746417,1.55893 -2.94078392,3.29705 -3.25667737,3.86226 -0.67074238,1.19841 1.42647847,10.79562 3.07677387,14.08063 0.848521,1.68925 0.9434307,2.67731 0.3959293,4.11866 -1.0737545,2.8225 -0.8740192,6.54381 0.4865892,9.09858 0.7784011,1.46048 1.2189521,3.95292 1.2394923,7.00915 0.030456,4.55354 0.1572384,4.89281 3.1695589,8.49938 3.4790782,4.16469 7.0962702,6.86324 10.3196582,7.69901 1.168664,0.30244 5.142122,1.82454 8.829435,3.38205 4.903431,2.07101 7.036774,2.65393 7.940541,2.17017 1.990979,-1.06525 12.51958,1.8904 14.985816,4.20719 1.165831,1.095 3.130603,1.80966 6.152131,2.23675 5.973644,0.84428 7.206762,2.12272 2.046933,2.12272 -2.57956,0 -4.831187,-0.49863 -6.693258,-1.48314 -1.542637,-0.81523 -3.884923,-1.46118 -5.203743,-1.43427 -1.570259,0.0319 -3.117146,-0.55671 -4.481296,-1.70483 -3.653314,-3.07394 -7.906544,-3.27651 -7.138767,-0.34068 0.579374,2.21338 6.154257,6.15496 10.488938,7.41499 2.122011,0.61692 4.356638,1.82029 5.076252,2.73326 2.012935,2.55477 3.537157,3.08952 7.39304,2.59443 3.0619,-0.39238 3.932378,-0.88535 6.183296,-3.4989 2.296248,-2.66527 3.056942,-3.08386 6.14859,-3.38063 5.298652,-0.50926 9.046877,0.82585 14.000596,4.9863 3.146894,2.6426 4.970718,4.88289 6.43686,7.90583 1.124751,2.32033 2.797711,4.81065 3.718477,5.53451 1.898902,1.49377 2.25021,4.04642 0.556001,4.04642 -1.007884,0 -2.45207,-1.33086 -6.421987,-5.9184 -0.723155,-0.83507 -1.325902,-1.67792 -1.33936,-1.8727 -0.01416,-0.19478 -0.423552,-1.07163 -0.910849,-1.94777 -0.631079,-1.13679 -1.537679,-1.59505 -3.161768,-1.59859 -1.252241,-0.002 -3.233304,-0.63746 -4.401968,-1.41161 -1.168664,-0.77415 -2.666679,-1.40948 -3.328214,-1.4116 -0.662243,-0.003 -2.131927,-0.99797 -3.265885,-2.21126 -2.008686,-2.14963 -2.107137,-2.17584 -3.871466,-1.01992 -0.995843,0.65233 -1.977521,1.62125 -2.181506,2.15317 -0.436301,1.1368 0.79965,6.02889 1.52493,6.03598 0.274105,0.003 1.271365,1.14033 2.21692,2.52856 0.944847,1.38752 2.879164,3.11502 4.297143,3.83889 1.417979,0.72315 3.018695,1.84578 3.556988,2.49527 0.792567,0.95476 1.99877,1.13325 6.327077,0.93706 l 5.348232,-0.24294 -0.186986,7.51132 -0.186278,7.51132 3.090939,3.1129 c 1.699876,1.71191 2.963449,3.47837 2.808336,3.92459 -0.155822,0.44621 0.369014,1.88048 1.165831,3.18726 2.487484,4.08112 1.386106,9.44706 -2.729008,13.2909 -1.959106,1.8302 -2.058265,2.18646 -1.702,6.13797 0.328643,3.64906 0.182737,4.3708 -1.118376,5.54442 -1.999478,1.80258 -1.885445,2.96912 0.435593,4.47776 1.062422,0.69057 4.136363,3.57186 6.829956,6.40286 2.693596,2.831 5.728576,5.34469 6.744256,5.58692 1.01567,0.24153 2.24171,0.75078 2.72405,1.13042 1.17787,0.92714 0.33997,2.1468 -1.12617,1.63967 -0.94626,-0.32793 -0.9236,-0.21461 0.12112,0.59708 1.24586,0.96822 1.24586,1.02701 0,1.78983 -1.0086,0.61691 -0.51846,0.69482 2.25233,0.35768 1.94778,-0.23727 4.0457,-0.56875 4.66191,-0.73591 0.6162,-0.16786 1.60709,0.25782 2.20205,0.94485 1.90881,2.20559 1.9506,4.21428 0.1374,6.67201 l -1.70129,2.30546 1.68146,1.44843 c 0.92431,0.79611 2.38337,2.48324 3.2411,3.74964 0.85843,1.26641 2.04764,2.30192 2.64259,2.30192 0.59496,0 1.95203,0.61974 3.01516,1.3769 1.46118,1.04046 3.99683,1.55538 10.37986,2.10997 7.90513,0.68632 11.07964,0.49438 17.47613,-1.05534 2.21126,-0.53546 2.70422,-2.85508 0.70828,-3.33247 -1.15379,-0.27623 -1.14954,-0.33501 0.0645,-0.86056 0.80319,-0.34776 2.17938,-0.14661 3.58602,0.52413 3.0619,1.45977 4.67183,0.53192 4.67183,-2.69359 0,-1.34361 0.31872,-2.44357 0.70828,-2.44357 0.38955,0 0.70828,0.47171 0.70828,1.04896 0,1.736 3.27934,2.01577 7.79039,0.66437 3.19576,-0.9576 4.25039,-1.59647 4.25039,-2.57814 0,-1.787 -1.73458,-2.30192 -4.24898,-1.26075 -2.43578,1.00931 -5.66696,0.42497 -5.66696,-1.02488 0,-0.54892 -0.556,-1.55468 -1.23665,-2.23463 -1.17575,-1.17574 -1.11909,-1.21257 1.1637,-0.75644 1.31953,0.26419 2.80834,1.03692 3.30838,1.71687 0.84357,1.14884 1.06668,1.08651 3.10865,-0.8641 1.20974,-1.15591 2.10997,-2.5484 2.00019,-3.09448 -0.10908,-0.54609 -1.6333,-1.52139 -3.3863,-2.16805 -4.06482,-1.49943 -4.38922,-3.56974 -0.70828,-4.51529 2.75876,-0.70828 4.95797,-2.38195 4.95797,-3.77231 0,-1.13112 2.8395,-3.19718 3.68023,-2.67801 0.33856,0.20894 -0.0142,1.40027 -0.78407,2.64614 l -1.40027,2.26508 2.05614,3.52158 c 2.2233,3.80913 4.07687,4.75115 7.24926,3.68448 3.1384,-1.05534 2.36212,-2.73043 -2.75663,-5.94744 -1.26003,-0.79186 -1.24799,-0.87615 0.27765,-1.98815 0.87685,-0.63816 1.59363,-1.49235 1.59363,-1.8989 0,-0.40585 0.50642,-1.80612 1.12617,-3.11077 1.68287,-3.54707 6.27041,-4.91689 12.79085,-3.81976 5.82561,0.97955 8.0397,2.22258 8.0397,4.51175 0,1.39673 0.27552,1.61984 1.59363,1.29049 0.87685,-0.21886 2.22259,-0.82657 2.99107,-1.34999 2.22117,-1.5143 4.60171,-1.12475 6.67201,1.09147 1.81887,1.94635 2.00444,1.99381 3.90688,0.99655 1.69209,-0.88606 3.07253,-0.92148 9.0143,-0.2309 11.87575,1.38115 12.53941,1.77778 25.55266,15.28329 7.61969,7.90796 9.8522,9.78278 14.51977,12.19306 8.31947,4.29644 15.55952,5.88582 23.33858,5.12513 11.91683,-1.16583 21.62382,-4.1477 27.10026,-8.32443 1.94919,-1.48669 3.62852,-2.01436 7.62464,-2.39612 2.81896,-0.26915 6.33204,-1.11413 7.80739,-1.87694 1.47464,-0.76282 3.95646,-1.95203 5.51468,-2.6426 1.55821,-0.68987 3.31121,-1.4796 3.89554,-1.75512 1.31811,-0.61975 1.80258,-3.43942 0.76849,-4.47351 -1.2317,-1.2317 -0.90377,-3.88775 0.53617,-4.3453 1.97327,-0.62612 4.14132,-3.2843 4.94026,-6.05581 0.39239,-1.36344 1.34078,-4.07262 2.10714,-6.02039 2.30758,-5.86386 3.68873,-10.69363 3.68873,-12.89993 0,-4.6357 4.85172,-9.80332 17.04549,-18.15254 10.97128,-7.51274 14.06151,-10.00376 16.60849,-13.39006 1.39177,-1.84861 3.55203,-3.88988 4.80073,-4.53583 1.24941,-0.64595 3.47766,-2.14326 4.9523,-3.32821 2.51228,-2.0186 3.11432,-2.16805 9.5618,-2.37699 3.78435,-0.12254 7.87396,-0.54892 9.08796,-0.94768 1.21399,-0.39806 3.46845,-0.52272 5.01038,-0.27623 2.55548,0.40867 3.10015,0.19194 6.15851,-2.45491 3.44295,-2.98045 4.77452,-3.37354 7.67989,-2.26862 1.5908,0.60416 6.21304,-0.65162 6.21304,-1.68855 0,-0.22735 -0.71749,-0.0312 -1.59363,0.43631 -1.35494,0.72173 -1.46897,0.69765 -0.76282,-0.15937 0.53405,-0.64807 0.6417,-1.8904 0.30173,-3.48049 -1.32307,-6.18471 3.62428,-11.91542 10.88912,-12.61378 2.59939,-0.25003 3.8658,-0.77486 4.8326,-2.00444 1.21541,-1.54476 3.90405,-2.45632 3.01869,-1.02276 -1.04542,1.69067 2.71555,-0.40868 5.06138,-2.82604 1.45977,-1.50439 3.52299,-3.09448 4.58471,-3.53432 1.06171,-0.43985 2.42444,-1.55326 3.0279,-2.47474 0.60346,-0.92076 3.36717,-3.1561 6.14151,-4.96788 3.55274,-2.31821 4.76885,-3.4635 4.11086,-3.87005 -0.51421,-0.31802 -1.44064,-0.30669 -2.05897,0.0241 -0.61833,0.33077 -2.27996,0.44622 -3.69227,0.25569 -2.84446,-0.38318 -6.72938,1.62763 -9.58092,4.96009 -0.86552,1.01072 -2.30617,2.02144 -3.20214,2.24596 -2.85013,0.71537 -11.37783,0.0588 -11.69514,-0.90022 -0.22028,-0.6672 1.13466,-0.84073 5.52813,-0.70828 5.11804,0.15369 5.91557,0.009 6.61039,-1.19629 0.43418,-0.75361 1.97256,-2.56185 3.41887,-4.01737 4.38214,-4.4133 4.26952,-8.42288 -0.23656,-8.42288 -1.37761,0 -2.03844,-0.35981 -2.03844,-1.10917 0,-1.54405 1.31741,-3.8488 2.20063,-3.8488 1.56247,0 2.75734,-2.14964 2.75734,-4.9608 0,-2.1461 -0.76281,-4.24403 -2.83312,-7.78827 -1.55822,-2.66809 -2.83313,-5.77178 -2.83313,-6.89653 0,-1.35494 -0.7274,-2.74317 -2.15388,-4.10945 -1.18495,-1.13537 -3.10581,-3.54707 -4.26881,-5.35956 l -2.11493,-3.29634 1.82808,-4.8659 c 4.17319,-11.10939 4.68669,-13.0607 5.75549,-21.86464 0.6155,-5.06421 1.32024,-13.71162 1.56743,-19.21709 l 0.44905,-10.00943 2.79558,-4.05633 c 1.53697,-2.23037 4.03933,-5.05712 5.56001,-6.28103 1.52068,-1.22321 7.17064,-5.96161 12.55499,-10.52931 9.69425,-8.22386 9.79908,-8.34427 10.6823,-12.29081 0.71112,-3.17877 0.7182,-6.51335 0.0347,-16.48454 -0.47101,-6.87528 -1.15946,-13.77465 -1.52847,-15.33287 -0.36973,-1.55822 -0.67924,-5.07555 -0.68845,-7.81659 -0.012,-3.48121 -0.50996,-6.25554 -1.65101,-9.2027 -1.49164,-3.85093 -1.9676,-4.38568 -5.46014,-6.13018 -6.84199,-3.41887 -25.30972,-8.94488 -31.33153,-9.37552 -3.02011,-0.21602 -6.63659,-0.87118 -8.03757,-1.45622 -3.73973,-1.56247 -9.53772,-7.93842 -12.64991,-13.91065 -1.49872,-2.87633 -4.22419,-7.1416 -6.0558,-9.47893 -1.83162,-2.33732 -4.22136,-5.68395 -5.30928,-7.43695 -1.08863,-1.753 -4.61091,-6.39649 -7.82722,-10.31824 -7.57365,-9.235281 -9.97968,-13.100372 -11.00315,-17.673744 -0.6417,-2.866415 -0.64099,-4.278727 0.004,-6.106801 1.68429,-4.775941 3.08456,-32.578103 1.75016,-34.737653 -0.20257,-0.327934 0.0142,-2.30758 0.48234,-4.399135 1.38398,-6.184004 0.59637,-8.268476 -5.56001,-14.711711 -2.98682,-3.126353 -6.87245,-6.460233 -8.63466,-7.407914 -1.7622,-0.948388 -4.79789,-3.001696 -6.74567,-4.564164 -1.94777,-1.56176 -5.75407,-3.964251 -8.459,-5.339025 -2.70422,-1.374065 -5.7817,-3.1136041 -6.83775,-3.8657988 -2.81825,-2.0072692 -8.54329,-1.8266575 -13.0345,0.4100949 -4.57975,2.2813739 -9.9039,5.6173789 -11.83184,7.4128719 -1.68996,1.574509 -2.05543,1.709083 -7.7323,2.832417 -2.74247,0.543252 -4.84465,1.527763 -6.75559,3.163184 -3.98621,3.411791 -10.36074,6.50698 -16.88543,8.197648 -3.41604,0.885351 -7.07289,2.425863 -9.20765,3.879256 -4.00179,2.72405 -8.15586,4.609495 -10.15747,4.609495 -0.74228,0 -2.82958,-0.654452 -4.63853,-1.45481 -4.39489,-1.944232 -17.73395,-3.103688 -22.83995,-1.985312 -2.96203,0.648785 -4.59249,0.581499 -8.76356,-0.360515 -2.81825,-0.636745 -6.4404,-1.153791 -8.0482,-1.149541 -2.85296,0.0078 -3.20427,-0.280479 -14.60972,-11.977745 C 233.0183,15.572644 226.4844,9.493466 224.92618,8.6555692 223.29855,7.7794252 221.64117,6.1709184 221.03064,4.8740553 220.07233,2.8363301 219.55316,2.5572672 215.71853,2.0125989 213.3812,1.680415 210.3533,1.0103809 208.98985,0.52379164 c -2.01576,-0.71961379 -3.14051,-0.70403161 -6.02039,0.085702 M 374.4047,14.70075 c 2.25729,0.997968 6.42553,3.37496 9.26361,5.280945 2.83808,1.906694 6.37028,4.100949 7.84847,4.8751 1.47889,0.774152 5.33477,3.896256 8.56949,6.936907 5.628,5.290862 5.89786,5.686791 6.29379,9.230322 0.25144,2.249501 0.0354,5.028089 -0.55034,7.082813 -0.5305,1.859238 -0.85206,3.699353 -0.71536,4.088908 0.25711,0.733071 0.0751,17.313228 -0.27269,24.789841 -0.10907,2.337329 -0.60487,5.603922 -1.10208,7.259884 -0.83507,2.778587 -0.7522,3.403291 1.08296,8.145235 2.88837,7.460326 4.15265,9.716915 7.44262,13.280275 1.61842,1.75299 3.44366,4.13919 4.05562,5.30361 0.61266,1.16371 2.02072,2.96203 3.12847,3.99754 1.10776,1.0348 2.91529,3.78647 4.01667,6.1153 1.10138,2.32883 3.17522,5.26395 4.60949,6.52327 1.43356,1.25862 2.60648,2.6943 2.60648,3.19081 0,0.4965 0.50429,1.32094 1.1205,1.83232 0.6155,0.51138 2.08801,2.86075 3.27084,5.22145 1.33157,2.65818 3.98054,6.07776 6.95674,8.98242 4.07899,3.98054 5.29794,4.7639 8.05316,5.17754 4.04287,0.60629 5.65421,2.08447 5.13008,4.70582 -0.24931,1.24445 -0.017,2.25659 0.64241,2.80409 0.87615,0.72669 0.96751,0.53546 0.607,-1.26924 -0.40372,-2.01719 -0.28686,-2.14751 2.30191,-2.5654 8.90239,-1.43568 9.34719,-1.41656 12.15836,0.53192 1.47747,1.02347 3.46562,1.86278 4.41897,1.8642 0.95263,10e-4 2.797,0.65162 4.0974,1.44418 1.90457,1.16158 2.20417,1.63684 1.53697,2.44074 -1.44772,1.74521 -5.55646,2.66455 -9.62979,2.1553 -3.63844,-0.45401 -3.95575,-0.36406 -6.03526,1.71617 -2.03985,2.03914 -2.12131,2.30687 -1.15238,3.76947 1.39461,2.10359 3.35371,2.46694 3.35371,0.62187 0,-4.08749 2.39258,-4.84464 4.84182,-1.53201 0.86127,1.16512 2.83383,2.76584 4.38284,3.55557 1.54901,0.79044 2.81613,1.87411 2.81613,2.40886 0,1.08792 1.91165,2.04765 2.8827,1.44773 0.52696,-0.32581 3.10086,0.6332 4.14132,1.54264 0.1622,0.14236 -1.07092,1.51926 -2.74034,3.05977 l -3.03427,2.80196 1.36131,2.33096 c 1.44065,2.46694 3.76381,3.53999 3.76381,1.73883 0,-0.58079 -0.39806,-1.21612 -0.88535,-1.41302 -0.48659,-0.1962 -0.15795,-0.38248 0.73023,-0.41293 1.64251,-0.0567 1.83233,0.21177 2.58877,3.66252 0.31944,1.45835 0.84923,1.94777 2.10785,1.94777 1.88898,0 2.90253,1.67792 1.61417,2.67164 -1.51076,1.16442 -3.32255,1.56247 -3.32255,0.72953 0,-0.44197 -0.1629,-0.6417 -0.36122,-0.44267 -0.19903,0.19831 0.18274,1.83019 0.84852,3.62569 1.13821,3.07111 1.13892,3.34309 0.007,4.5932 -1.81886,2.0101 -1.47747,3.52583 1.63047,7.23793 1.57026,1.87553 2.83312,4.13778 2.83312,5.07554 0,2.18576 -1.702,4.58541 -4.14911,5.85111 -1.06667,0.55105 -3.33955,2.44782 -5.05146,4.21428 -1.71192,1.76645 -3.7631,3.30555 -4.55921,3.42029 -0.7954,0.11474 -2.08872,1.22391 -2.8735,2.46552 -0.78548,1.24162 -2.93086,3.08811 -4.76744,4.10308 -2.62135,1.44914 -3.49253,2.40107 -4.05207,4.42605 -0.40868,1.4796 -2.15601,4.0457 -4.09741,6.01685 -3.17168,3.21984 -3.38417,3.66889 -3.3785,7.12814 0.004,2.02993 0.27623,5.50051 0.60629,7.71177 l 0.59991,4.01949 -3.08527,1.57451 c -2.72405,1.38965 -4.89281,2.07385 -12.86027,4.05775 -1.09146,0.27198 -1.96194,0.8124 -1.93431,1.20195 0.0836,1.197 3.4132,1.68429 6.02747,0.88181 1.79124,-0.54963 2.96203,-0.54184 4.21144,0.0276 1.30395,0.59354 1.83162,0.57867 2.13901,-0.0609 0.22382,-0.46676 0.24648,0.22098 0.0496,1.52847 -0.94343,6.25696 -3.91396,7.9023 -10.95569,6.06856 -4.81915,-1.25508 -5.03943,-1.25295 -4.53867,0.0538 0.22452,0.58433 1.20195,1.06242 2.17301,1.06242 6.42482,0 10.02359,6.93974 4.10378,7.91221 -1.18991,0.19548 -1.39957,-0.13528 -1.31245,-2.06889 0.0715,-1.57168 -0.21602,-2.30192 -0.90731,-2.30192 -1.09429,0 -1.82949,1.39461 -1.95273,3.70431 -0.085,1.60214 -1.15591,2.36354 -4.24473,3.01941 -2.01789,0.42851 -2.03843,0.48305 -1.63896,4.35168 l 0.40443,3.91821 -4.028,1.8472 c -2.21479,1.01638 -4.72423,1.79195 -5.5763,1.72254 -1.54051,-0.12395 -1.5398,-0.11474 0.17708,1.73741 1.99593,2.15389 2.1468,2.95566 0.66365,3.52441 -1.6857,0.64737 -1.23736,1.55893 0.88536,1.80328 2.09934,0.24153 2.09509,0.21178 0.91297,5.81428 -0.99088,4.69662 -1.94069,5.7987 -3.65898,4.24403 -0.89385,-0.80886 -1.18071,-1.76079 -0.91156,-3.02791 l 0.39168,-1.84861 -1.46543,1.67225 c -0.80674,0.91935 -1.46614,2.12626 -1.46614,2.68085 0,0.55529 -1.41161,1.61488 -3.13769,2.35432 -3.96921,1.7013 -4.56842,2.87279 -4.47988,8.75153 0.0425,2.797 -0.27056,5.10741 -0.75857,5.59542 -0.45755,0.45755 -0.83152,2.00727 -0.83152,3.44437 0,1.5653 -0.56096,3.28359 -1.39886,4.2851 l -1.39885,1.67226 -2.46978,-2.83313 c -1.35919,-1.55822 -2.48253,-3.39125 -2.49669,-4.07262 -0.0383,-1.77778 -2.57815,-4.07261 -4.5075,-4.07261 -0.9059,0 -2.39541,0.79681 -3.31051,1.7707 -0.9151,0.97389 -2.06747,1.7707 -2.56044,1.7707 -0.49367,0 -1.11554,0.35273 -1.38185,0.78407 -0.33785,0.54608 0.19619,0.63462 1.75795,0.29181 1.56672,-0.34422 2.7793,-0.14095 4.02729,0.67712 2.74388,1.79762 1.96335,3.82543 -2.70705,7.03181 l -4.05208,2.78143 -2.87775,-1.29758 c -3.3105,-1.49234 -4.04712,-1.07517 -4.37363,2.4804 l -0.22736,2.47899 -3.36434,-0.23586 c -2.82392,-0.19761 -3.36433,-0.0354 -3.36433,1.00718 0,1.51572 1.9931,3.83251 3.29704,3.83251 0.52413,0 0.95264,0.31164 0.95264,0.69199 0,1.1205 -3.18372,2.88058 -6.05155,3.34592 -3.17664,0.51563 -4.57267,-0.86694 -4.57267,-4.52733 0,-2.50095 0.67075,-3.31264 5.48918,-6.6451 2.16097,-1.49447 3.0102,-2.57319 3.0102,-3.8233 0,-0.95831 0.91085,-2.78921 2.02356,-4.06837 1.40381,-1.61417 2.13688,-3.36221 2.39399,-5.70733 0.21957,-2.00373 1.12546,-4.47067 2.22613,-6.05793 1.02063,-1.47323 1.85569,-3.3353 1.85569,-4.13849 0,-0.80319 0.59213,-2.21975 1.3167,-3.14902 0.72386,-0.92926 1.8472,-2.72405 2.49598,-3.98904 0.68208,-1.33015 2.17655,-2.71555 3.54495,-3.28784 1.6163,-0.67499 2.52644,-1.62692 2.87137,-3.00169 0.97601,-3.88634 3.89626,-9.40031 5.40773,-10.20917 1.21329,-0.6495 1.74308,-0.60133 2.57602,0.23161 1.61063,1.60992 -0.0418,4.30068 -2.36778,3.85659 -1.2997,-0.24861 -1.7013,-0.0432 -1.59576,0.81452 0.17919,1.44985 -0.66083,4.99905 -1.58301,6.69043 -0.5985,1.09712 -0.46393,1.25861 0.88606,1.06242 1.11696,-0.1622 1.76929,-0.91864 2.18505,-2.53352 0.66366,-2.57319 2.17371,-2.97833 4.21569,-1.12971 1.66871,1.51005 1.64675,4.21427 -0.0602,7.398 -1.16654,2.17654 -1.25082,3.01515 -0.60841,6.01047 0.68137,3.1731 0.81169,3.33742 1.47393,1.86349 0.50147,-1.11484 0.4958,-1.84791 -0.0177,-2.36141 -2.13122,-2.13122 2.07597,-5.29794 4.78798,-3.60374 0.67853,0.42356 1.42718,0.57655 1.66375,0.33927 1.02772,-1.02701 0.25569,-2.46978 -2.04835,-3.82968 -3.15185,-1.85923 -3.38771,-3.75955 -0.3853,-3.10014 l 2.09297,0.45967 -3.14761,-3.41321 c -1.73104,-1.87765 -3.04631,-3.73264 -2.92307,-4.12219 0.12395,-0.38956 0.99655,-1.10209 1.93998,-1.58301 0.94343,-0.48163 1.36769,-0.87969 0.94343,-0.88535 -1.2487,-0.017 -2.35645,-3.12565 -1.59717,-4.48272 1.11696,-1.99593 4.01241,-1.42931 6.57214,1.28483 1.28624,1.36344 2.69926,2.47898 3.13981,2.47898 1.02772,0 1.04896,-2.59656 0.0269,-3.22835 -0.42638,-0.26348 -0.64382,-1.16583 -0.48375,-2.00443 0.31023,-1.62197 -0.3166,-1.74946 -9.22253,-1.86986 -5.22924,-0.0708 -4.83119,-3.23756 0.61195,-4.86873 2.19497,-0.65728 3.12494,-1.41373 3.84172,-3.12423 0.52059,-1.24162 1.7707,-3.03003 2.77859,-3.97416 2.49952,-2.34229 2.3012,-3.88705 -0.72741,-5.67405 l -2.56043,-1.51005 0.29181,-4.40339 c 0.21744,-3.28076 0.78194,-5.13716 2.21408,-7.28325 1.49731,-2.24313 1.82312,-3.3778 1.47252,-5.13079 -0.2479,-1.23737 -0.12607,-3.12848 0.26986,-4.20224 1.87482,-5.08121 2.44853,-9.80898 1.66021,-13.67549 -0.88819,-4.35806 0.26065,-9.66096 2.6688,-12.32126 0.87685,-0.96822 1.4534,-3.01728 1.72679,-6.13868 0.35485,-4.04287 0.21815,-4.8928 -0.99726,-6.19746 -0.77486,-0.83152 -2.12909,-1.51218 -3.00949,-1.51218 -1.17008,0 -1.82949,-0.63249 -2.45136,-2.3522 -1.14245,-3.15893 -1.15095,-3.13556 1.28058,-3.66961 2.56893,-0.5645 2.11847,-1.76928 -0.66225,-1.76928 -1.53413,0 -2.41524,-0.64454 -3.85376,-2.81825 -2.16096,-3.26518 -2.24808,-4.10095 -0.79327,-7.58357 1.19416,-2.85721 1.07092,-3.21064 -1.15521,-3.32821 -1.14104,-0.0602 -1.7962,-0.82232 -2.50306,-2.91458 -0.52626,-1.55822 -1.32803,-3.54778 -1.78062,-4.42039 -0.62612,-1.20691 -0.62542,-2.02214 10e-4,-3.39833 1.17292,-2.57389 1.02205,-3.86792 -0.45046,-3.86792 -1.86987,0 -2.97478,-1.41515 -2.97478,-3.80985 0,-1.50651 -0.70899,-2.75946 -2.47899,-4.38072 -1.37406,-1.25861 -2.47898,-2.95566 -2.47898,-3.80772 0,-2.30687 -2.53423,-7.35833 -4.20011,-8.37047 -0.80603,-0.49084 -1.46614,-1.53768 -1.46614,-2.32741 0,-1.01851 -0.89102,-1.81745 -3.06828,-2.75096 -2.52856,-1.08367 -3.81834,-2.43507 -7.33071,-7.67706 -2.34441,-3.49821 -4.96364,-7.81022 -5.82066,-9.58093 -1.06596,-2.20133 -2.20629,-3.44508 -3.60656,-3.93308 -1.13255,-0.39522 -2.82109,-1.93857 -3.77585,-3.45146 -1.67579,-2.65393 -6.38303,-7.28042 -7.41004,-7.28184 -0.27835,-7e-4 -1.4626,-0.82798 -2.63127,-1.83869 -1.16866,-1.01143 -3.39337,-2.4889 -4.9438,-3.2843 -3.11856,-1.5993 -6.13159,-3.84243 -13.33481,-9.92728 -2.65181,-2.23958 -5.157,-4.07261 -5.5678,-4.07261 -0.4108,0 -2.36424,-1.35424 -4.34035,-3.0102 -2.95778,-2.477566 -4.47917,-3.179473 -8.59782,-3.967082 -2.75239,-0.525544 -5.80083,-0.959012 -6.77471,-0.962554 -2.63977,-0.0092 -8.5185,-1.228868 -11.33251,-2.350785 -1.36344,-0.54396 -3.91325,-1.345027 -5.66625,-1.78062 -1.75299,-0.435593 -4.24118,-1.403813 -5.52955,-2.151758 -4.01454,-2.329537 -6.51123,-1.578759 -6.51123,1.959106 0,0.592123 1.83303,3.229763 4.07262,5.861028 2.24029,2.631265 4.41684,5.373025 4.83827,6.093345 0.57654,0.98593 1.47393,1.26711 3.63348,1.13962 2.97903,-0.17565 4.16753,0.88394 3.03853,2.7106 -0.4703,0.76069 -1.01355,0.72669 -2.94503,-0.18699 -3.1639,-1.4966 -6.85121,-2.36212 -5.9092,-1.38682 1.26145,1.30537 6.31717,3.90476 8.49513,4.36727 1.33724,0.28473 2.21338,0.96326 2.37274,1.8394 0.13883,0.76353 0.89669,2.08802 1.6843,2.94291 0.9838,1.06738 1.29828,2.08943 1.00292,3.26447 -0.29677,1.18425 -0.012,2.08801 0.92573,2.93724 0.74582,0.67429 1.88402,2.33946 2.52998,3.70077 0.64595,1.36132 2.20063,3.08103 3.45499,3.82118 2.40533,1.41869 4.71291,4.94593 6.44182,9.84582 0.57158,1.62055 1.69775,3.87076 2.50236,5.00046 3.46845,4.87086 4.3021,12.9056 1.82311,17.56538 -2.15884,4.05845 -2.69855,6.30441 -1.88261,7.82934 1.16442,2.17513 1.6078,11.2978 0.68562,14.09267 -0.67003,2.02994 -1.07092,2.36212 -2.51582,2.08589 -1.84578,-0.35343 -3.08456,1.09288 -3.08456,3.60091 0,0.75715 -0.43914,1.74095 -0.97601,2.18646 -0.77132,0.64029 -1.06597,0.47313 -1.40665,-0.79894 -0.23727,-0.88465 -0.43559,-2.32175 -0.44055,-3.19293 -0.007,-1.07517 -0.92856,-2.16451 -2.865,-3.38771 -1.96123,-1.23808 -2.98753,-2.46057 -3.2758,-3.90405 -0.23161,-1.15662 -0.68066,-2.10218 -0.99868,-2.10218 -1.23595,0 -1.36981,1.46189 -0.35626,3.88776 0.77415,1.85286 0.87119,3.02648 0.36122,4.36797 -0.55954,1.47039 -0.44834,2.02427 0.55742,2.78779 0.69057,0.52342 1.45056,0.96256 1.68996,0.9746 0.2394,0.0128 1.31669,1.29474 2.39399,2.84941 1.83587,2.64968 1.92865,3.13557 1.47606,7.73231 -0.3591,3.64269 -0.18203,5.94106 0.68845,8.93497 0.80531,2.77009 1.02771,5.17824 0.71253,7.70256 -0.39381,3.15397 -0.1962,4.14344 1.40098,7.00065 1.02347,1.83091 2.15317,3.50953 2.51156,3.73123 0.35839,0.22098 0.65162,1.47464 0.65162,2.78425 0,2.08306 0.30386,2.48253 2.41666,3.18018 2.32316,0.76636 3.61507,2.25234 2.7283,3.1384 -0.71607,0.71607 -2.42303,0.46817 -1.95769,-0.28473 0.24081,-0.38956 -0.0404,-0.70828 -0.62471,-0.70828 -1.95556,0 -2.02639,1.51359 -0.16077,3.46066 1.36556,1.42506 1.8479,2.67234 1.8479,4.77594 0,2.5569 -0.48871,3.35017 -4.79436,7.78614 -3.8318,3.94796 -5.06562,5.78453 -6.14646,9.15453 -1.32165,4.11724 -3.81622,7.40367 -5.6195,7.40367 -0.49509,0 -1.62763,0.77415 -2.51653,1.72112 -1.55043,1.6503 -1.56955,1.81462 -0.47738,4.00391 1.41302,2.83384 1.42931,4.18099 0.08,6.76622 -0.58221,1.11554 -1.23666,3.14406 -1.4541,4.5075 -1.2742,7.98374 -3.8743,12.3588 -4.4473,7.4837 -0.13953,-1.19062 0.051,-1.79408 0.48234,-1.52706 0.39238,0.24224 0.91368,0.11687 1.15874,-0.27906 0.24436,-0.39593 0.1367,-0.71961 -0.23939,-0.71961 -1.18779,0 -10.73188,-9.54551 -10.73188,-10.7333 0,-2.17796 -1.80966,-2.93582 -4.75328,-1.99027 -5.33548,1.71333 -7.00207,4.68174 -4.29785,7.65511 1.92582,2.11705 3.73902,8.5022 3.04065,10.70354 -0.51775,1.63117 -3.33104,1.9924 -4.38426,0.56238 -0.35839,-0.48659 -1.22108,-3.11644 -1.9159,-5.84332 -1.41798,-5.56284 -2.71626,-7.43696 -5.15204,-7.43696 -1.83232,0 -2.05897,0.76566 -0.87968,2.96912 0.56804,1.06242 0.56875,1.92511 0.002,3.16956 -0.94272,2.06889 0.38885,4.53229 3.12211,5.77745 0.96822,0.44126 1.76078,1.23807 1.76078,1.7707 0,1.40736 -2.36849,3.32892 -3.353,2.7198 -1.41373,-0.87331 -3.69865,-6.81154 -3.26305,-8.47813 0.22523,-0.85843 -0.0135,-2.0703 -0.5298,-2.69217 -2.01506,-2.42799 -12.34463,0.92218 -13.69462,4.44163 -0.61762,1.6078 0.28261,4.3276 1.60355,4.84818 0.97106,0.38177 0.85348,0.60629 -0.67499,1.29049 -1.0178,0.45543 -2.93016,2.07739 -4.24969,3.60515 -2.23321,2.58452 -2.3869,3.08103 -2.22754,7.17773 0.12112,3.11998 -0.12395,4.64561 -0.84144,5.24128 -0.82231,0.68207 -1.22037,0.43772 -2.11918,-1.2997 -0.60841,-1.17645 -1.10633,-2.84091 -1.10633,-3.69793 0,-3.50741 -2.38549,-13.06567 -3.45571,-13.84903 -0.96751,-0.70686 -1.26499,-0.39664 -2.03135,2.11918 -1.13112,3.7121 -1.36698,8.97817 -0.61054,13.64362 0.50572,3.11786 0.41577,3.67811 -0.65516,4.08962 -1.70979,0.65587 -1.90031,0.32368 -2.55477,-4.46217 -0.31589,-2.30971 -1.23878,-6.11955 -2.05118,-8.46609 -1.12192,-3.2418 -1.29686,-4.60383 -0.72811,-5.66696 0.93564,-1.74804 0.33006,-3.44154 -1.42931,-3.99966 -2.70068,-0.85702 -3.58037,1.37052 -1.95203,4.94309 0.56167,1.23383 0.60204,2.30758 0.12679,3.39763 -0.73378,1.68287 -0.21603,9.4258 1.17291,17.52996 0.43418,2.5321 0.91722,6.0381 1.07375,7.79109 0.2309,2.57602 0.0397,2.2063 -0.99655,-1.92581 -0.70474,-2.81259 -1.65808,-5.5678 -2.11847,-6.12239 -0.46038,-0.55458 -1.07375,-2.39399 -1.36273,-4.0882 -0.61762,-3.61861 -2.13901,-4.2936 -3.67598,-1.63188 -0.6757,1.17079 -2.6086,2.46341 -5.31211,3.55133 -6.48148,2.6093 -7.12744,2.43648 -8.49796,-2.27713 -1.65525,-5.696 -2.79204,-7.07644 -7.78826,-9.46051 -3.26872,-1.56035 -4.66262,-2.67447 -5.31423,-4.24615 -0.71324,-1.72325 -0.70545,-2.34583 0.0432,-3.24747 0.76707,-0.9243 0.75149,-1.22603 -0.0907,-1.75937 -1.37123,-0.86764 -2.6001,-0.82444 -5.39994,0.1877 -2.10572,0.7614 -2.75875,0.65091 -6.08697,-1.0348 -3.37779,-1.70979 -4.21923,-1.84649 -8.95196,-1.44915 l -5.22358,0.43772 0.46464,-1.85074 c 0.25568,-1.01851 0.78902,-2.70422 1.18495,-3.74681 0.67499,-1.77424 0.80248,-1.82169 1.99806,-0.73944 3.05694,2.76655 2.42374,-0.14095 -0.77273,-3.5492 -1.81958,-1.93998 -1.97965,-2.42799 -1.24587,-3.79922 1.09288,-2.04268 0.37681,-6.82146 -1.43285,-9.56746 -0.82161,-1.24587 -1.39603,-3.32609 -1.39815,-5.06563 -0.004,-2.40532 0.35485,-3.21276 1.9414,-4.36868 2.38124,-1.73458 1.62975,-2.8912 -0.83082,-1.27916 -1.75512,1.14954 -1.76291,1.14459 -2.18221,-1.49801 -0.23232,-1.45835 -1.04259,-4.01525 -1.80258,-5.68113 -0.75927,-1.66587 -1.38044,-3.69793 -1.38044,-4.51529 0,-0.81735 -0.81948,-3.31192 -1.82099,-5.54372 -1.5483,-3.45074 -2.20842,-4.17673 -4.40905,-4.85172 -1.42294,-0.43701 -2.83737,-0.54467 -3.14335,-0.23869 -0.30598,0.30597 -0.6155,4.55637 -0.68774,9.44564 l -0.13245,8.89034 2.97195,3.73264 c 1.63471,2.0526 2.97195,4.34885 2.97195,5.10246 0,0.75432 0.33005,1.98744 0.73307,2.74105 0.63391,1.18354 0.49367,1.36982 -1.02984,1.36982 -0.97035,0 -2.5824,-0.81878 -3.5832,-1.81958 -1.98248,-1.98177 -3.68873,-2.04197 -4.86802,-0.16998 -0.57654,0.91651 -0.44905,1.53555 0.54113,2.62984 0.71253,0.78761 1.11696,1.89749 0.8981,2.46766 -0.32722,0.85348 -0.87118,0.89739 -3.0959,0.25144 -3.28005,-0.95264 -4.46925,-1.78912 -4.46925,-3.14265 0,-0.5645 -0.47809,-1.50439 -1.06242,-2.08872 -1.3939,-1.3939 -1.37336,-6.63943 0.0404,-10.01439 0.73732,-1.76149 0.96326,-3.68873 0.68207,-5.82065 -0.39663,-3.00737 -1.17433,-13.27107 -1.18141,-15.58219 -0.006,-2.33521 1.51643,-4.95797 2.87846,-4.95797 0.76565,0 1.58938,0.31872 1.83019,0.70828 0.85065,1.37619 3.15965,0.69199 4.18241,-1.23949 0.56733,-1.07092 2.18433,-2.85013 3.59311,-3.95292 2.46127,-1.92582 2.55335,-2.15884 2.35149,-5.94461 l -0.21107,-3.94087 -2.98682,-0.87898 c -3.75531,-1.10492 -4.94593,-0.33431 -5.55647,3.59594 -0.33572,2.16168 -0.16715,3.09874 0.6842,3.8056 3.05695,2.53636 0.32156,3.59736 -5.49555,2.13263 -2.42303,-0.60983 -3.35938,-1.34431 -4.83969,-3.79426 -1.0093,-1.67083 -2.0533,-4.03154 -2.31962,-5.24624 -0.30385,-1.38185 -1.55609,-3.05623 -3.34946,-4.47634 -2.84587,-2.25375 -2.86146,-2.2927 -2.36424,-5.86173 0.75644,-5.42544 0.62258,-6.10255 -1.67651,-8.47954 l -2.12342,-2.19568 0.72528,-7.79109 c 0.62045,-6.66351 0.94839,-7.96533 2.26508,-8.99376 3.88351,-3.03498 4.05562,-3.34521 3.95717,-7.13735 -0.11828,-4.54858 0.6417,-6.5006 3.82047,-9.82244 1.35777,-1.4194 2.67943,-3.53787 2.93653,-4.70795 0.25711,-1.16937 1.04826,-2.65322 1.75937,-3.29634 1.15946,-1.04967 1.40311,-1.05817 2.37558,-0.0857 0.59566,0.59566 1.22745,1.48739 1.40381,1.98106 0.49367,1.38327 1.01426,0.47101 1.53626,-2.69218 0.3761,-2.27924 0.18841,-3.23613 -0.90022,-4.58045 -1.20833,-1.49235 -1.5221,-1.57805 -2.5739,-0.70545 -1.02913,0.85419 -1.28765,0.85136 -1.84082,-0.0227 -0.9491,-1.50014 -0.85419,-1.81037 1.3344,-4.35664 1.66659,-1.93928 2.01152,-3.00878 2.07102,-6.42199 0.0885,-5.05429 2.52573,-9.6135 6.57001,-12.2901 1.52423,-1.00859 2.96204,-2.43294 3.19435,-3.1653 0.59071,-1.86208 8.43493,-7.74789 11.93242,-8.95268 1.59859,-0.55104 3.22834,-1.25295 3.62073,-1.56034 0.39239,-0.3074 2.38337,-1.10351 4.42322,-1.76929 2.04056,-0.66508 4.30352,-1.96477 5.0288,-2.88695 3.24747,-4.12858 11.54427,-8.839355 15.56944,-8.839355 0.87685,0 2.38336,0.517045 3.34804,1.148832 1.65596,1.085083 1.89111,1.056043 4.2589,-0.531211 1.37831,-0.924307 3.5839,-3.163893 4.9013,-4.977093 1.71475,-2.360701 3.06261,-3.441539 4.7462,-3.804179 2.93936,-0.633203 6.24704,-2.291998 6.24704,-3.132728 0,-0.349891 -0.82515,-1.616298 -1.83374,-2.81471 -2.15743,-2.563978 -4.56558,-2.819667 -7.18056,-0.762819 -1.74237,1.370525 -3.79426,1.828783 -4.59674,1.027008 -0.21391,-0.214609 -0.14166,-1.489515 0.16148,-2.833125 0.30315,-1.344318 0.28757,-2.44357 -0.0347,-2.44357 -0.32298,0 -1.7615,1.434269 -3.1986,3.187266 -1.4364,1.752996 -3.04986,3.187265 -3.58532,3.187265 -0.53617,0 -2.95141,0.6842 -5.36665,1.519972 l -4.39205,1.519972 -0.99372,-1.496599 c -0.83577,-1.258616 -1.46543,-1.432145 -3.95929,-1.090045 -2.78496,0.381764 -3.12636,0.228775 -5.59542,-2.504482 -4.22419,-4.675365 -3.46279,-8.31239 2.06676,-9.876983 3.2758,-0.926432 4.86873,-2.408153 4.26952,-3.970621 -0.61833,-1.610632 -6.15638,-5.349649 -7.92354,-5.349649 -2.11422,0 -3.47908,1.693501 -2.61285,3.241095 0.45259,0.808858 0.82444,0.934223 1.16016,0.390972 0.61125,-0.988761 3.70998,-1.054631 4.30565,-0.09066 0.24789,0.400887 -0.33856,0.708281 -1.34999,0.708281 -0.9838,0 -2.87704,0.95618 -4.2079,2.124844 -2.86145,2.51227 -5.52955,2.724046 -7.64731,0.606285 l -1.51856,-1.518552 0.36477,1.907398 c 0.23444,1.22816 -0.0892,2.462694 -0.90802,3.466329 -1.17645,1.441352 -1.30961,1.464017 -1.76504,0.293229 -0.31164,-0.800358 -0.005,-1.804701 0.83294,-2.730425 0.9321,-1.030549 1.3252,-2.542018 1.3252,-5.099622 0,-3.343087 0.16999,-3.714227 2.12484,-4.635701 1.16867,-0.551042 2.35645,-1.390356 2.63906,-1.864904 1.08154,-1.8132 4.55425,-2.655347 7.26413,-1.760788 1.4024,0.463216 3.03215,0.656577 3.62215,0.430635 0.58929,-0.22665 3.17735,-0.747945 5.75054,-1.158748 4.07545,-0.651618 5.03659,-1.116251 7.4497,-3.603027 2.61427,-2.693593 2.93653,-2.82675 5.7137,-2.35716 2.65464,0.448342 2.85013,0.385305 1.99382,-0.645952 -1.25295,-1.510056 -0.50713,-3.285717 1.38044,-3.285717 0.82869,0 2.44428,-0.667909 3.59027,-1.483849 1.60285,-1.141042 1.97611,-1.835157 1.6163,-3.010196 -1.01567,-3.31759 -1.90173,-3.554155 -3.27721,-0.874019 -0.71537,1.394606 -1.58514,2.534939 -1.93361,2.534939 -0.34848,0 -1.11625,0.184861 -1.70625,0.411511 -0.71749,0.275521 -1.46119,-0.341392 -2.2495,-1.864905 -1.08651,-2.10147 -1.09005,-2.585935 -0.0475,-6.301578 0.62046,-2.213379 1.129,-5.193119 1.129,-6.621014 0,-2.123427 0.28969,-2.654638 1.59363,-2.920243 0.87686,-0.178487 2.54982,-0.526253 3.71848,-0.772735 1.16867,-0.245774 3.24039,-0.626121 4.60383,-0.84498 2.52998,-0.405845 8.49938,-4.023038 8.49938,-5.149913 0,-0.342808 -0.83436,-1.279156 -1.85358,-2.081639 -2.68084,-2.108553 -0.52271,-2.704218 3.10015,-0.855604 3.5839,1.828074 4.98205,4.80923 3.7036,7.89592 -0.76777,1.853572 -0.71678,2.330954 0.37823,3.541407 1.00859,1.114126 2.18504,1.398147 5.79515,1.398147 5.17683,0 8.08433,1.209036 9.78278,4.069076 0.77132,1.298279 2.50307,2.453486 5.17754,3.452871 3.49324,1.305363 5.31282,1.480308 13.93402,1.337944 5.45376,-0.08995 11.50957,-0.393805 13.45734,-0.676409 2.45066,-0.354849 4.52309,-0.18982 6.72867,0.536169 9.82882,3.23472 15.8988,3.335296 19.90696,0.330059 1.32236,-0.991594 3.20072,-2.03985 4.17461,-2.330246 0.97389,-0.290395 3.5237,-1.427186 5.66625,-2.526439 2.14255,-1.099252 6.21233,-2.47686 9.04333,-3.060483 3.16886,-0.653744 6.70955,-2.009394 9.20766,-3.525825 2.23321,-1.35565 7.01978,-3.44083 10.63697,-4.634284 7.25068,-2.392574 10.40748,-3.83251 12.54649,-5.722913 1.46898,-1.29828 10.72763,-5.606046 12.13003,-5.643585 0.43843,-0.01133 2.64331,0.7954 4.89989,1.793368 M 244.04978,39.189576 c -0.77911,0.419302 -2.05402,1.464017 -2.83313,2.321037 -0.91864,1.010718 -3.00665,1.872696 -5.94177,2.451362 -2.4889,0.490839 -5.25615,1.371941 -6.15001,1.957689 -1.17008,0.767069 -2.51156,0.932099 -4.79223,0.589999 l -3.16672,-0.475257 2.23392,-2.013644 c 1.85286,-1.670127 2.10076,-2.233211 1.44914,-3.294216 -0.43205,-0.704032 -1.54759,-1.279864 -2.47898,-1.279864 -1.48456,0 -1.72042,0.369014 -1.91095,2.997446 -0.19902,2.754506 0.0503,3.257386 3.07536,6.197461 1.81108,1.760079 3.57399,3.200015 3.9175,3.200015 0.34352,0 1.09997,-0.917224 1.67934,-2.039142 1.09075,-2.107845 2.38832,-2.918827 4.67324,-2.918827 2.33591,0 4.95443,1.609924 5.38081,3.308382 0.45968,1.830907 1.00222,2.041267 2.19213,0.851354 0.54325,-0.543252 0.58363,-1.362733 0.12608,-2.565395 -0.89881,-2.364951 0.20257,-3.583195 3.48545,-3.856591 2.55548,-0.212485 2.60222,-0.271272 2.60222,-3.226221 0,-3.212764 -0.77415,-3.695104 -3.5414,-2.205588 m -56.47056,9.440681 c 1.45268,0.960429 3.75672,2.121302 5.12016,2.57956 4.12928,1.386815 6.39366,4.198692 4.07262,5.057837 -0.48659,0.179903 -3.5492,0.126782 -6.80446,-0.118283 -5.32202,-0.400887 -6.0898,-0.644536 -7.61402,-2.415947 -2.11564,-2.459861 -2.15459,-4.322641 -0.12041,-5.746995 2.04977,-1.435686 2.23534,-1.413729 5.34611,0.643828 m -21.66562,2.369909 2.60719,1.234534 -2.41312,1.653837 c -1.32732,0.909433 -2.80833,2.74459 -3.28996,4.077576 -0.9491,2.623473 -2.8905,3.544239 -5.88653,2.792044 -1.47818,-0.371139 -1.7707,-0.864811 -1.7707,-2.993196 0,-2.016477 0.57441,-3.122813 2.74954,-5.298653 3.05765,-3.056942 4.20153,-3.267301 8.00358,-1.466142 m -6.21446,20.711558 c 1.35495,1.189204 3.61932,2.350077 5.03234,2.57956 1.60638,0.260648 2.97903,1.042591 3.66323,2.086597 1.25862,1.920859 2.81471,2.085889 6.22438,0.661535 2.12626,-0.888185 2.52219,-0.878269 3.32042,0.08358 0.76282,0.919349 0.59425,1.341485 -1.05959,2.660305 -1.75441,1.398855 -1.84578,1.667294 -0.84639,2.496691 1.01567,0.842855 1.00292,1.057464 -0.13599,2.316788 -0.69058,0.762819 -2.11493,1.831616 -3.1646,2.374159 -1.5476,0.800358 -1.9499,1.557511 -2.12627,4.000373 -0.19336,2.67022 -0.41646,3.013028 -1.96193,3.013028 -1.20408,0 -2.08023,-0.638161 -2.83313,-2.063223 -1.44206,-2.731841 -5.02809,-6.035265 -6.57852,-6.061471 -0.9668,-0.01629 -1.23949,0.571583 -1.23949,2.670928 0,3.077483 -0.99372,4.391344 -3.32113,4.391344 -4.68174,0 -17.10712,-7.476617 -17.18078,-10.337365 -0.0439,-1.705541 2.36495,-4.159028 4.09812,-4.173193 0.66012,-0.005 1.17787,-0.575833 1.18141,-1.301821 0.003,-0.710406 0.51988,-1.580176 1.14954,-1.9329 1.22533,-0.685616 9.81961,-0.596373 9.82174,0.101284 7.1e-4,0.230192 0.79823,0.781235 1.77212,1.224619 1.36627,0.622579 1.76574,0.607705 1.74804,-0.06304 -0.0276,-1.065964 -1.76787,-3.447914 -2.20134,-3.013737 -0.17282,0.172112 -0.30102,-0.629662 -0.28615,-1.782036 0.0368,-2.774334 1.71333,-2.751669 4.92397,0.068 m 162.00589,32.860011 c 2.16592,0.5645 5.46793,1.8394 7.33709,2.83311 1.86986,0.99443 3.78576,1.80755 4.25748,1.80755 0.47242,0 2.09792,0.84497 3.61294,1.87765 1.51572,1.03267 4.34885,2.73184 6.29662,3.77655 12.82556,6.87882 14.30799,8.01137 23.07934,17.63549 7.13736,7.83076 9.31674,10.59306 14.59839,18.49889 2.21196,3.31122 4.74124,6.81721 5.62021,7.7911 0.87969,0.97388 2.60294,3.68306 3.83039,6.02039 1.22816,2.33732 3.18443,5.45872 4.34814,6.9369 1.1637,1.47819 2.38903,3.54991 2.72263,4.60383 0.33431,1.05392 2.09085,5.74133 3.90263,10.41599 1.81178,4.67465 3.53078,9.61491 3.81905,10.97836 0.28827,1.36344 1.19771,4.86943 2.02073,7.79109 3.2503,11.53649 4.3793,18.34236 5.09325,30.70187 0.40089,6.95249 0.54113,12.94596 0.31023,13.31994 -0.2309,0.37326 -1.01355,4.88431 -1.73883,10.0243 -1.43781,10.18296 -1.804,11.80705 -5.3624,23.76355 -1.3167,4.42392 -2.40108,8.56737 -2.40957,9.20765 -0.008,0.64029 -0.63887,1.96053 -1.40098,2.93441 -0.76212,0.97389 -1.39249,2.07527 -1.40099,2.44782 -0.008,0.37256 -1.72466,4.03792 -3.81409,8.14524 -2.08872,4.10732 -4.21073,8.74302 -4.71574,10.30124 -0.95547,2.94999 -3.82401,8.54896 -8.70902,16.99876 -1.57593,2.72689 -5.6188,7.8265 -8.98384,11.33249 -3.36505,3.506 -6.57427,7.01979 -7.13098,7.80811 -2.13193,3.01585 -17.05116,15.50072 -24.79339,20.74768 -9.90319,6.71238 -14.95677,9.58305 -20.69314,11.75535 -2.41878,0.9158 -7.09556,2.81895 -10.39191,4.22773 -3.29704,1.40877 -6.32495,2.56397 -6.72867,2.5661 -0.40443,0.003 -1.62125,0.46676 -2.70422,1.03126 -6.00339,3.13131 -25.77223,6.04447 -34.29852,5.05429 -2.40178,-0.27907 -4.7469,-0.0722 -6.72867,0.59354 -3.18726,1.07092 -15.73588,1.17362 -17.4046,0.14237 -0.48021,-0.29677 -6.31361,-0.99797 -12.96296,-1.55893 -10.53498,-0.88819 -12.47708,-1.24658 -15.1041,-2.78567 -1.65808,-0.97176 -4.48696,-1.96902 -6.2867,-2.2155 -1.84295,-0.25286 -3.97559,-1.10422 -4.88431,-1.95061 -0.88677,-0.82657 -1.7792,-1.52989 -1.98319,-1.56318 -0.39664,-0.0659 -1.74591,-0.55883 -5.68254,-2.0781 -1.36344,-0.52625 -3.75389,-1.33369 -5.31211,-1.79478 -7.37675,-2.1808 -20.86809,-9.07875 -20.98283,-10.72763 -0.20328,-2.92237 -0.31802,-3.04419 -2.68793,-2.85154 -3.08669,0.25002 -4.68811,-1.19629 -7.27405,-6.5686 -3.77939,-7.85342 -7.88742,-12.58616 -11.11931,-12.80927 -1.15449,-0.08 -2.44498,-0.3591 -2.86783,-0.62045 -0.91155,-0.56379 -5.03092,-7.00349 -6.23075,-9.74029 -0.46321,-1.05746 -2.20134,-2.78071 -3.86367,-3.82967 -4.22986,-2.67022 -4.66191,-3.22977 -4.32689,-5.60747 0.30314,-2.15388 -0.20257,-3.08385 -6.91354,-12.72285 -1.62692,-2.33733 -3.3615,-5.36523 -3.85446,-6.72867 -0.49297,-1.36345 -2.36779,-4.85456 -4.16611,-7.75852 -1.79833,-2.90395 -3.26943,-5.56426 -3.26943,-5.91202 0,-0.34706 -1.19912,-1.99381 -2.66385,-3.65827 -2.60505,-2.9592 -5.80153,-11.37004 -5.85819,-15.41433 -0.012,-0.88464 -0.49013,-2.22755 -1.06242,-2.98328 -0.61479,-0.81382 -1.04967,-2.98257 -1.06455,-5.31211 -0.0142,-2.16593 -0.48092,-4.73415 -1.03763,-5.70804 -0.56167,-0.98239 -1.02347,-3.68873 -1.03763,-6.07918 -0.0135,-2.36991 -0.37327,-6.04235 -0.798236,-8.16152 -0.614788,-3.05836 -0.541835,-5.2002 0.354136,-10.38837 0.61975,-3.59452 1.12759,-8.78268 1.12759,-11.52869 0,-3.00807 0.41434,-5.79374 1.04117,-7.00703 1.01568,-1.96406 2.05827,-7.72097 3.08528,-17.03912 0.27906,-2.53211 1.08367,-5.46297 1.7877,-6.51265 1.01284,-1.51005 1.18708,-2.69288 0.83435,-5.66625 -0.41647,-3.50528 -0.27835,-3.98974 2.05543,-7.22801 1.84933,-2.56468 2.39045,-3.91608 2.07314,-5.17895 -0.23515,-0.93918 0.0645,-2.88341 0.6665,-4.32052 0.60204,-1.43639 1.50793,-4.62011 2.01222,-7.07431 0.74016,-3.59736 1.57451,-5.23986 4.30494,-8.46892 1.86349,-2.20346 3.38842,-4.33893 3.38983,-4.74548 7.1e-4,-0.40656 1.05817,-2.49174 2.34866,-4.63429 1.2912,-2.14255 2.72334,-4.97497 3.18231,-6.29449 0.45968,-1.31882 1.38044,-2.79701 2.04693,-3.2843 0.66579,-0.4873 2.34087,-3.2326 3.72131,-6.10043 2.35716,-4.89706 2.80834,-5.38648 7.40438,-8.0227 2.89899,-1.66305 5.42543,-3.70786 6.19604,-5.01393 0.71607,-1.21328 2.81613,-3.28571 4.66757,-4.60453 5.74204,-4.09245 7.40721,-5.94957 7.53045,-8.40093 0.12608,-2.4981 0.97247,-3.26588 4.75965,-4.31555 1.98531,-0.55034 3.04419,-0.46039 4.7809,0.40584 3.17947,1.58584 2.81754,2.96628 -1.03055,3.93521 -7.28963,1.83516 -17.29198,15.32225 -21.20452,28.59261 -0.74653,2.53281 -1.97398,4.87297 -3.03853,5.79303 -1.34999,1.16654 -2.18505,3.20427 -3.42383,8.35347 -0.90165,3.7461 -2.75734,9.23174 -4.12432,12.19094 -1.3677,2.9592 -2.48607,5.97789 -2.48607,6.70813 0,0.73024 -0.92006,2.99603 -2.0441,5.03517 -1.27562,2.31467 -2.21692,5.3022 -2.50519,7.95117 -0.25357,2.33378 -1.25154,5.96939 -2.21692,8.07865 -1.89466,4.13849 -1.86066,6.28175 0.18911,11.91542 0.59779,1.64392 0.90589,3.68306 0.68349,4.53158 -0.22523,0.86127 0.17494,2.66739 0.90589,4.09387 0.72032,1.40311 1.86916,4.30423 2.55335,6.44678 0.6842,2.14255 2.29059,5.072 3.56974,6.5091 4.48555,5.04013 6.3802,11.01165 5.67546,17.88765 -0.36193,3.53503 -0.19832,5.09466 0.74511,7.07148 1.07234,2.25021 1.10209,2.95424 0.26277,6.23075 -0.52129,2.03206 -1.53555,4.65978 -2.25516,5.83978 -0.71962,1.17999 -1.30961,2.96274 -1.31103,3.96212 -0.004,2.35504 7.26626,16.67507 9.86494,19.4317 1.10138,1.16866 2.35787,2.81612 2.79063,3.66181 0.43347,0.84498 1.88686,1.89961 3.22905,2.34229 1.87199,0.61833 2.49315,1.25082 2.66172,2.71272 0.1877,1.62338 0.53617,1.89323 2.34512,1.8139 1.16867,-0.0517 2.80126,-0.31731 3.62853,-0.58999 1.31315,-0.43418 1.56743,-0.15228 2.00373,2.21833 0.75927,4.1222 2.83383,8.35843 6.37028,13.00901 1.75866,2.31252 3.6434,5.24552 4.18807,6.5176 1.41797,3.31334 5.25828,7.28609 8.95338,9.2629 3.65615,1.95628 5.66342,5.19808 5.66483,9.14816 0.001,2.6079 4.04783,13.68612 7.45537,20.41125 0.96468,1.90316 1.75371,4.38497 1.75371,5.51468 0,1.55964 1.06879,3.16035 4.4388,6.64864 4.99125,5.16691 7.24642,6.54452 11.85167,7.24076 1.75299,0.2649 4.86093,1.13679 6.90574,1.93644 3.61223,1.41373 3.71848,1.53484 3.71848,4.25252 0,3.90405 0.85489,5.12371 4.75256,6.78179 7.86972,3.34805 15.06444,3.49183 25.34939,0.50713 1.94777,-0.56521 5.45377,-1.5058 7.79109,-2.08943 2.33733,-0.58362 6.48078,-1.70341 9.20766,-2.48819 5.06775,-1.45906 9.23457,-2.40603 14.04026,-3.1901 1.89324,-0.30881 3.943,-1.54759 6.81367,-4.11865 2.25871,-2.02215 7.86334,-6.06714 12.45512,-8.9888 8.05387,-5.12442 15.19335,-11.18589 17.51863,-14.87391 0.61408,-0.97389 1.34007,-3.68306 1.61347,-6.02039 0.27339,-2.33733 0.93635,-5.32415 1.47393,-6.63801 0.53688,-1.31386 0.98097,-3.38559 0.98593,-4.60383 0.005,-1.21824 0.68137,-4.28723 1.50297,-6.81933 1.18708,-3.65686 1.51289,-6.54665 1.58443,-14.04805 0.0885,-9.22395 0.0503,-9.47681 -1.64959,-10.85583 -1.668,-1.35423 -1.77849,-1.3599 -2.67305,-0.13599 -0.51351,0.70191 -1.60001,3.5152 -2.41524,6.25058 -1.72821,5.80507 -6.13514,10.99819 -9.33161,10.99819 -1.70483,0 -1.84153,-0.24931 -2.04127,-3.71847 l -0.2139,-3.71848 -5.20516,-0.51917 c -2.86287,-0.28544 -6.47581,-0.23303 -8.02907,0.11545 -2.80409,0.63037 -2.8218,0.62045 -2.39824,-1.25153 0.40443,-1.78983 0.37184,-1.81675 -0.63816,-0.52342 -1.38682,1.77495 -2.06039,5.49413 -1.51856,8.38109 1.34786,7.17914 1.35423,7.57294 0.13741,8.0397 -0.74724,0.28685 -1.85145,-0.16503 -2.96983,-1.21541 -2.2927,-2.15388 -7.20322,-12.48204 -7.79038,-16.38538 -0.26348,-1.74945 -1.19841,-3.81622 -2.22613,-4.92114 -2.08306,-2.23958 -1.70696,-4.11511 0.82656,-4.11511 2.1808,0 2.46057,0.45684 3.25031,5.30644 1.74733,10.73896 5.31281,10.26725 5.31281,-0.70261 v -4.24969 l 6.7053,-0.2224 c 7.69194,-0.25498 8.52275,0.24081 8.52275,5.08262 0,3.24889 1.58584,5.40986 3.96992,5.40986 0.89456,0 1.91661,0.51917 2.27146,1.15308 0.44126,0.78902 0.80177,0.90093 1.13962,0.35414 0.84073,-1.3599 1.82666,-0.88252 1.82666,0.88535 0,0.92572 0.46392,2.06818 1.02984,2.53848 1.651,1.37053 0.1714,-2.93016 -2.24525,-6.52681 -2.40957,-3.58603 -4.10095,-7.48937 -3.50387,-8.08716 0.23657,-0.23585 0.74015,0.38602 1.11909,1.38257 0.87189,2.2927 2.81612,3.43304 4.4055,2.58239 1.89962,-1.01709 3.41817,-6.19958 3.61578,-12.34322 l 0.18274,-5.66625 -3.89555,0.18911 c -2.14255,0.10412 -4.61233,0.0184 -5.48918,-0.19052 -4.16611,-0.99301 0.6155,-8.36268 7.36117,-11.34596 2.50023,-1.10563 4.05916,-2.33804 4.82127,-3.81268 1.14671,-2.21763 5.63367,-5.02596 8.02908,-5.02596 1.79832,0 4.14627,2.7028 4.72423,5.44031 0.60062,2.84233 1.90032,3.93237 4.34106,3.64127 1.51218,-0.1799 2.34441,-1.04967 3.94725,-4.12361 1.85711,-3.56266 1.99381,-4.32194 1.59788,-8.88681 -0.32085,-3.70289 -0.14945,-5.66837 0.66437,-7.61686 1.80045,-4.30776 2.25375,-10.69363 0.89739,-12.63007 -1.57805,-2.25304 -1.44206,-3.49749 0.624,-5.72574 2.01577,-2.17372 2.2325,-3.92317 0.73094,-5.90849 -0.57229,-0.75573 -1.05038,-2.40957 -1.06242,-3.67385 -0.0127,-1.26428 -0.71961,-4.29219 -1.57167,-6.72867 -0.85207,-2.43649 -1.60143,-6.34196 -1.66588,-8.67928 -0.15157,-5.55647 -1.49235,-14.12951 -2.52219,-16.12686 -0.44834,-0.86906 -2.04977,-3.20356 -3.55911,-5.18674 -1.50935,-1.9839 -2.74459,-3.91397 -2.74459,-4.28936 0,-0.37538 -0.79682,-1.7622 -1.77071,-3.08244 -1.58584,-2.14963 -1.7707,-3.07889 -1.7707,-8.90238 0,-3.98692 0.41363,-7.67352 1.0688,-9.53205 1.28269,-3.63561 1.3946,-8.87264 0.55529,-26.10017 l -0.63391,-13.01679 -2.20559,-1.85712 c -1.21258,-1.02205 -3.46066,-2.69784 -4.99409,-3.72414 -2.19497,-1.46897 -2.96345,-2.55973 -3.60799,-5.11804 -0.52625,-2.09155 -1.95415,-4.53017 -3.99966,-6.8335 -1.94211,-2.18646 -3.1816,-4.26314 -3.1816,-5.32911 0,-2.07738 0.88889,-2.17584 6.47298,-0.72173 m -204.99219,13.06779 c 1.64251,1.9074 3.52937,4.85526 4.19232,6.55089 0.66295,1.69562 1.62976,3.7121 2.14822,4.48059 1.43073,2.11988 1.13183,2.78496 -0.7097,1.57805 -0.90873,-0.59496 -3.13981,-1.30536 -4.95797,-1.57805 -3.68731,-0.55317 -4.35593,-1.99806 -1.93644,-4.18736 1.72325,-1.55964 1.14175,-3.23047 -1.12475,-3.23047 -3.16035,0 -6.81863,-5.60392 -4.31698,-6.61393 2.36708,-0.95477 3.88351,-0.27623 6.7053,3.00028 m -7.86688,9.11345 c 0.43276,0.28615 1.32591,1.57309 1.98532,2.85862 0.6587,1.28624 1.65454,2.51369 2.21267,2.7283 2.21196,0.84853 6.17267,5.13292 5.75407,6.22367 -0.60204,1.56884 -2.00443,1.38611 -7.11114,-0.92926 -4.17815,-1.89466 -4.60879,-1.96053 -6.26971,-0.95264 -1.8302,1.11058 -4.08607,0.79681 -4.08607,-0.56875 0,-0.42143 1.14741,-1.24587 2.55052,-1.83233 2.40957,-1.00646 2.52431,-1.20266 2.08235,-3.5584 -0.6155,-3.28076 0.85772,-5.30857 2.88199,-3.96921 m 0.89881,15.86125 c 4.35452,1.05817 5.75195,2.3777 5.75195,5.4304 0,2.50306 -1.617,5.08121 -3.18726,5.08121 -0.46393,0 -1.42011,0.63745 -2.12485,1.41656 -1.56034,1.72395 -3.00807,1.79832 -4.72777,0.24223 -0.71324,-0.64595 -2.49174,-1.36698 -3.9508,-1.60213 -2.291286,-0.36902 -2.686507,-0.71253 -2.891909,-2.51157 -0.131032,-1.146 -0.688449,-2.72688 -1.239492,-3.51307 -1.406647,-2.00869 -1.250116,-2.66527 0.574416,-2.40391 0.866937,0.12466 1.915193,0.91014 2.329535,1.7445 1.48527,2.99107 2.61993,3.79426 5.36382,3.79426 2.00372,0 2.92307,-0.37681 3.48545,-1.42719 0.75573,-1.41231 -0.11828,-2.38903 -1.84791,-2.06535 -1.96548,0.3676 -3.22976,-0.2571 -3.85659,-1.90598 -0.81877,-2.15318 0.31873,-4.12291 2.00798,-3.47412 0.57229,0.21886 2.51298,0.75644 4.31343,1.19416 m -29.003409,7.85555 c -0.08783,4.06129 -0.876852,5.12158 -3.918212,5.26749 -1.518555,0.073 -3.955751,0.34706 -5.416935,0.60912 -3.000988,0.53759 -3.328922,-0.10624 -1.211869,-2.37841 1.065963,-1.14458 2.265792,-1.55043 4.581871,-1.55043 2.4974,0 3.054109,-0.21673 2.729716,-1.06242 -0.632495,-1.64817 0.258523,-3.18726 1.84649,-3.18726 1.160873,0 1.428603,0.44409 1.388939,2.30191 m 14.923487,4.15195 c 1.752996,0.80602 5.099622,1.88898 7.436952,2.40744 3.52087,0.78053 3.82472,0.95264 1.7707,1.00293 -1.98035,0.0482 -2.72192,0.4873 -3.68518,2.1808 -0.73732,1.29544 -1.783455,2.12059 -2.689347,2.12059 -0.8981,0 -1.954856,0.82302 -2.680844,2.08802 -1.458352,2.5406 -3.565488,3.57823 -7.268383,3.57823 -2.476151,0 -2.799836,-0.19478 -2.799836,-1.685 0,-1.79833 1.290489,-2.54131 6.905743,-3.97558 1.655961,-0.42285 3.010195,-1.00859 3.010195,-1.30182 0,-0.29394 -1.420104,-1.92794 -3.15681,-3.63136 -4.494753,-4.41189 -3.086689,-5.6535 3.15681,-2.78425 m 363.461622,29.13019 c -1.59575,1.59576 -0.86056,3.32255 2.04623,4.80569 1.57734,0.8046 3.05907,2.00656 3.29422,2.67022 0.73377,2.07809 9.2976,9.3656 10.97198,9.33727 0.5815,-0.01 0.39947,-0.47172 -0.48942,-1.23949 -3.421,-2.95566 -5.29795,-5.68963 -5.71229,-8.32302 -0.72032,-4.57762 -3.47483,-6.49494 -6.02181,-4.1909 -1.31315,1.1885 -1.37831,1.15238 -1.81107,-1.01284 -0.52626,-2.62985 -1.14175,-3.18302 -2.27784,-2.04693 m -398.669577,3.8828 c 0.308103,0.17423 0.356266,0.95688 0.108368,1.73953 -0.315894,0.99443 0.128907,2.02994 1.476058,3.43588 1.478183,1.54334 1.821699,2.43507 1.471808,3.82897 -0.978844,3.9005 -6.80375,1.17149 -6.80375,-3.18798 0,-1.19416 -0.31731,-2.76442 -0.705448,-3.4897 -1.134667,-2.12059 -0.161488,-3.6094 2.018602,-3.08952 1.030549,0.24648 2.12626,0.58929 2.434362,0.76282 m 228.922887,3.04986 c -3.06686,0.45754 -16.86913,7.53115 -20.8943,10.7085 -1.36344,1.07588 -3.63631,2.4379 -5.05004,3.02507 -5.16691,2.14751 -7.67777,7.313 -5.24341,10.78854 0.57158,0.81594 1.3854,3.03782 1.80895,4.93814 1.7622,7.91079 3.64694,12.95942 4.99834,13.38864 0.74299,0.23586 2.99603,1.72962 5.00826,3.31971 3.27651,2.59019 3.7461,2.76938 4.50963,1.72467 1.09217,-1.49306 1.96973,-1.47394 3.37,0.0729 1.22957,1.35848 1.22249,1.33299 1.22249,4.51813 0,1.76503 0.80673,2.99107 3.95929,6.02039 2.17726,2.09226 4.08183,3.80418 4.23199,3.80418 0.27622,0 2.17229,-4.12645 3.81409,-8.29894 1.33936,-3.40541 2.59798,-4.20648 4.25394,-2.70775 1.53555,1.39035 2.86429,0.93139 2.86429,-0.98947 0,-2.21055 1.93077,-3.26164 4.3283,-2.35646 l 2.09014,0.78903 -0.45542,-2.4287 c -0.42426,-2.26154 -0.28827,-2.49881 1.97044,-3.44224 3.44224,-1.43852 8.16506,-6.7988 8.75364,-9.93507 0.26632,-1.42081 0.27057,-4.23835 0.01,-6.2612 -0.26136,-2.02356 -0.63958,-5.75054 -0.84144,-8.28264 -0.52979,-6.66705 -5.21366,-16.05745 -8.74869,-17.5413 -2.64047,-1.10846 -11.18589,-1.56601 -15.96041,-0.85418 m 14.81229,6.02534 c 0.98805,0.64737 2.64968,2.92166 3.69298,5.05359 1.65454,3.38134 1.97043,5.15558 2.47261,13.8894 0.61974,10.76233 0.35414,11.86654 -3.11786,12.96863 -0.7869,0.25002 -2.89616,1.31032 -4.6874,2.35645 -5.17966,3.02436 -10.88912,3.72768 -21.40851,2.63551 -12.8376,-1.33298 -15.37325,-3.20639 -17.06746,-12.60882 -1.67721,-9.30894 -0.81452,-11.61794 6.24492,-16.71898 6.06147,-4.38001 8.49866,-5.53593 15.94058,-7.56161 7.57577,-2.06181 14.79599,-2.06747 17.93014,-0.0142 m 151.5474,4.90344 c -0.73873,1.9251 0.11687,3.57186 2.42162,4.66049 2.0441,0.96538 3.67881,2.79275 5.679,6.34761 4.10519,7.29743 4.29076,8.96684 1.18141,10.6306 -1.80753,0.96751 -2.34937,2.11847 -0.99655,2.11847 0.41859,0 1.45481,-0.84357 2.30191,-1.87412 0.84711,-1.03054 2.41595,-2.80833 3.48758,-3.95008 2.33237,-2.48607 2.41665,-3.1391 0.48234,-3.75318 -1.93432,-0.61408 -4.19232,-4.4041 -4.20932,-7.06723 -0.0156,-2.54911 -0.52413,-3.404 -2.70634,-4.55425 -1.36698,-0.72032 -1.86632,-0.67712 -2.8905,0.24931 -1.43922,1.30253 -2.18575,0.82303 -2.18575,-1.40381 0,-1.82241 -1.98744,-2.90962 -2.5654,-1.40381 M 58.371085,202.8301 c 1.228868,0.84782 2.345119,1.62338 2.481818,1.72325 0.732363,0.53829 -1.68571,5.4481 -3.158227,6.41349 -1.581592,1.03551 -1.981062,1.02913 -4.894932,-0.0843 -3.374252,-1.28836 -3.91892,-2.56185 -2.381949,-5.5678 0.962554,-1.8819 3.466328,-3.98833 4.766024,-4.01029 0.524128,-0.008 1.958398,0.67783 3.187266,1.52564 m 11.084602,0.93423 c 0.483048,0.5822 0.70474,1.72254 0.492256,2.53493 -0.307394,1.17433 -0.143073,1.37336 0.801774,0.9746 3.02507,-1.27561 4.394177,-1.13679 6.535312,0.66508 2.543438,2.13971 4.603828,2.31608 8.021285,0.68632 3.051984,-1.45481 4.37647,-0.96397 5.875902,2.18009 0.688449,1.44419 2.151758,2.93724 3.510242,3.58178 1.280572,0.6077 2.474735,1.34078 2.652513,1.62905 0.405137,0.65516 -1.383273,7.75709 -2.480401,9.84865 -0.44905,0.85631 -2.018601,2.03772 -3.488993,2.6263 -1.470392,0.58788 -2.879872,1.40382 -3.13202,1.8125 -0.728822,1.17928 1.66871,1.70837 3.650482,0.80531 2.962032,-1.34998 3.814094,-0.0248 3.30059,5.13433 -0.562375,5.6535 -1.212577,6.83421 -3.76239,6.83421 -3.010904,0 -3.26801,1.2232 -0.500755,2.37912 2.113512,0.88322 2.461986,1.4031 2.861457,4.27093 0.250731,1.7962 0.647369,4.62437 0.882518,6.28458 0.33785,2.38549 0.132449,3.38275 -0.978136,4.75399 l -1.40523,1.73599 2.043391,3.92176 c 1.810367,3.47695 1.958398,4.22348 1.301821,6.56789 -0.536877,1.91661 -0.516337,3.06686 0.07508,4.17248 0.506421,0.94627 0.640995,2.85013 0.354849,5.00968 -0.43276,3.26163 -0.320143,3.61719 1.758662,5.5593 2.06464,1.92865 2.203464,2.35716 1.977522,6.10892 -0.237983,3.95788 -0.202569,4.04571 1.881902,4.62012 3.41037,0.9406 4.56983,2.26721 5.68254,6.50273 0.57512,2.19072 1.51289,5.75975 2.08376,7.93134 0.57017,2.17159 1.68571,4.99834 2.47899,6.28104 0.79256,1.28269 1.44135,3.10014 1.44135,4.03862 0,0.93847 1.19558,3.35442 2.65606,5.36948 4.24118,5.84969 5.65704,8.07865 7.87679,12.40271 1.14671,2.23463 3.08527,4.90485 4.30706,5.93256 1.22179,1.02772 2.85083,3.10298 3.62003,4.61091 0.76919,1.50864 2.58806,3.5407 4.04145,4.51671 1.45339,0.97531 3.85376,2.58381 5.33477,3.5747 1.48031,0.99018 3.93805,3.77797 5.46085,6.19534 4.37435,6.94257 4.89139,7.54248 6.92628,8.03545 1.05534,0.25569 3.93947,1.67367 6.40783,3.15043 2.46836,1.47748 5.48138,2.90396 6.69609,3.17098 1.33865,0.29394 3.83109,2.10784 6.33062,4.60737 2.26791,2.26791 3.95716,3.85517 3.7553,3.52795 -0.6672,-1.07872 1.34361,-1.27562 4.584,-0.44905 1.85357,0.47313 5.20728,2.36141 8.00995,4.50962 2.65181,2.03206 5.11308,3.69511 5.46935,3.69511 0.35627,0 1.14246,0.95618 1.74662,2.12484 1.0348,2.0016 1.02064,2.12485 -0.24931,2.12485 -0.74157,0 -1.76858,-0.50713 -2.28279,-1.12617 -0.84994,-1.02418 -1.01851,-1.01214 -1.85712,0.13528 -1.28057,1.75158 -1.16512,2.23604 0.67075,2.81258 0.87685,0.27482 2.29553,1.25225 3.15326,2.1723 0.85773,0.92006 1.95769,1.67226 2.44357,1.67226 0.68774,0 0.69483,-0.18912 0.034,-0.84994 -1.34432,-1.34432 -1.00151,-3.05482 1.01709,-5.07413 2.39541,-2.3947 3.62782,-2.35008 7.23439,0.26206 2.33733,1.69351 2.93937,2.57107 2.93937,4.28581 0,1.7955 -0.41577,2.33025 -2.47899,3.19223 -2.59231,1.08367 -3.17593,2.21054 -1.48031,2.86145 1.19204,0.45755 5.07201,-1.4286 5.87166,-2.85437 0.31164,-0.55529 1.83161,-1.86844 3.37779,-2.91741 2.76655,-1.87624 2.86358,-1.88899 6.02039,-0.8039 1.76504,0.607 5.7477,1.77779 8.85068,2.60294 5.80933,1.54405 7.73373,2.5321 7.05803,3.62498 -0.62896,1.01709 0.4023,0.72386 2.41948,-0.68774 1.41444,-0.99018 3.80985,-1.43781 9.67088,-1.80824 4.2851,-0.27057 9.70345,-0.76353 12.04078,-1.09501 11.6831,-1.65879 12.39492,-1.69279 12.39492,-0.59566 0,0.85702 0.6155,0.94768 3.36434,0.49509 1.85074,-0.30456 4.97638,-0.573 6.94753,-0.59567 1.99169,-0.0241 4.19373,-0.50429 4.95797,-1.08225 0.75573,-0.57229 2.33095,-1.05534 3.49962,-1.07446 5.20586,-0.085 19.47773,-5.34328 19.47773,-7.1756 0,-0.84711 3.91326,-2.75097 5.65492,-2.75097 0.81098,0 2.97832,-0.75786 4.8156,-1.68358 1.83729,-0.92572 4.45651,-1.92086 5.81995,-2.21196 1.36344,-0.29111 4.07262,-1.34007 6.02039,-2.33237 2.18292,-1.1113 5.29936,-1.96123 8.1247,-2.21409 l 4.58328,-0.41151 0.75432,-2.69643 c 0.43489,-1.55468 1.64393,-3.37284 2.85367,-4.29218 7.67069,-5.82916 13.78599,-6.76763 13.78599,-2.11493 0,1.32873 -0.47172,1.7962 -2.15035,2.13192 -1.18212,0.23657 -2.49385,1.07376 -2.91528,1.86066 -0.72811,1.36061 -0.61125,1.40948 2.39824,0.99655 2.90608,-0.39805 3.33175,-0.25002 5.21791,1.8132 1.129,1.23595 1.41585,1.79337 0.63674,1.23879 -0.84427,-0.60063 -0.62966,-0.1452 0.53121,1.12829 1.07163,1.17504 1.94778,2.62772 1.94778,3.22764 0,0.59991 0.63745,1.668 1.41656,2.37274 0.77911,0.70474 1.42152,1.79053 1.42719,2.4117 0.006,0.65303 0.2309,0.83081 0.53121,0.42142 0.28614,-0.38955 1.44206,-0.77415 2.56752,-0.85489 1.12616,-0.0815 2.82533,-0.87756 3.77584,-1.77071 1.42365,-1.33794 1.6503,-2.05968 1.28837,-4.10307 -0.67854,-3.82472 -0.69341,-5.03021 -0.10837,-8.94347 0.53121,-3.55203 0.49155,-3.66819 -1.8132,-5.31211 -1.9669,-1.4031 -3.22268,-1.68217 -7.59986,-1.68712 -4.57479,-0.006 -5.31282,-0.18699 -5.79303,-1.41657 -0.82515,-2.11351 -0.75078,-2.72688 0.23515,-1.93502 0.4873,0.39097 2.83879,0.8464 5.2257,1.01143 2.69784,0.18627 5.11025,0.81806 6.37453,1.67012 1.11909,0.75361 2.99036,1.69209 4.15903,2.08589 2.44003,0.82161 3.13273,3.44721 1.77495,6.72584 -0.58575,1.41444 -0.60629,2.73113 -0.0737,4.71007 0.68987,2.56115 0.98876,2.80621 4.42676,3.62215 3.33813,0.79328 3.91254,0.74228 6.07988,-0.53617 1.31599,-0.77627 3.08032,-1.4116 3.92034,-1.4116 1.33724,0 1.39886,0.12678 0.49084,1.01638 -0.57017,0.55884 -2.31183,1.47889 -3.87005,2.0441 -1.55822,0.56592 -4.42676,1.68075 -6.37453,2.47828 -1.94777,0.79752 -4.62579,1.84861 -5.95098,2.33591 -1.32519,0.4873 -3.8148,2.10218 -5.53238,3.58815 -1.71759,1.48668 -3.18302,2.69218 -3.25668,2.67872 -0.0737,-0.0135 -2.68014,-0.62754 -5.79233,-1.36556 -3.11218,-0.73732 -5.78736,-1.21187 -5.9446,-1.05534 -0.15724,0.15724 0.0914,0.73944 0.55175,1.29473 0.66933,0.80674 0.2649,1.82383 -2.02427,5.09184 -1.57309,2.24667 -2.86075,4.63782 -2.86075,5.31423 0,1.93078 4.12574,4.21357 6.19463,3.42738 2.71626,-1.03339 1.74521,1.43497 -1.21541,3.08881 -1.90528,1.06384 -2.73963,1.197 -3.70927,0.59142 -0.68774,-0.42993 -2.04339,-0.78124 -3.01303,-0.78124 -1.25578,0 -2.08943,-0.63391 -2.90253,-2.20629 -1.33795,-2.58665 -2.88908,-1.81533 -2.1638,1.07588 0.32864,1.30748 1.52705,2.31395 4.33964,3.64481 2.23746,1.05817 3.88634,2.30191 3.88634,2.93158 0,0.79894 -0.42922,0.96893 -1.59364,0.63108 -3.70077,-1.07447 -9.05608,-1.28058 -11.11647,-0.4271 -4.21427,1.74592 -8.8521,-1.07163 -8.08362,-4.91193 0.36973,-1.85145 0.16928,-2.22188 -1.55963,-2.87916 -1.09075,-0.41435 -3.40329,-0.94839 -5.13858,-1.18637 -2.47686,-0.33998 -3.08598,-0.22595 -2.83454,0.52979 0.17636,0.52909 1.41443,1.24303 2.75167,1.58584 2.71484,0.69695 4.90981,2.3777 4.90981,3.75885 0,0.50146 -1.753,2.28067 -3.89555,3.95363 -2.14255,1.67367 -3.89555,3.28571 -3.89555,3.58319 0,0.92856 2.4457,0.59142 4.09741,-0.56591 1.43143,-1.00293 1.61913,-1.00293 2.00373,-7.1e-4 0.26418,0.68703 -0.36052,1.84365 -1.64888,3.05411 -1.14034,1.07163 -2.40178,2.5406 -2.80267,3.26447 -0.42285,0.76281 -2.32458,1.72962 -4.52734,2.30049 -2.08943,0.54184 -4.28864,1.50864 -4.88714,2.14893 -0.59849,0.63958 -0.68986,0.93989 -0.20327,0.6672 1.02417,-0.57371 1.14104,0.21248 0.24223,1.63117 -0.85844,1.35494 -4.06058,0.46393 -5.0628,-1.40948 -1.13679,-2.12413 -0.25498,-4.66616 1.99169,-5.73779 1.29545,-0.61762 2.01789,-1.5745 2.16734,-2.86924 0.20045,-1.73742 -7.1e-4,-1.94282 -1.90598,-1.94282 -1.1715,0 -2.29696,0.27056 -2.50165,0.60204 -0.2047,0.33077 -3.10723,0.8124 -6.45032,1.0688 -6.30795,0.48517 -8.8436,-0.10695 -8.8436,-2.06535 0,-0.57867 -0.80248,-1.41798 -1.78345,-1.86491 -1.52847,-0.69694 -1.98886,-0.59283 -3.21489,0.72316 -1.83233,1.9669 -5.35886,2.07597 -5.95948,0.18486 -0.46463,-1.46402 -2.23604,-2.43649 -3.27155,-1.7962 -0.35485,0.21886 -0.64454,1.13679 -0.64454,2.04056 0,0.90306 -0.48446,2.0441 -1.07588,2.53494 -0.75715,0.62824 -0.94697,1.58301 -0.63957,3.22055 0.38955,2.0781 0.20256,2.44782 -1.75513,3.45996 -1.20549,0.62399 -3.38841,1.10421 -4.8496,1.06738 -3.42525,-0.0857 -8.68423,1.09571 -7.26201,1.63117 0.58434,0.21956 2.65606,0.76494 4.60383,1.21187 2.94999,0.67641 4.26881,1.56813 7.89876,5.33973 2.39611,2.48961 5.39852,5.97719 6.6713,7.75001 2.18504,3.04207 2.82037,3.50175 4.5762,3.31122 0.40231,-0.0439 0.79115,0.6417 0.86411,1.52351 0.10695,1.28695 -0.573,1.92723 -3.44579,3.24464 -3.64269,1.67154 -5.58338,1.65029 -7.95684,-0.0857 -1.23382,-0.90235 -1.14458,-1.13538 1.57451,-4.10308 4.0875,-4.46146 3.86864,-6.49352 -0.26631,-2.47544 -1.753,1.70412 -3.18727,3.54424 -3.18727,4.09032 0,1.72609 -2.73609,6.73576 -3.92883,7.19402 -0.62966,0.24152 -2.08589,0.43913 -3.23543,0.43913 -1.14954,0 -3.7121,0.82161 -5.69387,1.82595 -2.18009,1.10492 -4.22278,1.67084 -5.17117,1.43285 -0.86268,-0.21673 -3.51095,-2.58027 -5.88581,-5.2519 -10.31754,-11.60944 -10.53356,-11.76597 -17.1652,-12.44026 -7.33779,-0.74582 -15.47949,-1.86632 -19.12359,-2.63197 -2.14256,-0.44976 -5.53027,-1.02984 -7.52904,-1.28907 -3.85021,-0.49934 -8.76143,-3.53078 -8.76143,-5.40914 0,-1.35211 -1.85924,-1.32449 -2.38125,0.0361 -0.31376,0.81735 -1.67791,1.06384 -5.9191,1.07021 -7.40863,0.01 -16.66232,2.80055 -14.2832,4.30706 0.63887,0.40443 -0.25853,0.62541 -2.57319,0.63249 -2.61143,0.008 -4.24473,0.48022 -6.15992,1.78133 -3.00453,2.04198 -3.38913,2.13122 -3.38913,0.79115 0,-0.539 0.71678,-1.18141 1.59364,-1.42789 1.46472,-0.41222 1.49234,-0.50855 0.33997,-1.1885 -0.68987,-0.40726 -1.91803,-0.52908 -2.73042,-0.27127 -1.24445,0.39451 -1.39673,0.81877 -0.96822,2.69926 0.9668,4.24685 0.79256,4.97568 -1.42223,5.94885 -5.97648,2.62773 -5.61384,2.06677 -6.2343,9.63759 -0.77769,9.49026 -1.17574,10.37136 -4.68457,10.37136 -1.54476,0 -2.98399,0.2826 -3.19718,0.62825 -0.21319,0.34493 -1.50651,0.83718 -2.87279,1.09358 -1.78274,0.33501 -2.79134,1.05817 -3.56761,2.55973 -1.06667,2.0618 -1.16937,2.09296 -6.92699,2.09296 -6.45103,0 -8.25573,-0.75997 -9.61917,-4.05066 -0.49155,-1.18637 -2.21975,-2.76938 -4.30493,-3.94087 -3.49041,-1.96193 -3.75602,-2.35078 -4.65412,-6.79737 -0.30669,-1.51856 -1.81533,-3.7546 -4.12574,-6.11602 -2.00302,-2.04692 -4.91193,-5.11308 -6.46377,-6.81367 -1.55185,-1.70058 -3.78081,-3.41037 -4.95372,-3.79993 -1.56601,-0.51987 -2.66597,-1.74378 -4.13707,-4.60382 l -2.004439,-3.89555 1.114835,-6.41561 c 0.613374,-3.52795 1.115544,-7.21739 1.115544,-8.19836 0,-0.98663 0.79115,-2.52715 1.7707,-3.4472 1.38682,-1.30253 1.77141,-2.36637 1.77495,-4.90414 0.003,-1.78275 0.48093,-4.15407 1.06243,-5.26961 0.5822,-1.11625 1.05958,-2.70988 1.061,-3.54141 0.001,-0.83222 0.65091,-2.57673 1.44419,-3.87783 0.81523,-1.33725 1.25932,-2.93867 1.02275,-3.68519 -0.2309,-0.7267 0.0482,-2.89475 0.61904,-4.81844 l 1.03905,-3.4975 -2.52786,-3.79496 c -1.39035,-2.08803 -4.86872,-6.18613 -7.72947,-9.1078 -2.861453,-2.92165 -5.678288,-6.00056 -6.260495,-6.84199 -3.260927,-4.7129 -13.051499,-9.1602 -25.369928,-11.52445 -4.518126,-0.86694 -7.864047,-1.9499 -9.561797,-3.09378 -1.436395,-0.96751 -3.795679,-1.96548 -5.24199,-2.21762 -1.44631,-0.25214 -4.367262,-1.25366 -6.491398,-2.22613 -2.124135,-0.97247 -5.880859,-2.20559 -8.348511,-2.74034 -8.23802,-1.78629 -13.681162,-3.26589 -15.111182,-4.10945 -0.779109,-0.45968 -3.010195,-1.00718 -4.957969,-1.21683 -3.479077,-0.37468 -3.559113,-0.43701 -4.537958,-3.56832 -0.54821,-1.75299 -2.135468,-5.53593 -3.527241,-8.40658 -1.956981,-4.0358 -2.5342303,-6.10893 -2.5448545,-9.14038 -0.015582,-4.33751 1.2805726,-5.75479 2.4499445,-2.67872 0.888894,2.33804 2.552646,2.99604 4.113698,1.62622 0.667201,-0.58574 1.850739,-1.27065 2.629849,-1.52139 0.779109,-0.25144 2.616391,-2.36071 4.083241,-4.68741 2.81471,-4.46571 4.567706,-5.27528 6.885911,-3.17735 1.49164,1.34999 5.034463,2.00798 6.297329,1.16938 0.800358,-0.53193 0.626829,-1.36345 -0.963971,-4.61445 -1.224618,-2.50236 -1.786285,-4.55779 -1.522805,-5.56851 0.64312,-2.46623 3.460663,-5.5508 5.185328,-5.67829 0.872602,-0.0645 1.705541,-0.71111 1.907401,-1.48172 0.305978,-1.17079 0.797525,-1.30891 3.401875,-0.95972 2.18434,0.29322 3.37921,0.10482 4.231273,-0.6665 0.653743,-0.59141 1.816741,-0.96963 2.585935,-0.84073 1.26924,0.21249 1.323069,0.4618 0.582207,2.71272 -0.806024,2.44711 -0.862687,2.47615 -4.396302,2.24879 -3.209931,-0.20682 -3.88209,0.022 -6.509813,2.21762 -2.97974,2.4889 -3.149019,3.32468 -0.674993,3.32468 1.404522,0 1.453394,1.31033 0.198319,5.31211 -0.3421,1.08934 0.07791,1.7105 1.815325,2.68652 2.564687,1.44206 4.342473,0.65374 2.778588,-1.231 -1.325903,-1.59717 -0.370431,-3.22622 1.893236,-3.22693 1.760787,-7.1e-4 2.214087,-0.54537 4.274477,-5.13504 1.267824,-2.82391 2.303331,-5.84686 2.301914,-6.71875 -0.0021,-1.13325 0.682783,-1.86987 2.408157,-2.5909 2.19213,-0.91651 3.944418,-3.51661 3.003112,-4.45792 -0.209651,-0.21036 -1.471808,0.29181 -2.804085,1.11554 -3.215597,1.98744 -10.013681,2.12768 -11.030065,0.22807 -0.373972,-0.69766 -0.623996,-1.89253 -0.556709,-2.65605 0.109784,-1.23879 -0.266314,-1.36344 -3.526532,-1.16583 -2.054724,0.12465 -3.852342,-0.10766 -4.114406,-0.53122 -0.256398,-0.41505 0.0602,-0.75219 0.704739,-0.75219 0.64312,0 2.016477,-0.65445 3.051985,-1.45481 6.273955,-4.84677 7.606232,-5.679 8.585785,-5.36311 3.889881,1.25437 4.185234,1.24162 5.664126,-0.23728 1.270656,-1.27066 1.444185,-2.02285 1.059589,-4.58825 -0.501464,-3.34449 0.475965,-6.06358 2.180089,-6.06358 1.30253,0 1.299697,0.35838 -0.01983,2.37274 -0.872603,1.33086 -0.903767,1.9414 -0.177779,3.47979 1.065255,2.25729 2.058974,2.56396 6.829956,2.10572 2.900412,-0.27907 3.6349,-0.59708 3.462788,-1.50014 -0.292521,-1.53485 -2.93441,-1.84153 -4.071201,-0.47172 -1.830199,2.20488 -2.367076,1.19062 -1.917318,-3.62357 0.327226,-3.50032 0.939181,-5.4396 2.370618,-7.50424 1.785577,-2.57743 1.852864,-2.91953 0.900934,-4.60807 -0.565917,-1.00293 -1.426479,-1.95557 -1.913068,-2.11635 -1.27349,-0.42143 -1.961231,1.90811 -1.012134,3.42737 0.988761,1.58372 0.02975,2.33308 -1.478891,1.15592 -1.885445,-1.4711 -4.712196,-6.20809 -4.317683,-7.2358 0.635328,-1.65667 4.410467,-2.0781 5.970103,-0.66649 0.986636,0.89243 1.369108,0.97672 1.369108,0.2996 0,-1.42081 -2.176549,-3.53008 -3.641983,-3.53008 -1.697042,0 -4.857393,-5.02808 -4.857393,-7.72876 0,-1.49306 -0.580791,-2.50378 -2.031351,-3.53716 -1.426478,-1.01567 -2.205588,-2.34866 -2.616391,-4.47492 -0.903058,-4.67111 -0.83648,-4.87156 1.929358,-5.82278 2.467652,-0.84852 2.6086,-0.8124 2.904662,0.73874 0.234441,1.22391 -0.04533,1.68358 -1.121209,1.84295 -0.788317,0.11686 -1.573093,0.63745 -1.744497,1.15662 -0.237274,0.71961 0.213193,0.67357 1.892528,-0.19549 2.244543,-1.16016 2.835958,-3.02011 1.413021,-4.44305 -0.581499,-0.58149 -0.488006,-1.22178 0.35414,-2.42373 0.629662,-0.89881 1.144583,-2.53494 1.144583,-3.63632 0,-3.81409 4.064826,-9.015 7.045982,-9.015 0.772735,0 2.670221,1.54334 4.355222,3.5414 3.207806,3.80489 4.146278,4.18311 5.935397,2.39399 0.827273,-0.82727 1.08792,-2.15955 0.93564,-4.7809 l -0.211068,-3.63348 h -3.5237 c -3.410374,0 -3.576112,-0.0963 -5.184619,-3.00382 -2.061807,-3.72839 -1.614881,-5.84969 1.23241,-5.84969 1.095003,0 2.385491,0.47667 2.869247,1.05888 m 119.50972,5.99631 c -3.39834,0.6587 -6.00056,3.09873 -6.91141,6.48148 -0.63604,2.36282 -4.13495,6.2952 -5.60109,6.2952 -0.30598,0 -0.4016,0.80673 -0.21319,1.79266 0.20611,1.0773 -0.44126,3.5407 -1.62126,6.16984 -1.81391,4.04145 -1.89536,4.59462 -1.06242,7.23722 0.49579,1.5738 0.96043,5.41127 1.03267,8.5277 0.16999,7.29034 0.658,8.59429 3.81976,10.19996 3.86793,1.96478 14.81158,3.29705 18.81195,2.28988 1.75371,-0.44197 4.75116,-0.80319 6.65926,-0.80319 3.23543,0 3.56053,0.16715 4.79649,2.46127 0.72882,1.35353 1.69633,2.60365 2.15034,2.77788 1.10987,0.42639 7.83076,-4.15973 8.82802,-6.02322 0.43771,-0.81665 0.64878,-2.04552 0.47029,-2.72901 -0.17919,-0.6842 -0.0751,-1.69067 0.2309,-2.23746 0.30598,-0.54679 0.76849,-2.42445 1.02843,-4.17319 0.25994,-1.74875 1.56176,-4.97497 2.89404,-7.16993 3.06615,-5.05218 3.48686,-7.27972 2.10713,-11.14977 -0.6077,-1.70412 -1.10492,-4.4728 -1.10492,-6.15142 0,-4.75257 -0.96468,-6.50415 -4.04074,-7.3385 -8.09566,-2.19638 -14.30232,-3.65544 -16.49941,-3.87926 -1.36344,-0.13882 -4.46076,-0.92927 -6.88308,-1.75583 -4.70157,-1.60426 -4.8064,-1.61417 -8.89176,-0.82231 m 241.86177,0.98026 c -1.34574,0.74653 -4.39489,4.72848 -4.39489,5.73849 0,0.15512 1.19558,0.66579 2.65606,1.13467 1.46118,0.46888 3.20213,1.32944 3.86934,1.91165 1.33156,1.16229 3.38133,0.75007 3.40612,-0.68491 0.009,-0.49863 0.63887,-1.70412 1.40098,-2.67801 1.81958,-2.326 1.77212,-3.92034 -0.15795,-5.27174 -1.88827,-1.32307 -4.56062,-1.38185 -6.77966,-0.15015 m -232.81561,3.33742 c 1.55822,0.3938 6.9277,1.48526 11.93242,2.42586 5.00471,0.9406 9.89186,2.22967 10.85937,2.86358 1.73316,1.13609 1.75654,1.28058 1.52493,9.42156 -0.21461,7.54532 -0.39876,8.51567 -2.10856,11.10089 -1.03055,1.55822 -2.22896,3.94867 -2.66313,5.31211 -0.88181,2.76938 -4.05562,5.19029 -7.89167,6.01898 -1.34503,0.29039 -3.56124,1.08367 -4.92468,1.76149 -3.46067,1.72183 -21.13724,2.4889 -23.25004,1.0086 -1.91591,-1.3422 -3.20285,-5.48281 -2.63835,-8.49088 0.27764,-1.48243 7.1e-4,-4.07191 -0.70545,-6.58843 l -1.163,-4.14557 2.19213,-4.9941 c 1.20479,-2.746 2.19142,-5.17328 2.19142,-5.39214 0,-1.03763 5.12796,-8.24864 6.80163,-9.56534 2.08093,-1.63613 5.31778,-1.87836 9.84298,-0.73661 m 235.51912,11.37641 c 0.0106,1.20125 0.67286,1.9924 2.30191,2.74884 1.2572,0.58433 2.39257,1.69988 2.5229,2.47899 0.13032,0.77911 0.66507,1.7537 1.18849,2.16521 0.52272,0.41151 1.73954,2.53211 2.70351,4.71078 1.96123,4.43526 4.17249,5.83695 5.76825,3.65473 0.82302,-1.12616 0.70828,-1.42435 -0.93777,-2.42799 -2.67943,-1.63471 -3.28147,-2.59656 -4.74548,-7.5871 -1.50156,-5.11663 -2.67447,-6.43262 -6.25059,-7.01341 -2.35078,-0.38105 -2.56539,-0.2741 -2.55122,1.26995 M 249.6452,238.66141 c -2.5661,1.71334 -3.1816,8.89531 -1.34998,15.74864 1.03904,3.88846 0.87402,6.37453 -0.42285,6.37453 -1.26782,0 -3.57186,-6.68617 -3.98266,-11.5549 -0.36902,-4.37789 -0.61692,-4.9863 -2.66952,-6.5516 -1.24374,-0.9491 -2.75946,-1.72538 -3.36787,-1.72538 -2.0441,0 -5.52035,8.84785 -6.26263,15.93633 -0.36689,3.506 -0.98592,8.56454 -1.37548,11.24184 -0.65303,4.48059 -0.573,5.16408 1.00718,8.61625 2.00231,4.37363 4.18523,6.03243 8.59428,6.52893 2.64543,0.29819 3.6434,0.0397 5.91557,-1.53555 1.50368,-1.04188 3.46916,-2.6773 4.36797,-3.63419 1.97681,-2.1036 3.87288,-2.19497 6.69963,-0.32298 2.25659,1.49448 4.59321,1.81958 5.70167,0.79399 0.36972,-0.34281 1.83657,-0.99443 3.2588,-1.44844 1.68075,-0.53688 3.49962,-1.9924 5.19595,-4.15832 2.35999,-3.01374 2.56114,-3.60373 2.09935,-6.16559 -0.28048,-1.55822 -0.50288,-3.96283 -0.49439,-5.34398 0.01,-1.61134 -0.65303,-3.43021 -1.85215,-5.07625 -4.94451,-6.7903 -7.66148,-9.68787 -9.4938,-10.12418 -1.0773,-0.2571 -2.51157,-1.2579 -3.18727,-2.22329 -3.99258,-5.70875 -5.97718,-6.98153 -8.3818,-5.37586 m 12.09107,13.34119 c 3.03782,3.0534 3.79214,4.36868 4.87439,8.49938 2.62914,10.03705 2.35787,11.23617 -2.93795,12.9835 -6.84412,2.25942 -9.98393,-1.20195 -11.84175,-13.05504 -2.70989,-17.28348 -2.33946,-19.06268 3.05765,-14.68196 1.78982,1.45268 4.87085,4.26668 6.84766,6.25412 m 74.4517,-4.31485 c -0.26207,1.0433 -0.001,2.63622 0.63178,3.86013 1.78558,3.45288 1.34645,4.51742 -3.44791,8.35914 -4.85456,3.88988 -9.29478,6.11955 -10.93374,5.4906 -1.61559,-0.61975 -0.59425,-6.07776 1.42577,-7.61969 3.47625,-2.65393 7.76914,-7.3633 8.71894,-9.56534 0.68066,-1.58018 1.47181,-2.30192 2.52149,-2.30192 1.27915,0 1.45693,0.29111 1.08367,1.77708 m -95.41258,3.13485 c 0.82728,1.92299 1.50368,3.83039 1.50368,4.23907 0,0.40938 1.11555,4.07828 2.47899,8.15302 2.93016,8.75932 3.11431,11.60165 0.88535,13.68966 -2.35078,2.20205 -5.16479,3.09236 -7.25988,2.29554 -1.52564,-0.58008 -1.77071,-1.11271 -1.77071,-3.85163 0,-1.74804 -0.67145,-4.86377 -1.49164,-6.92345 -1.24161,-3.11573 -1.4201,-4.63712 -1.06313,-9.05679 0.52838,-6.54452 2.36566,-12.04078 4.02375,-12.04078 0.75007,0 1.74521,1.2919 2.69359,3.49536 m 187.92332,0.89598 c -0.46747,0.46747 -0.84994,1.26145 -0.84994,1.76504 0,0.50288 -0.63745,1.31244 -1.41656,1.79903 -1.59222,0.99443 -1.81603,2.75663 -0.5985,4.70653 0.7437,1.19062 0.95972,1.0433 2.35504,-1.60284 1.82311,-3.45641 4.08891,-4.17957 5.38081,-1.71758 0.47242,0.90022 1.76858,2.79842 2.88129,4.21781 1.112,1.4194 2.02214,2.74884 2.02214,2.95354 0,0.2054 -0.95264,0.5822 -2.11705,0.83789 -1.16371,0.25569 -2.27004,0.71395 -2.45845,1.01851 -0.60345,0.97672 8.8004,-1.95273 9.9464,-3.09873 0.6077,-0.6077 1.63967,-1.08225 2.29341,-1.05534 0.95902,0.0404 0.9151,0.16786 -0.22735,0.6587 -2.11918,0.91085 -0.20611,0.83011 2.47402,-0.10411 l 2.33166,-0.81311 -1.87907,-0.98451 c -1.52847,-0.80036 -2.41028,-0.82444 -4.73486,-0.1282 -2.44711,0.73307 -3.02082,0.69199 -4.00108,-0.28898 -0.62966,-0.62895 -1.18566,-2.35716 -1.23524,-3.83959 -0.08,-2.36637 -0.36476,-2.78426 -2.33237,-3.42808 -1.23241,-0.40302 -2.46907,-0.96114 -2.74742,-1.2395 -0.81099,-0.81027 -4.15903,-0.58433 -5.08688,0.34352 m -390.202078,14.4624 c 0.240816,0.24152 -0.02479,0.90164 -0.590706,1.46685 -1.431437,1.43143 -1.283406,2.86641 0.388138,3.76097 1.65242,0.88394 1.855697,3.00382 0.40372,4.20861 -1.61559,1.34077 -6.180463,0.65162 -6.767628,-1.02134 -0.843563,-2.4032 0.533336,-5.77604 3.002405,-7.35692 2.498816,-1.60072 2.901828,-1.72042 3.564071,-1.05817 m 228.885348,30.91789 c 1.2742,1.94494 1.40665,9.82315 0.25569,15.21317 -1.24445,5.82703 -1.85216,5.18887 -3.35584,-3.52369 -0.38459,-2.23038 -1.1467,-4.93956 -1.69208,-6.0204 -1.13608,-2.24879 -0.89598,-3.43374 1.15166,-5.68395 1.81462,-1.99523 2.32458,-1.99311 3.64057,0.0149 m -73.40769,7.17914 c 1.0518,0.54821 2.89829,2.11564 4.10307,3.48404 1.35424,1.53767 3.30414,2.78779 5.1053,3.27226 3.94371,1.06242 4.32405,2.0278 1.6595,4.21781 -3.93096,3.23118 -3.28288,5.07838 4.38426,12.50117 6.5346,6.32636 8.08716,8.85776 7.18126,11.71072 -0.51279,1.6163 -1.83232,1.71758 -4.48908,0.34351 -2.09793,-1.08508 -3.75814,-3.34662 -8.61695,-11.73622 -1.69209,-2.92166 -4.13424,-6.79171 -5.42756,-8.60066 -1.29262,-1.80895 -2.79559,-4.54858 -3.33884,-6.08909 -0.54396,-1.54051 -1.65738,-4.11157 -2.47473,-5.71371 -2.31608,-4.54008 -1.85641,-5.35389 1.91377,-3.38983 m 83.13168,0.88394 c 0.80249,0.72598 1.29545,2.15175 1.29545,3.74609 0,1.41515 0.63745,3.82331 1.41656,5.35178 0.77911,1.52847 1.41657,3.30909 1.41657,3.95717 0,0.64807 0.77131,2.92307 1.71474,5.05571 1.7445,3.94442 4.33894,16.68781 3.55699,17.47046 -0.7529,0.7522 -2.44428,-2.25162 -2.3267,-4.13211 0.19903,-3.17947 -1.55043,-9.75657 -2.92591,-11.00173 -0.73166,-0.66225 -1.91165,-1.08792 -2.62277,-0.94627 -1.16158,0.23161 -1.27419,0.97177 -1.11766,7.32222 l 0.17494,7.06439 -1.47818,-3.18726 c -2.05189,-4.42605 -5.59967,-16.51216 -5.59967,-19.07614 0,-1.39319 0.48375,-2.38124 1.40806,-2.87633 2.42091,-1.29545 2.5831,-4.06058 0.37397,-6.36745 -1.06525,-1.11129 -1.72395,-2.36566 -1.46331,-2.78709 0.72457,-1.17291 4.72282,-0.91014 6.17692,0.40656 m -91.05664,1.78841 c 0.28473,0.46038 0.44764,2.36211 0.36193,4.22773 -0.11049,2.42374 0.29465,4.17107 1.41869,6.1245 0.95831,1.66588 1.38327,3.22764 1.08792,3.99896 -0.43843,1.14246 -0.63887,1.16371 -2.07031,0.21744 -0.87189,-0.57583 -1.85003,-1.96689 -2.173,-3.09094 -0.32369,-1.12404 -1.03551,-3.42454 -1.58159,-5.11237 -0.86623,-2.67589 -0.85632,-3.33317 0.0751,-5.13504 1.13821,-2.20063 2.04269,-2.58664 2.88129,-1.23028 m 61.01206,3.58036 c -0.58362,3.97629 0.7699,7.93346 3.6866,10.78216 3.00099,2.93087 3.9338,2.86358 4.63641,-0.33218 0.25569,-1.16441 0.91085,-2.11705 1.45623,-2.11705 1.31953,0 3.70006,4.77948 4.28864,8.61128 0.25994,1.69138 1.01993,4.1909 1.68925,5.55434 0.66862,1.36344 1.42719,3.35584 1.6843,4.42676 0.59,2.4542 3.05765,2.70918 3.42241,0.35414 0.22949,-1.48172 0.33219,-1.43427 1.46614,0.67287 2.50307,4.65482 1.12971,6.7485 -3.23188,4.92609 -1.84862,-0.77273 -2.96699,-1.98743 -4.33256,-4.70652 -1.01213,-2.01577 -1.84082,-4.45651 -1.84082,-5.42402 0,-2.9252 -1.25366,-4.49901 -3.58391,-4.49901 -2.48252,0 -3.49891,1.9067 -3.49891,6.56223 0,3.46845 -0.70757,3.03924 -3.48828,-2.11776 -1.93148,-3.58178 -4.13566,-4.63641 -6.16701,-2.9507 -0.84852,0.70403 -0.98167,1.80824 -0.62824,5.18958 0.32581,3.1136 0.24365,4.00249 -0.2996,3.23259 -1.11342,-1.57734 -2.14893,-5.76045 -2.57602,-10.40394 -0.20824,-2.26367 -0.82373,-5.27953 -1.36699,-6.70176 -1.42152,-3.71918 -2.14184,-9.80899 -1.16087,-9.80899 0.43205,0 0.98097,0.87686 1.21966,1.94778 1.15946,5.21507 3.16673,11.82475 3.77514,12.43317 1.4371,1.4371 2.90112,-0.11333 2.90112,-3.07253 0,-1.59646 0.2826,-3.4387 0.62825,-4.09528 0.37326,-0.70899 0.33218,-2.80621 -0.10129,-5.16904 -0.40089,-2.18717 -0.49934,-4.89139 -0.21815,-6.01047 0.45755,-1.82241 0.58575,-1.89961 1.23383,-0.74086 0.39876,0.71182 0.5815,2.2672 0.40655,3.45712 m -32.46124,10.58455 c 0.34564,1.68359 1.04613,4.09174 1.55609,5.35248 1.09147,2.69643 0.19974,4.13849 -2.10572,3.40684 -1.36485,-0.43347 -7.89379,-8.36268 -7.89379,-9.58801 0,-0.30881 0.72245,-0.74227 1.60496,-0.96397 0.95973,-0.24081 1.94919,-1.31457 2.46128,-2.67305 l 0.85702,-2.27075 1.44631,1.8387 c 0.79469,1.01072 1.72821,3.21489 2.07385,4.89776 M 26.251157,319.93103 c -0.777693,1.81461 -2.095804,3.52299 -3.054109,3.96 -1.646046,0.75007 -4.026579,4.98559 -4.026579,7.16497 0,1.56318 1.612756,2.68722 4.534417,3.16177 3.277925,0.53192 4.143445,-0.25852 5.749119,-5.24907 0.789025,-2.45137 2.252334,-5.02313 3.660398,-6.4312 1.290488,-1.29049 2.341578,-2.72476 2.335911,-3.18726 -0.0078,-0.57938 -0.194069,-0.55176 -0.600622,0.0892 -0.458258,0.72174 -1.073755,0.52342 -2.747423,-0.88535 -3.088107,-2.59798 -4.265979,-2.32033 -5.851112,1.3769 m 300.313393,7.64448 c 0,1.41373 -1.52422,2.62064 -3.31051,2.62064 -1.1035,0 -1.98248,0.72528 -2.79063,2.30191 -0.64878,1.26641 -1.53343,2.53636 -1.96619,2.8225 -0.50146,0.33219 -0.37255,0.52413 0.35769,0.53121 1.67862,0.0156 4.87651,2.75238 4.87651,4.17249 0,0.67499 -1.09712,2.28987 -2.4379,3.58886 -2.14822,2.08235 -2.7708,2.3182 -5.24624,1.98602 -3.00311,-0.40301 -4.35664,0.35556 -4.35664,2.44003 0,0.69836 -0.95618,2.1213 -2.12484,3.16318 -1.16867,1.04118 -2.12485,2.26296 -2.12485,2.71485 0,1.34148 -2.92378,3.65969 -7.08281,5.61667 -5.57559,2.62418 -9.91594,5.92406 -9.91594,7.53965 0,0.75361 0.63746,2.00727 1.41657,2.78638 1.84719,1.8472 1.79832,2.20205 -0.61267,4.51246 -1.43143,1.37052 -3.88634,2.42374 -8.3223,3.56974 -3.46137,0.89385 -9.08159,2.62843 -12.48913,3.85446 -4.28652,1.54193 -7.47661,2.22897 -10.35011,2.22897 -3.54637,0 -4.54292,0.30951 -6.82146,2.12059 -2.46978,1.96265 -2.96345,2.0866 -6.64864,1.67084 -3.94583,-0.44481 -9.29335,-2.57177 -9.29335,-3.69582 0,-0.32156 0.63745,-1.16158 1.41656,-1.86632 2.16592,-1.95981 1.8047,-3.70148 -0.88535,-4.2681 -1.26641,-0.26702 -3.2581,-0.90377 -4.42676,-1.41515 -1.16867,-0.51138 -3.96425,-1.06242 -6.21304,-1.22462 -3.14407,-0.22594 -4.53442,-0.70969 -6.0204,-2.09367 -1.06242,-0.99018 -2.41028,-1.97398 -2.99461,-2.18647 -0.73165,-0.26631 -0.60062,-0.40443 0.42143,-0.44267 1.90103,-0.0715 4.12574,-2.50945 3.58249,-3.9253 -0.65233,-1.69987 -2.06889,-1.2997 -4.92043,1.39036 -3.52512,3.32538 -6.48149,3.38062 -9.4074,0.17707 -3.67314,-4.02233 -5.32627,-6.86821 -6.39719,-11.01519 -0.57371,-2.21976 -2.51228,-7.06369 -4.30848,-10.76446 -3.6009,-7.41712 -4.63428,-13.17828 -3.05127,-17.00017 1.01921,-2.46057 0.90943,-2.42445 3.39904,-1.12404 2.74884,1.43568 5.38931,4.48767 7.44758,8.60703 0.98521,1.97186 2.32174,4.02587 2.96982,4.56417 0.64878,0.53829 2.43719,3.48049 3.97487,6.53814 1.53768,3.05836 3.21206,5.72008 3.72131,5.91557 1.56955,0.60203 8.83227,-2.49457 9.29903,-3.96496 0.23515,-0.74086 0.69411,-3.03499 1.01992,-5.0975 0.50501,-3.19223 0.38672,-4.04004 -0.79469,-5.69954 -1.60567,-2.25446 -1.47322,-5.01676 0.2564,-5.34611 1.48172,-0.2826 2.66739,1.84153 2.97974,5.33619 0.52767,5.90565 5.29015,10.58597 9.89256,9.72258 1.84224,-0.34564 2.77717,-0.0744 4.40693,1.27774 3.55203,2.94645 11.77518,7.57719 15.50074,8.72956 3.40754,1.05393 3.88279,1.02418 10.64971,-0.67145 3.89555,-0.97672 8.11124,-2.18221 9.36773,-2.68013 2.13759,-0.84711 2.42162,-0.77415 4.4133,1.13396 2.33521,2.23746 2.21834,2.25516 8.17569,-1.25366 3.39621,-2.0009 3.7801,-3.63207 1.77779,-7.55665 -0.88323,-1.73175 -1.31032,-3.506 -1.04401,-4.34319 0.58929,-1.85711 2.0356,-1.33511 2.33662,0.84286 0.36335,2.63056 1.31741,3.19293 2.933,1.73033 0.78831,-0.71324 1.43356,-1.67367 1.43356,-2.13405 0,-0.46038 2.05897,-2.74672 4.57549,-5.08121 4.58896,-4.25748 6.04873,-6.63306 6.04873,-9.8444 0,-2.18434 2.1985,-2.32671 4.7646,-0.30811 2.36212,1.85783 4.25536,1.787 8.05033,-0.30172 3.57965,-1.96973 4.8921,-2.21197 4.8921,-0.90235 m 102.7964,5.03729 c 0.28261,1.05818 0.87544,2.35858 1.31599,2.88979 1.39815,1.68429 -2.43224,7.5007 -4.21357,6.39932 -1.01709,-0.62895 -0.92997,-3.44083 0.14024,-4.51104 1.1368,-1.13679 -0.39734,-2.21055 -3.1816,-2.22613 -2.58664,-0.0142 -2.50802,-1.53768 0.1962,-3.81339 2.59585,-2.18434 4.96009,-1.66587 5.74274,1.26145 m -179.29857,9.26078 c 0.48092,0.57867 0.91793,2.73043 0.97176,4.7809 0.0928,3.52582 -0.002,3.73902 -1.76008,3.943 -2.89829,0.33644 -4.39772,-1.64463 -3.84738,-5.08262 0.70615,-4.41614 2.69572,-5.97932 4.6357,-3.64128 m 155.83676,6.74496 c 1.14599,1.146 1.33581,1.97469 0.97176,4.24969 -0.41081,2.56965 -0.31165,2.82604 1.09146,2.82604 1.09429,0 1.84507,-0.72103 2.57885,-2.47898 0.57017,-1.36344 1.40381,-2.47899 1.85428,-2.47899 2.03135,0 10.20421,1.63613 10.76304,2.1546 0.3421,0.31731 0.61267,1.63542 0.60063,2.92945 -0.034,3.70856 -0.12608,3.87925 -1.07376,1.99877 -1.2062,-2.39258 -3.71847,-2.72476 -4.29643,-0.56804 -0.84994,3.17239 -0.47172,6.00056 0.97743,7.31229 0.78902,0.71395 1.31032,1.63967 1.15804,2.05756 -0.69129,1.9074 1.01992,3.23897 4.16186,3.23897 1.73954,0 3.16247,0.1799 3.16247,0.40018 0,0.21957 -0.67499,1.96831 -1.49943,3.88492 -1.23524,2.87137 -1.93007,3.60374 -3.94513,4.16045 -1.48243,0.40938 -3.56053,1.94139 -5.27669,3.892 -3.58249,4.06908 -7.11964,5.3114 -11.24751,3.94867 -4.12007,-1.3599 -4.49263,-2.11139 -2.84446,-5.74416 0.77486,-1.70767 1.41586,-3.4805 1.42436,-3.94017 0.0276,-1.47252 -2.15034,-3.06048 -4.19799,-3.06048 -2.24525,0 -3.1738,-0.8974 -3.84738,-3.71848 -0.53192,-2.22542 0.64525,-2.69501 1.33228,-0.53121 0.61195,1.92794 2.207,1.78133 3.59098,-0.33006 0.99443,-1.51856 1.39036,-4.11724 1.78346,-11.71072 0.0503,-0.97389 -0.32086,-3.10086 -0.82515,-4.72636 -0.75361,-2.42728 -0.75149,-3.1554 0.009,-4.07262 1.21682,-1.46544 1.87765,-1.40948 3.59382,0.30668 m 1.75228,12.66195 c 0.26207,1.90386 0.16078,4.60524 -0.22594,6.00339 -0.59566,2.15884 -0.4795,2.82392 0.77132,4.41472 1.34715,1.71191 1.77991,1.83657 5.07342,1.45197 4.56771,-0.53191 6.39507,-2.4464 5.72858,-5.99985 -0.68279,-3.63844 -1.71263,-4.85172 -6.10893,-7.19472 -5.49059,-2.92662 -5.81145,-2.84587 -5.23845,1.32449 m -104.50123,42.66261 -2.52007,1.31741 0.0963,5.14212 c 0.12182,6.50415 3.21276,15.41149 5.34823,15.41149 0.32227,0 0.12395,-1.10563 -0.44055,-2.45632 -0.5645,-1.35069 -1.0263,-3.04844 -1.0263,-3.7723 0,-1.40736 2.39045,-3.90334 4.42676,-4.62225 0.68136,-0.24011 1.23949,-0.76565 1.23949,-1.16795 0,-1.0433 -3.3523,-0.9059 -3.78081,0.15511 -0.22877,0.56733 -0.3768,0.47455 -0.41292,-0.25852 -0.0305,-0.62896 0.58149,-1.95415 1.3606,-2.94504 1.61134,-2.04835 1.78062,-3.89908 0.59425,-6.50202 -0.94485,-2.07455 -1.43568,-2.10501 -4.88501,-0.30173 m -85.42439,3.05128 c 1.73883,4.53087 1.00221,6.78321 -1.73813,5.31707 -1.01638,-0.54396 -1.33227,-1.01709 -0.79823,-1.19487 0.48588,-0.1622 0.88323,-0.60204 0.88323,-0.97743 0,-0.3761 -1.43427,0.30314 -3.18727,1.50935 -3.41108,2.34653 -3.6604,2.78496 -2.33733,4.10803 1.05463,1.05463 4.81632,1.12546 4.81632,0.0907 0,-0.50713 1.29473,-0.59779 3.90121,-0.27198 2.69926,0.33714 4.22631,0.21744 4.95797,-0.38956 1.67225,-1.38823 1.23949,-2.83879 -1.08934,-3.65048 -1.1807,-0.41151 -2.61285,-1.65029 -3.18231,-2.75167 -1.20266,-2.326 -2.97974,-3.7546 -2.22612,-1.78912 m -19.2433,7.09556 c -4.75115,1.72183 -4.23765,4.97709 0.66224,4.19373 3.1809,-0.50854 4.1902,0.78478 2.87067,3.68023 -1.05747,2.32104 0.51279,2.34158 3.18726,0.0411 l 1.95769,-1.68358 -2.44923,-3.61011 c -2.63623,-3.88421 -2.68581,-3.90546 -6.22863,-2.62135 m 58.13502,5.88086 c -0.0276,1.85003 0.27765,3.76027 0.67853,4.24402 0.83153,1.00364 0.0808,8.90381 -0.7954,8.36268 -0.74865,-0.46322 -4.6789,3.72343 -4.06836,4.33468 0.26844,0.26844 1.52068,-0.28614 2.78142,-1.23241 1.89748,-1.42294 3.12564,-1.72325 7.10902,-1.73529 4.94238,-0.0156 6.42836,-0.80885 5.94248,-3.17239 -0.22594,-1.10067 -0.38106,-1.11767 -3.37921,-0.36547 -1.24162,0.31164 -2.32742,0.0269 -3.49041,-0.91439 -1.65242,-1.33866 -1.67013,-1.46827 -0.81028,-6.1323 0.97318,-5.28449 0.46322,-6.75347 -2.34441,-6.75347 -1.39602,0 -1.57734,0.37681 -1.62338,3.36434 m -32.04548,1.20125 c 0,1.41302 2.26721,4.47988 3.84243,5.19736 1.4966,0.68208 1.82382,1.3167 1.82382,3.53787 0,3.09448 0.99089,4.40622 3.32893,4.40622 2.05826,0 2.10926,-1.53485 0.1544,-4.69732 -1.40169,-2.26863 -1.40948,-2.3855 -0.15724,-2.3855 0.72387,0 2.04623,-0.51138 2.93866,-1.13608 0.89456,-0.62612 2.40178,-0.98664 3.3615,-0.80319 1.96903,0.37681 2.61994,-0.24365 1.98673,-1.89253 -0.58575,-1.52634 -2.11492,-1.41656 -3.80418,0.27269 -3.00382,3.00382 -7.00136,2.72193 -10.98331,-0.77415 -1.37053,-1.20337 -2.49174,-1.97965 -2.49174,-1.72537 m -16.62619,6.41277 c -0.6587,3.0612 -1.29899,4.03721 -3.08244,4.69662 -1.20337,0.44551 -1.87057,0.23161 -2.79913,-0.89527 -2.32245,-2.81967 -3.10723,-3.45854 -3.75602,-3.05765 -1.17078,0.72386 -0.68349,4.53583 0.76566,5.98498 2.1468,2.1468 4.98205,1.78345 8.30743,-1.06243 3.11502,-2.66667 5.16266,-3.10793 6.56647,-1.41656 1.12121,1.3514 2.12485,1.36415 2.12485,0.0276 0,-0.60771 -1.16583,-1.34928 -2.82321,-1.7955 -1.90032,-0.51209 -3.15398,-1.38965 -3.83464,-2.68368 l -1.01142,-1.92298 -0.45755,2.12484 m 88.86026,2.30192 c -0.006,0.29252 -0.31164,1.00576 -0.67853,1.58655 -0.48376,0.76494 -0.16432,1.57947 1.16158,2.96416 2.73326,2.85295 1.91094,4.88076 -2.76655,6.81933 -5.80436,2.40603 -7.95541,1.97115 -4.43171,-0.89598 1.18282,-0.96255 1.97964,-2.57248 2.39257,-4.83331 0.33997,-1.8642 1.18495,-4.01595 1.87765,-4.7809 1.27633,-1.41089 2.46482,-1.82878 2.44499,-0.85985 m 4.72636,22.84207 -0.44409,4.24969 h 2.16805 c 2.55477,0 6.30937,3.33954 6.30937,5.61171 0,2.46624 -2.78001,1.91449 -3.29351,-0.65374 -0.23373,-1.16867 -0.6927,-2.12485 -1.01993,-2.12485 -0.76281,0 -5.42685,4.02162 -7.59844,6.55161 -2.06393,2.40532 -3.30271,2.45915 -4.77735,0.20823 -1.36557,-2.08376 -0.84144,-3.21843 1.48455,-3.21843 1.17858,0 2.04764,-0.65091 2.79134,-2.08943 1.51714,-2.93299 1.36202,-3.95858 -0.86694,-5.73354 -1.85782,-1.4796 -1.88544,-1.58867 -0.59212,-2.35362 0.74582,-0.44055 2.33945,-1.66871 3.54141,-2.729 1.20195,-1.05959 2.31112,-1.93644 2.4634,-1.94778 0.15299,-0.0113 0.0786,1.89182 -0.16574,4.22915 m -192.57602,12.01883 c -0.9753,0.76777 -1.97185,2.3862 -2.21408,3.59806 -0.39593,1.97894 -0.67499,2.18293 -2.74884,2.01152 -2.19213,-0.18202 -8.485212,2.12556 -9.229616,3.38417 -0.191944,0.32439 -0.06374,1.34644 0.284729,2.27004 0.538294,1.42436 0.967513,1.61418 2.821085,1.24304 1.201953,-0.24011 3.349462,-1.3514 4.771692,-2.46836 1.42152,-1.11696 3.58319,-2.54132 4.80285,-3.16531 3.13344,-1.60214 5.89007,-5.0713 5.42969,-6.83279 -0.47313,-1.80754 -1.65525,-1.81958 -3.91751,-0.0404"
     stroke="none"
     fill="undefined"
     fill-rule="evenodd"
     id="path1-6"
     style="fill:url(#radialGradient2);fill-opacity:1;stroke-width:0.708281" />
</svg>
