<?xml version="1.0" encoding="UTF-8" standalone="no"?>
<svg
   id="killed"
   viewBox="0 0 500 500"
   version="1.1"
   sodipodi:docname="killed.svg"
   inkscape:version="1.4.2 (ebf0e940d0, 2025-05-08)"
   xmlns:inkscape="http://www.inkscape.org/namespaces/inkscape"
   xmlns:sodipodi="http://sodipodi.sourceforge.net/DTD/sodipodi-0.dtd"
   xmlns="http://www.w3.org/2000/svg"
   xmlns:svg="http://www.w3.org/2000/svg">
  <sodipodi:namedview
     id="namedview4"
     pagecolor="#ffffff"
     bordercolor="#000000"
     borderopacity="0.25"
     inkscape:showpageshadow="2"
     inkscape:pageopacity="0.0"
     inkscape:pagecheckerboard="0"
     inkscape:deskcolor="#d1d1d1"
     inkscape:zoom="2.092"
     inkscape:cx="338.43212"
     inkscape:cy="212.23709"
     inkscape:window-width="2560"
     inkscape:window-height="1348"
     inkscape:window-x="0"
     inkscape:window-y="0"
     inkscape:window-maximized="1"
     inkscape:current-layer="killed" />
  <defs
     id="defs1">
    <style
       id="style1">.cls-1{fill:#fff;}</style>
  </defs>
  <title
     id="title1">killed</title>
  <path
     class="cls-1"
     d="m 222.66065,242.79139 c 0.22168,-0.6728 -2.87867,-4.33512 -5.72592,-5.78475 a 113.933,113.933 0 0 0 -10.98759,-4.0203 l -0.6486,1.35355 3.06823,1.98942 -0.87004,2.37783 -3.63362,-0.0251 -0.0401,1.36963 a 71.156,71.156 0 0 0 9.3573,3.42379 c 3.4069,0.78443 9.25828,-0.0103 9.48031,-0.68407 z"
     id="path1" />
  <path
     class="cls-1"
     d="m 247.93928,283.58865 c 2.08403,-5.69571 -0.02,-8.77201 -0.02,-8.77201 l -1.06058,-5.92521 c 0,0 -7.16386,-8.15838 -15.11275,-12.91113 -7.94888,-4.75275 -13.76444,-2.72883 -18.73592,3.29466 -4.97147,6.02349 -4.06036,12.35722 -3.21491,16.35303 0.84546,3.99582 1.16168,11.95831 9.40898,15.9013 8.2473,3.94299 15.64943,3.88068 20.09945,1.81713 4.45003,-2.06355 6.55138,-4.06113 8.63575,-9.75777 z"
     id="path2" />
  <path
     class="cls-1"
     d="m 258.91363,238.27018 4.63513,-3.84119 c 0,0 3.59293,-0.99286 5.67696,-6.68857 2.08403,-5.6957 1.75624,-8.58315 -0.30774,-13.02908 -2.06399,-4.44593 -7.68238,-9.27024 -16.52116,-11.58216 -8.83878,-2.31191 -14.22065,3.56142 -17.44958,6.07389 -3.22893,2.51247 -8.01027,6.75911 -8.09863,14.56718 -0.0884,7.80807 3.04606,13.10886 12.18464,14.60726 9.13857,1.49839 19.88038,-0.10733 19.88038,-0.10733 z"
     id="path3" />
  <path
     class="cls-1"
     d="m 242.65074,330.85229 a 92.407,92.407 0 0 0 34.30631,-0.39699 70.911,70.911 0 0 0 29.51708,-13.66876 55.076,55.076 0 0 0 9.34954,-9.35711 l -6.56637,-17.04944 13.92482,5.37827 c 2.95006,-4.48011 1.15254,-2.0615 3.20805,-7.67925 q 7.97566,-21.7977 4.11765,-42.68413 a 88.491,88.491 0 0 0 -17.95829,-38.88121 117.868,117.868 0 0 0 -15.34998,-15.83359 97.792,97.792 0 0 0 -18.61788,-12.63259 96.54,96.54 0 0 0 -20.78889,-7.9622 64.888,64.888 0 0 0 -21.87206,-1.82682 70.852,70.852 0 0 0 -21.86312,5.43014 64.5,64.5 0 0 0 -16.03637,9.58316 l 8.19689,14.06286 -14.09982,-9.31191 a 83.272,83.272 0 0 0 -11.96751,13.88418 89.7,89.7 0 0 0 -10.36718,20.08036 86.34,86.34 0 0 0 -5.22554,33.01467 72.917,72.917 0 0 0 8.91381,32.48385 68.852,68.852 0 0 0 14.91748,18.2874 101.74,101.74 0 0 0 20.13905,13.54482 112.547,112.547 0 0 0 34.12233,11.53429 z M 192.3231,291.66375 c -2.06398,-4.44592 -0.35823,-25.50402 -0.35823,-25.50402 l -2.69425,-1.44582 -9.42723,-5.75581 6.76147,-16.15109 7.92525,-23.21107 6.5221,-16.07895 13.99524,-0.41637 10.29078,-19.30117 13.13909,0.65466 a 20.158,20.158 0 0 0 10.85566,13.19885 c 3.39778,1.5893 9.7061,1.55377 13.15581,1.82251 a 101.169,101.169 0 0 0 17.22997,-0.39241 c 0,0 22.81269,12.03777 30.5924,27.33973 3.59999,7.08118 5.14217,16.56773 4.02076,26.84412 a 125.827,125.827 0 0 1 -5.63692,24.23258 c 0,0 -7.8831,18.05245 -17.40697,23.61671 -6.94336,4.06145 -9.4695,6.44879 -13.15988,7.63814 -3.69039,1.18934 -16.47179,2.74093 -16.47179,2.74093 0,0 -6.88668,1.17093 -16.76437,-3.36541 -4.21812,-1.93738 -10.10965,-3.84709 -14.01067,-5.98469 a 22.313,22.313 0 0 0 -16.58303,-2.44081 l -10.0717,2.31198 c 0,0 -9.8395,-5.90666 -11.90349,-10.35259 z"
     id="path4" />
</svg>
