<?xml version="1.0" encoding="UTF-8" standalone="no"?>
<svg
   id="svg"
   version="1.1"
   width="800"
   height="737"
   sodipodi:docname="vectordesign.svg"
   inkscape:version="1.4.2 (ebf0e940d0, 2025-05-08)"
   xmlns:inkscape="http://www.inkscape.org/namespaces/inkscape"
   xmlns:sodipodi="http://sodipodi.sourceforge.net/DTD/sodipodi-0.dtd"
   xmlns:xlink="http://www.w3.org/1999/xlink"
   xmlns="http://www.w3.org/2000/svg"
   xmlns:svg="http://www.w3.org/2000/svg">
  <defs
     id="defs1">
    <linearGradient
       id="linearGradient1"
       inkscape:collect="always">
      <stop
         style="stop-color:#b60b0b;stop-opacity:1;"
         offset="0"
         id="stop1" />
      <stop
         style="stop-color:#520404;stop-opacity:1;"
         offset="1"
         id="stop2" />
    </linearGradient>
    <radialGradient
       inkscape:collect="always"
       xlink:href="#linearGradient1"
       id="radialGradient2"
       cx="411.90094"
       cy="367.53055"
       fx="411.90094"
       fy="367.53055"
       r="352.9671"
       gradientTransform="matrix(1,0,0,0.97098021,0,10.665659)"
       gradientUnits="userSpaceOnUse" />
  </defs>
  <sodipodi:namedview
     id="namedview1"
     pagecolor="#ffffff"
     bordercolor="#000000"
     borderopacity="0.25"
     inkscape:showpageshadow="2"
     inkscape:pageopacity="0.0"
     inkscape:pagecheckerboard="0"
     inkscape:deskcolor="#d1d1d1"
     inkscape:zoom="1.4830393"
     inkscape:cx="455.48353"
     inkscape:cy="375.24291"
     inkscape:window-width="2560"
     inkscape:window-height="1348"
     inkscape:window-x="0"
     inkscape:window-y="0"
     inkscape:window-maximized="1"
     inkscape:current-layer="svg" />
  <path
     d="M345.500 25.667 C 342.728 26.427,338.650 26.786,336.349 26.473 C 331.945 25.873,320.402 27.409,315.663 29.227 C 314.103 29.825,311.747 32.024,310.428 34.114 C 307.748 38.360,305.984 39.519,299.085 41.567 C 296.469 42.344,293.557 43.832,292.614 44.874 C 291.671 45.916,288.626 53.008,285.847 60.634 C 283.068 68.260,280.300 75.400,279.697 76.500 C 279.093 77.600,278.270 80.750,277.867 83.500 C 276.490 92.893,269.648 110.511,265.415 115.566 C 263.262 118.137,260.825 121.042,260.000 122.021 C 259.175 123.001,257.107 124.092,255.404 124.447 C 253.701 124.801,250.456 126.871,248.193 129.046 C 245.929 131.221,243.194 133.000,242.115 133.000 C 241.036 133.000,238.786 134.150,237.115 135.557 C 235.444 136.963,232.372 138.370,230.288 138.684 C 227.173 139.153,224.930 140.846,217.664 148.214 C 210.333 155.648,208.927 157.573,209.413 159.508 C 210.263 162.897,209.123 165.000,206.436 165.000 C 204.929 165.000,203.083 166.281,201.293 168.569 C 197.688 173.177,194.148 174.990,186.703 176.042 C 181.684 176.751,180.095 177.490,177.223 180.447 C 172.962 184.834,170.544 184.999,169.150 181.000 C 167.995 177.687,165.974 177.169,163.571 179.571 C 161.551 181.592,161.590 182.864,163.750 185.382 C 165.478 187.396,165.469 187.402,163.000 185.848 C 161.625 184.983,158.640 182.413,156.368 180.137 C 151.638 175.402,149.805 175.125,142.239 178.001 C 139.346 179.100,135.799 180.000,134.357 180.000 C 132.916 180.000,130.130 180.992,128.167 182.206 C 126.205 183.419,122.552 184.936,120.049 185.577 C 115.892 186.643,115.500 187.008,115.506 189.806 C 115.511 192.458,115.085 192.949,112.330 193.466 C 109.797 193.941,108.708 194.972,106.988 198.524 C 105.002 202.627,104.554 202.966,101.406 202.743 C 98.891 202.564,98.129 202.117,98.534 201.056 C 98.943 199.986,98.601 200.051,97.214 201.307 C 95.196 203.133,92.636 208.425,88.414 219.500 C 86.946 223.350,84.902 227.429,83.873 228.564 C 82.843 229.700,82.000 231.468,82.000 232.493 C 82.000 233.519,81.478 235.802,80.840 237.567 C 79.801 240.438,79.982 241.290,82.552 245.638 C 84.132 248.312,86.148 251.850,87.032 253.500 C 87.916 255.150,89.567 258.075,90.701 260.000 C 97.237 271.096,102.000 279.938,102.000 280.977 C 102.000 281.631,103.800 285.800,106.000 290.242 C 108.200 294.683,110.000 299.062,110.000 299.972 C 110.000 300.882,111.854 304.700,114.120 308.457 C 116.386 312.215,119.589 318.170,121.237 321.692 C 123.927 327.441,124.127 328.525,123.196 332.298 C 120.876 341.697,119.684 348.837,119.406 355.000 C 118.699 370.666,117.829 378.448,116.455 381.368 C 114.143 386.285,108.949 393.184,104.761 396.901 C 102.467 398.938,99.473 403.350,97.297 407.901 C 92.851 417.201,87.531 423.983,84.630 424.048 C 83.235 424.079,79.912 427.064,75.000 432.699 C 70.875 437.432,65.796 443.105,63.713 445.306 C 61.631 447.507,59.561 449.961,59.115 450.759 C 58.168 452.451,61.129 466.001,63.459 470.639 C 64.657 473.024,64.791 474.419,64.018 476.454 C 62.502 480.439,62.784 485.693,64.705 489.300 C 65.804 491.362,66.426 494.881,66.455 499.196 C 66.498 505.625,66.677 506.104,70.930 511.196 C 75.842 517.076,80.949 520.886,85.500 522.066 C 87.150 522.493,92.760 524.642,97.966 526.841 C 104.889 529.765,107.901 530.588,109.177 529.905 C 111.988 528.401,126.853 532.574,130.335 535.845 C 131.981 537.391,134.755 538.400,139.021 539.003 C 147.455 540.195,149.196 542.000,141.911 542.000 C 138.269 542.000,135.090 541.296,132.461 539.906 C 130.283 538.755,126.976 537.843,125.114 537.881 C 122.897 537.926,120.713 537.095,118.787 535.474 C 113.629 531.134,107.624 530.848,108.708 534.993 C 109.526 538.118,117.397 543.683,123.517 545.462 C 126.513 546.333,129.668 548.032,130.684 549.321 C 133.526 552.928,135.678 553.683,141.122 552.984 C 145.445 552.430,146.674 551.734,149.852 548.044 C 153.094 544.281,154.168 543.690,158.533 543.271 C 166.014 542.552,171.306 544.437,178.300 550.311 C 182.743 554.042,185.318 557.205,187.388 561.473 C 188.976 564.749,191.338 568.265,192.638 569.287 C 195.319 571.396,195.815 575.000,193.423 575.000 C 192.000 575.000,189.961 573.121,184.356 566.644 C 183.335 565.465,182.484 564.275,182.465 564.000 C 182.445 563.725,181.867 562.487,181.179 561.250 C 180.288 559.645,179.008 558.998,176.715 558.993 C 174.947 558.990,172.150 558.093,170.500 557.000 C 168.850 555.907,166.735 555.010,165.801 555.007 C 164.866 555.003,162.791 553.598,161.190 551.885 C 158.354 548.850,158.215 548.813,155.724 550.445 C 154.318 551.366,152.932 552.734,152.644 553.485 C 152.028 555.090,153.773 561.997,154.797 562.007 C 155.184 562.011,156.592 563.617,157.927 565.577 C 159.261 567.536,161.992 569.975,163.994 570.997 C 165.996 572.018,168.256 573.603,169.016 574.520 C 170.135 575.868,171.838 576.120,177.949 575.843 L 185.500 575.500 185.236 586.105 L 184.973 596.710 189.337 601.105 C 191.737 603.522,193.521 606.016,193.302 606.646 C 193.082 607.276,193.823 609.301,194.948 611.146 C 198.460 616.908,196.905 624.484,191.095 629.911 C 188.329 632.495,188.189 632.998,188.692 638.577 C 189.156 643.729,188.950 644.748,187.113 646.405 C 184.290 648.950,184.451 650.597,187.728 652.727 C 189.228 653.702,193.568 657.770,197.371 661.767 C 201.174 665.764,205.459 669.313,206.893 669.655 C 208.327 669.996,210.058 670.715,210.739 671.251 C 212.402 672.560,211.219 674.282,209.149 673.566 C 207.813 673.103,207.845 673.263,209.320 674.409 C 211.079 675.776,211.079 675.859,209.320 676.936 C 207.896 677.807,208.588 677.917,212.500 677.441 C 215.250 677.106,218.212 676.638,219.082 676.402 C 219.952 676.165,221.351 676.766,222.191 677.736 C 224.886 680.850,224.945 683.686,222.385 687.156 L 219.983 690.411 222.357 692.456 C 223.662 693.580,225.722 695.962,226.933 697.750 C 228.145 699.538,229.824 701.000,230.664 701.000 C 231.504 701.000,233.420 701.875,234.921 702.944 C 236.984 704.413,240.564 705.140,249.576 705.923 C 260.737 706.892,265.219 706.621,274.250 704.433 C 277.372 703.677,278.068 700.402,275.250 699.728 C 273.621 699.338,273.627 699.255,275.341 698.513 C 276.475 698.022,278.418 698.306,280.404 699.253 C 284.727 701.314,287.000 700.004,287.000 695.450 C 287.000 693.553,287.450 692.000,288.000 692.000 C 288.550 692.000,289.000 692.666,289.000 693.481 C 289.000 695.932,293.630 696.327,299.999 694.419 C 304.511 693.067,306.000 692.165,306.000 690.779 C 306.000 688.256,303.551 687.529,300.001 688.999 C 296.562 690.424,292.000 689.599,292.000 687.552 C 292.000 686.777,291.215 685.357,290.254 684.397 C 288.594 682.737,288.674 682.685,291.897 683.329 C 293.760 683.702,295.862 684.793,296.568 685.753 C 297.759 687.375,298.074 687.287,300.957 684.533 C 302.665 682.901,303.936 680.935,303.781 680.164 C 303.627 679.393,301.475 678.016,299.000 677.103 C 293.261 674.986,292.803 672.063,298.000 670.728 C 301.895 669.728,305.000 667.365,305.000 665.402 C 305.000 663.805,309.009 660.888,310.196 661.621 C 310.674 661.916,310.176 663.598,309.089 665.357 L 307.112 668.555 310.015 673.527 C 313.154 678.905,315.771 680.235,320.250 678.729 C 324.681 677.239,323.585 674.874,316.358 670.332 C 314.579 669.214,314.596 669.095,316.750 667.525 C 317.988 666.624,319.000 665.418,319.000 664.844 C 319.000 664.271,319.715 662.294,320.590 660.452 C 322.966 655.444,329.443 653.510,338.649 655.059 C 346.874 656.442,350.000 658.197,350.000 661.429 C 350.000 663.401,350.389 663.716,352.250 663.251 C 353.488 662.942,355.388 662.084,356.473 661.345 C 359.609 659.207,362.970 659.757,365.893 662.886 C 368.461 665.634,368.723 665.701,371.409 664.293 C 373.798 663.042,375.747 662.992,384.136 663.967 C 400.903 665.917,401.840 666.477,420.213 685.545 C 430.971 696.710,434.123 699.357,440.713 702.760 C 452.459 708.826,462.681 711.070,473.664 709.996 C 490.489 708.350,504.194 704.140,511.926 698.243 C 514.678 696.144,517.049 695.399,522.691 694.860 C 526.671 694.480,531.631 693.287,533.714 692.210 C 535.796 691.133,539.300 689.454,541.500 688.479 C 543.700 687.505,546.175 686.390,547.000 686.001 C 548.861 685.126,549.545 681.145,548.085 679.685 C 546.346 677.946,546.809 674.196,548.842 673.550 C 551.628 672.666,554.689 668.913,555.817 665.000 C 556.371 663.075,557.710 659.250,558.792 656.500 C 562.050 648.221,564.000 641.402,564.000 638.287 C 564.000 631.742,570.850 624.446,588.066 612.658 C 603.556 602.051,607.919 598.534,611.515 593.753 C 613.480 591.143,616.530 588.261,618.293 587.349 C 620.057 586.437,623.203 584.323,625.285 582.650 C 628.832 579.800,629.682 579.589,638.785 579.294 C 644.128 579.121,649.902 578.519,651.616 577.956 C 653.330 577.394,656.513 577.218,658.690 577.566 C 662.298 578.143,663.067 577.837,667.385 574.100 C 672.246 569.892,674.126 569.337,678.228 570.897 C 680.474 571.750,687.000 569.977,687.000 568.513 C 687.000 568.192,685.987 568.469,684.750 569.129 C 682.837 570.148,682.676 570.114,683.673 568.904 C 684.427 567.989,684.579 566.235,684.099 563.990 C 682.231 555.258,689.216 547.167,699.473 546.181 C 703.143 545.828,704.931 545.087,706.296 543.351 C 708.012 541.170,711.808 539.883,710.558 541.907 C 709.082 544.294,714.392 541.330,717.704 537.917 C 719.765 535.793,722.678 533.548,724.177 532.927 C 725.676 532.306,727.600 530.734,728.452 529.433 C 729.304 528.133,733.206 524.977,737.123 522.419 C 742.139 519.146,743.856 517.529,742.927 516.955 C 742.201 516.506,740.893 516.522,740.020 516.989 C 739.147 517.456,736.801 517.619,734.807 517.350 C 730.791 516.809,725.306 519.648,721.280 524.353 C 720.058 525.780,718.024 527.207,716.759 527.524 C 712.735 528.534,700.695 527.607,700.247 526.253 C 699.936 525.311,701.849 525.066,708.052 525.253 C 715.278 525.470,716.404 525.266,717.385 523.564 C 717.998 522.500,720.170 519.947,722.212 517.892 C 728.399 511.661,728.240 506.000,721.878 506.000 C 719.933 506.000,719.000 505.492,719.000 504.434 C 719.000 502.254,720.860 499.000,722.107 499.000 C 724.313 499.000,726.000 495.965,726.000 491.996 C 726.000 488.966,724.923 486.004,722.000 481.000 C 719.800 477.233,718.000 472.851,718.000 471.263 C 718.000 469.350,716.973 467.390,714.959 465.461 C 713.286 463.858,710.574 460.453,708.932 457.894 L 705.946 453.240 708.527 446.370 C 714.419 430.685,715.144 427.930,716.653 415.500 C 717.522 408.350,718.517 396.141,718.866 388.368 L 719.500 374.236 723.447 368.509 C 725.617 365.360,729.150 361.369,731.297 359.641 C 733.444 357.914,741.421 351.224,749.023 344.775 C 762.710 333.164,762.858 332.994,764.105 327.422 C 765.109 322.934,765.119 318.226,764.154 304.148 C 763.489 294.441,762.517 284.700,761.996 282.500 C 761.474 280.300,761.037 275.334,761.024 271.464 C 761.007 266.549,760.304 262.632,758.693 258.471 C 756.587 253.034,755.915 252.279,750.984 249.816 C 741.324 244.989,715.250 237.187,706.748 236.579 C 702.484 236.274,697.378 235.349,695.400 234.523 C 690.120 232.317,681.934 223.315,677.540 214.883 C 675.424 210.822,671.576 204.800,668.990 201.500 C 666.404 198.200,663.030 193.475,661.494 191.000 C 659.957 188.525,654.984 181.969,650.443 176.432 C 639.750 163.393,636.353 157.936,634.908 151.479 C 634.002 147.432,634.003 145.438,634.913 142.857 C 637.291 136.114,639.268 96.861,637.384 93.812 C 637.098 93.349,637.404 90.554,638.065 87.601 C 640.019 78.870,638.907 75.927,630.215 66.830 C 625.998 62.416,620.512 57.709,618.024 56.371 C 615.536 55.032,611.250 52.133,608.500 49.927 C 605.750 47.722,600.376 44.330,596.557 42.389 C 592.739 40.449,588.394 37.993,586.903 36.931 C 582.924 34.097,574.841 34.352,568.500 37.510 C 562.034 40.731,554.517 45.441,551.795 47.976 C 549.409 50.199,548.893 50.389,540.878 51.975 C 537.006 52.742,534.038 54.132,531.340 56.441 C 525.712 61.258,516.712 65.628,507.500 68.015 C 502.677 69.265,497.514 71.440,494.500 73.492 C 488.850 77.338,482.985 80.000,480.159 80.000 C 479.111 80.000,476.164 79.076,473.610 77.946 C 467.405 75.201,448.572 73.564,441.363 75.143 C 437.181 76.059,434.879 75.964,428.990 74.634 C 425.011 73.735,419.897 73.005,417.627 73.011 C 413.599 73.022,413.103 72.615,397.000 56.100 C 387.925 46.793,378.700 38.210,376.500 37.027 C 374.202 35.790,371.862 33.519,371.000 31.688 C 369.647 28.811,368.914 28.417,363.500 27.648 C 360.200 27.179,355.925 26.233,354.000 25.546 C 351.154 24.530,349.566 24.552,345.500 25.667 M587.544 45.562 C 590.731 46.971,596.616 50.327,600.623 53.018 C 604.630 55.710,609.617 58.808,611.704 59.901 C 613.792 60.994,619.236 65.402,623.803 69.695 C 631.749 77.165,632.130 77.724,632.689 82.727 C 633.044 85.903,632.739 89.826,631.912 92.727 C 631.163 95.352,630.709 97.950,630.902 98.500 C 631.265 99.535,631.008 122.944,630.517 133.500 C 630.363 136.800,629.663 141.412,628.961 143.750 C 627.782 147.673,627.899 148.555,630.490 155.250 C 634.568 165.783,636.353 168.969,640.998 174.000 C 643.283 176.475,645.860 179.844,646.724 181.488 C 647.589 183.131,649.577 185.670,651.141 187.132 C 652.705 188.593,655.257 192.478,656.812 195.766 C 658.367 199.054,661.295 203.198,663.320 204.976 C 665.344 206.753,667.000 208.780,667.000 209.481 C 667.000 210.182,667.712 211.346,668.582 212.068 C 669.451 212.790,671.530 216.107,673.200 219.440 C 675.080 223.193,678.820 228.021,683.022 232.122 C 688.781 237.742,690.502 238.848,694.392 239.432 C 700.100 240.288,702.375 242.375,701.635 246.076 C 701.283 247.833,701.611 249.262,702.542 250.035 C 703.779 251.061,703.908 250.791,703.399 248.243 C 702.829 245.395,702.994 245.211,706.649 244.621 C 719.218 242.594,719.846 242.621,723.815 245.372 C 725.901 246.817,728.708 248.002,730.054 248.004 C 731.399 248.006,734.003 248.924,735.839 250.043 C 738.528 251.683,738.951 252.354,738.009 253.489 C 735.965 255.953,730.164 257.251,724.413 256.532 C 719.276 255.891,718.828 256.018,715.892 258.955 C 713.012 261.834,712.897 262.212,714.265 264.277 C 716.234 267.247,719.000 267.760,719.000 265.155 C 719.000 259.384,722.378 258.315,725.836 262.992 C 727.052 264.637,729.837 266.897,732.024 268.012 C 734.211 269.128,736.000 270.658,736.000 271.413 C 736.000 272.949,738.699 274.304,740.070 273.457 C 740.814 272.997,744.448 274.351,745.917 275.635 C 746.146 275.836,744.405 277.780,742.048 279.955 L 737.764 283.911 739.686 287.202 C 741.720 290.685,745.000 292.200,745.000 289.657 C 745.000 288.837,744.438 287.940,743.750 287.662 C 743.063 287.385,743.527 287.122,744.781 287.079 C 747.100 286.999,747.368 287.378,748.436 292.250 C 748.887 294.309,749.635 295.000,751.412 295.000 C 754.079 295.000,755.510 297.369,753.691 298.772 C 751.558 300.416,749.000 300.978,749.000 299.802 C 749.000 299.178,748.770 298.896,748.490 299.177 C 748.209 299.457,748.748 301.761,749.688 304.296 C 751.295 308.632,751.296 309.016,749.698 310.781 C 747.130 313.619,747.612 315.759,752.000 321.000 C 754.217 323.648,756.000 326.842,756.000 328.166 C 756.000 331.252,753.597 334.640,750.142 336.427 C 748.636 337.205,745.427 339.883,743.010 342.377 C 740.593 344.871,737.697 347.044,736.573 347.206 C 735.450 347.368,733.624 348.934,732.516 350.687 C 731.407 352.440,728.378 355.047,725.785 356.480 C 722.084 358.526,720.854 359.870,720.064 362.729 C 719.487 364.818,717.020 368.441,714.279 371.224 C 709.801 375.770,709.501 376.404,709.509 381.288 C 709.514 384.154,709.899 389.054,710.365 392.176 L 711.212 397.851 706.856 400.074 C 703.010 402.036,699.948 403.002,688.699 405.803 C 687.158 406.187,685.929 406.950,685.968 407.500 C 686.086 409.190,690.787 409.878,694.478 408.745 C 697.007 407.969,698.660 407.980,700.424 408.784 C 702.265 409.622,703.010 409.601,703.444 408.698 C 703.760 408.039,703.792 409.010,703.514 410.856 C 702.182 419.690,697.988 422.013,688.046 419.424 C 681.242 417.652,680.931 417.655,681.638 419.500 C 681.955 420.325,683.335 421.000,684.706 421.000 C 693.777 421.000,698.858 430.798,690.500 432.171 C 688.820 432.447,688.524 431.980,688.647 429.250 C 688.748 427.031,688.342 426.000,687.366 426.000 C 685.821 426.000,684.783 427.969,684.609 431.230 C 684.489 433.492,682.977 434.567,678.616 435.493 C 675.767 436.098,675.738 436.175,676.302 441.637 L 676.873 447.169 671.186 449.777 C 668.059 451.212,664.516 452.307,663.313 452.209 C 661.138 452.034,661.139 452.047,663.563 454.662 C 666.381 457.703,666.594 458.835,664.500 459.638 C 662.120 460.552,662.753 461.839,665.750 462.184 C 668.714 462.525,668.708 462.483,667.039 470.393 C 665.640 477.024,664.299 478.580,661.873 476.385 C 660.611 475.243,660.206 473.899,660.586 472.110 L 661.139 469.500 659.070 471.861 C 657.931 473.159,657.000 474.863,657.000 475.646 C 657.000 476.430,655.007 477.926,652.570 478.970 C 646.966 481.372,646.120 483.026,646.245 491.326 C 646.305 495.275,645.863 498.537,645.174 499.226 C 644.528 499.872,644.000 502.060,644.000 504.089 C 644.000 506.299,643.208 508.725,642.025 510.139 L 640.050 512.500 636.563 508.500 C 634.644 506.300,633.058 503.712,633.038 502.750 C 632.984 500.240,629.398 497.000,626.674 497.000 C 625.395 497.000,623.292 498.125,622.000 499.500 C 620.708 500.875,619.081 502.000,618.385 502.000 C 617.688 502.000,616.810 502.498,616.434 503.107 C 615.957 503.878,616.711 504.003,618.916 503.519 C 621.128 503.033,622.840 503.320,624.602 504.475 C 628.476 507.013,627.374 509.876,620.780 514.403 L 615.059 518.330 610.996 516.498 C 606.322 514.391,605.282 514.980,604.821 520.000 L 604.500 523.500 599.750 523.167 C 595.763 522.888,595.000 523.117,595.000 524.589 C 595.000 526.729,597.814 530.000,599.655 530.000 C 600.395 530.000,601.000 530.440,601.000 530.977 C 601.000 532.559,596.505 535.044,592.456 535.701 C 587.971 536.429,586.000 534.477,586.000 529.309 C 586.000 525.778,586.947 524.632,593.750 519.927 C 596.801 517.817,598.000 516.294,598.000 514.529 C 598.000 513.176,599.286 510.591,600.857 508.785 C 602.839 506.506,603.874 504.038,604.237 500.727 C 604.547 497.898,605.826 494.415,607.380 492.174 C 608.821 490.094,610.000 487.465,610.000 486.331 C 610.000 485.197,610.836 483.197,611.859 481.885 C 612.881 480.573,614.467 478.039,615.383 476.253 C 616.346 474.375,618.456 472.419,620.388 471.611 C 622.670 470.658,623.955 469.314,624.442 467.373 C 625.820 461.886,629.943 454.101,632.077 452.959 C 633.790 452.042,634.538 452.110,635.714 453.286 C 637.988 455.559,635.655 459.358,632.371 458.731 C 630.536 458.380,629.969 458.670,630.118 459.881 C 630.371 461.928,629.185 466.939,627.883 469.327 C 627.038 470.876,627.228 471.104,629.134 470.827 C 630.711 470.598,631.632 469.530,632.219 467.250 C 633.156 463.617,635.288 463.045,638.171 465.655 C 640.527 467.787,640.496 471.605,638.086 476.100 C 636.439 479.173,636.320 480.357,637.227 484.586 C 638.189 489.066,638.373 489.298,639.308 487.217 C 640.016 485.643,640.008 484.608,639.283 483.883 C 636.274 480.874,642.214 476.403,646.043 478.795 C 647.001 479.393,648.058 479.609,648.392 479.274 C 649.843 477.824,648.753 475.787,645.500 473.867 C 641.050 471.242,640.717 468.559,644.956 469.490 L 647.911 470.139 643.467 465.320 C 641.023 462.669,639.166 460.050,639.340 459.500 C 639.515 458.950,640.747 457.944,642.079 457.265 C 643.411 456.585,644.010 456.023,643.411 456.015 C 641.648 455.991,640.084 451.602,641.156 449.686 C 642.733 446.868,646.821 447.668,650.435 451.500 C 652.251 453.425,654.246 455.000,654.868 455.000 C 656.319 455.000,656.349 451.334,654.906 450.442 C 654.304 450.070,653.997 448.796,654.223 447.612 C 654.661 445.322,653.776 445.142,641.202 444.972 C 633.819 444.872,634.381 440.401,642.066 438.098 C 645.165 437.170,646.478 436.102,647.490 433.687 C 648.225 431.934,649.990 429.409,651.413 428.076 C 654.942 424.769,654.662 422.588,650.386 420.065 L 646.771 417.933 647.183 411.716 C 647.490 407.084,648.287 404.463,650.309 401.433 C 652.423 398.266,652.883 396.664,652.388 394.189 C 652.038 392.442,652.210 389.772,652.769 388.256 C 655.416 381.082,656.226 374.407,655.113 368.948 C 653.859 362.795,655.481 355.308,658.881 351.552 C 660.119 350.185,660.933 347.292,661.319 342.885 C 661.820 337.177,661.627 335.977,659.911 334.135 C 658.817 332.961,656.905 332.000,655.662 332.000 C 654.010 332.000,653.079 331.107,652.201 328.679 C 650.588 324.219,650.576 324.252,654.009 323.498 C 657.636 322.701,657.000 321.000,653.074 321.000 C 650.908 321.000,649.664 320.090,647.633 317.021 C 644.582 312.411,644.459 311.231,646.513 306.314 C 648.199 302.280,648.025 301.781,644.882 301.615 C 643.271 301.530,642.346 300.454,641.348 297.500 C 640.605 295.300,639.473 292.491,638.834 291.259 C 637.950 289.555,637.951 288.404,638.836 286.461 C 640.492 282.827,640.279 281.000,638.200 281.000 C 635.560 281.000,634.000 279.002,634.000 275.621 C 634.000 273.494,632.999 271.725,630.500 269.436 C 628.560 267.659,627.000 265.263,627.000 264.060 C 627.000 260.803,623.422 253.671,621.070 252.242 C 619.932 251.549,619.000 250.071,619.000 248.956 C 619.000 247.518,617.742 246.390,614.668 245.072 C 611.098 243.542,609.277 241.634,604.318 234.233 C 601.008 229.294,597.310 223.206,596.100 220.706 C 594.595 217.598,592.985 215.842,591.008 215.153 C 589.409 214.595,587.025 212.416,585.677 210.280 C 583.311 206.533,576.665 200.001,575.215 199.999 C 574.822 199.998,573.150 198.830,571.500 197.403 C 569.850 195.975,566.709 193.889,564.520 192.766 C 560.117 190.508,555.863 187.341,545.693 178.750 C 541.949 175.588,538.412 173.000,537.832 173.000 C 537.252 173.000,534.494 171.088,531.704 168.750 C 527.528 165.252,525.380 164.261,519.565 163.149 C 515.679 162.407,511.375 161.795,510.000 161.790 C 506.273 161.777,497.973 160.055,494.000 158.471 C 492.075 157.703,488.475 156.572,486.000 155.957 C 483.525 155.342,480.012 153.975,478.193 152.919 C 472.525 149.630,469.000 150.690,469.000 155.685 C 469.000 156.521,471.588 160.245,474.750 163.960 C 477.913 167.675,480.986 171.546,481.581 172.563 C 482.395 173.955,483.662 174.352,486.711 174.172 C 490.917 173.924,492.595 175.420,491.001 177.999 C 490.337 179.073,489.570 179.025,486.843 177.735 C 482.376 175.622,477.170 174.400,478.500 175.777 C 480.281 177.620,487.419 181.290,490.494 181.943 C 492.382 182.345,493.619 183.303,493.844 184.540 C 494.040 185.618,495.110 187.488,496.222 188.695 C 497.611 190.202,498.055 191.645,497.638 193.304 C 497.219 194.976,497.621 196.252,498.945 197.451 C 499.998 198.403,501.605 200.754,502.517 202.676 C 503.429 204.598,505.624 207.026,507.395 208.071 C 510.791 210.074,514.049 215.054,516.490 221.972 C 517.297 224.260,518.887 227.437,520.023 229.032 C 524.920 235.909,526.097 247.253,522.597 253.832 C 519.549 259.562,518.787 262.733,519.939 264.886 C 521.583 267.957,522.209 280.837,520.907 284.783 C 519.961 287.649,519.395 288.118,517.355 287.728 C 514.749 287.229,513.000 289.271,513.000 292.812 C 513.000 293.881,512.380 295.270,511.622 295.899 C 510.533 296.803,510.117 296.567,509.636 294.771 C 509.301 293.522,509.021 291.493,509.014 290.263 C 509.004 288.745,507.703 287.207,504.969 285.480 C 502.200 283.732,500.751 282.006,500.344 279.968 C 500.017 278.335,499.383 277.000,498.934 277.000 C 497.189 277.000,497.000 279.064,498.431 282.489 C 499.524 285.105,499.661 286.762,498.941 288.656 C 498.151 290.732,498.308 291.514,499.728 292.592 C 500.703 293.331,501.776 293.951,502.114 293.968 C 502.452 293.986,503.973 295.796,505.494 297.991 C 508.086 301.732,508.217 302.418,507.578 308.908 C 507.071 314.051,507.321 317.296,508.550 321.523 C 509.687 325.434,510.001 328.834,509.556 332.398 C 509.000 336.851,509.279 338.248,511.534 342.282 C 512.979 344.867,514.574 347.237,515.080 347.550 C 515.586 347.862,516.000 349.632,516.000 351.481 C 516.000 354.422,516.429 354.986,519.412 355.971 C 522.692 357.053,524.516 359.151,523.264 360.402 C 522.253 361.413,519.843 361.063,520.500 360.000 C 520.840 359.450,520.443 359.000,519.618 359.000 C 516.857 359.000,516.757 361.137,519.391 363.886 C 521.319 365.898,522.000 367.659,522.000 370.629 C 522.000 374.239,521.310 375.359,515.231 381.622 C 509.821 387.196,508.079 389.789,506.553 394.547 C 504.687 400.360,501.165 405.000,498.619 405.000 C 497.920 405.000,496.321 406.093,495.066 407.430 C 492.877 409.760,492.850 409.992,494.392 413.083 C 496.387 417.084,496.410 418.986,494.505 422.636 C 493.683 424.211,492.759 427.075,492.452 429.000 C 490.653 440.272,486.982 446.449,486.173 439.566 C 485.976 437.885,486.245 437.033,486.854 437.410 C 487.408 437.752,488.144 437.575,488.490 437.016 C 488.835 436.457,488.683 436.000,488.152 436.000 C 486.475 436.000,473.000 422.523,473.000 420.846 C 473.000 417.771,470.445 416.701,466.289 418.036 C 458.756 420.455,456.403 424.646,460.221 428.844 C 462.940 431.833,465.500 440.848,464.514 443.956 C 463.783 446.259,459.811 446.769,458.324 444.750 C 457.818 444.063,456.600 440.350,455.619 436.500 C 453.617 428.646,451.784 426.000,448.345 426.000 C 445.758 426.000,445.438 427.081,447.103 430.192 C 447.905 431.692,447.906 432.910,447.106 434.667 C 445.775 437.588,447.655 441.066,451.514 442.824 C 452.881 443.447,454.000 444.572,454.000 445.324 C 454.000 447.311,450.656 450.024,449.266 449.164 C 447.270 447.931,444.044 439.547,444.659 437.194 C 444.977 435.982,444.640 434.271,443.911 433.393 C 441.066 429.965,426.482 434.695,424.576 439.664 C 423.704 441.934,424.975 445.774,426.840 446.509 C 428.211 447.048,428.045 447.365,425.887 448.331 C 424.450 448.974,421.750 451.264,419.887 453.421 C 416.734 457.070,416.517 457.771,416.742 463.555 C 416.913 467.960,416.567 470.114,415.554 470.955 C 414.393 471.918,413.831 471.573,412.562 469.120 C 411.703 467.459,411.000 465.109,411.000 463.899 C 411.000 458.947,407.632 445.452,406.121 444.346 C 404.755 443.348,404.335 443.786,403.253 447.338 C 401.656 452.579,401.323 460.014,402.391 466.601 C 403.105 471.003,402.978 471.794,401.466 472.375 C 399.052 473.301,398.783 472.832,397.859 466.075 C 397.413 462.814,396.110 457.435,394.963 454.122 C 393.379 449.545,393.132 447.622,393.935 446.121 C 395.256 443.653,394.401 441.262,391.917 440.474 C 388.104 439.264,386.862 442.409,389.161 447.453 C 389.954 449.195,390.011 450.711,389.340 452.250 C 388.304 454.626,389.035 465.558,390.996 477.000 C 391.609 480.575,392.291 485.525,392.512 488.000 C 392.838 491.637,392.568 491.115,391.105 485.281 C 390.110 481.310,388.764 477.420,388.114 476.637 C 387.464 475.854,386.598 473.257,386.190 470.865 C 385.318 465.756,383.170 464.803,381.000 468.561 C 380.046 470.214,377.317 472.039,373.500 473.575 C 364.349 477.259,363.437 477.015,361.502 470.360 C 359.165 462.318,357.560 460.369,350.506 457.003 C 345.891 454.800,343.923 453.227,343.003 451.008 C 341.996 448.575,342.007 447.696,343.064 446.423 C 344.147 445.118,344.125 444.692,342.936 443.939 C 341.000 442.714,339.265 442.775,335.312 444.204 C 332.339 445.279,331.417 445.123,326.718 442.743 C 321.949 440.329,320.761 440.136,314.079 440.697 L 306.704 441.315 307.360 438.702 C 307.721 437.264,308.474 434.884,309.033 433.412 C 309.986 430.907,310.166 430.840,311.854 432.368 C 316.170 436.274,315.276 432.169,310.763 427.357 C 308.194 424.618,307.968 423.929,309.004 421.993 C 310.547 419.109,309.536 412.362,306.981 408.485 C 305.821 406.726,305.010 403.789,305.007 401.333 C 305.001 397.937,305.508 396.797,307.748 395.165 C 311.110 392.716,310.049 391.083,306.575 393.359 C 304.097 394.982,304.086 394.975,303.494 391.244 C 303.166 389.185,302.022 385.575,300.949 383.223 C 299.877 380.871,299.000 378.002,299.000 376.848 C 299.000 375.694,297.843 372.172,296.429 369.021 C 294.243 364.149,293.311 363.124,290.204 362.171 C 288.195 361.554,286.198 361.402,285.766 361.834 C 285.334 362.266,284.897 368.267,284.795 375.170 L 284.608 387.722 288.804 392.992 C 291.112 395.890,293.000 399.132,293.000 400.196 C 293.000 401.261,293.466 403.002,294.035 404.066 C 294.930 405.737,294.732 406.000,292.581 406.000 C 291.211 406.000,288.935 404.844,287.522 403.431 C 284.723 400.633,282.314 400.548,280.649 403.191 C 279.835 404.485,280.015 405.359,281.413 406.904 C 282.419 408.016,282.990 409.583,282.681 410.388 C 282.219 411.593,281.451 411.655,278.310 410.743 C 273.679 409.398,272.000 408.217,272.000 406.306 C 272.000 405.509,271.325 404.182,270.500 403.357 C 268.532 401.389,268.561 393.983,270.557 389.218 C 271.598 386.731,271.917 384.010,271.520 381.000 C 270.960 376.754,269.862 362.263,269.852 359.000 C 269.843 355.703,271.993 352.000,273.916 352.000 C 274.997 352.000,276.160 352.450,276.500 353.000 C 277.701 354.943,280.961 353.977,282.405 351.250 C 283.206 349.738,285.489 347.226,287.478 345.669 C 290.953 342.950,291.083 342.621,290.798 337.276 L 290.500 331.712 286.283 330.471 C 280.981 328.911,279.300 329.999,278.438 335.548 C 277.964 338.600,278.202 339.923,279.404 340.921 C 283.720 344.502,279.858 346.000,271.645 343.932 C 268.224 343.071,266.902 342.034,264.812 338.575 C 263.387 336.216,261.913 332.883,261.537 331.168 C 261.108 329.217,259.340 326.853,256.808 324.848 C 252.790 321.666,252.768 321.611,253.470 316.572 C 254.538 308.912,254.349 307.956,251.103 304.600 L 248.105 301.500 249.129 290.500 C 250.005 281.092,250.468 279.254,252.327 277.802 C 257.810 273.517,258.053 273.079,257.914 267.725 C 257.747 261.303,258.820 258.547,263.308 253.857 C 265.225 251.853,267.091 248.862,267.454 247.210 C 267.817 245.559,268.934 243.464,269.938 242.556 C 271.575 241.074,271.919 241.062,273.292 242.435 C 274.133 243.276,275.025 244.535,275.274 245.232 C 275.971 247.185,276.706 245.897,277.443 241.431 C 277.974 238.213,277.709 236.862,276.172 234.964 C 274.466 232.857,274.023 232.736,272.538 233.968 C 271.085 235.174,270.720 235.170,269.939 233.936 C 268.599 231.818,268.733 231.380,271.823 227.785 C 274.176 225.047,274.663 223.537,274.747 218.718 C 274.872 211.582,278.313 205.145,284.023 201.366 C 286.175 199.942,288.205 197.931,288.533 196.897 C 289.367 194.268,300.442 185.958,305.380 184.257 C 307.637 183.479,309.938 182.488,310.492 182.054 C 311.046 181.620,313.857 180.496,316.737 179.556 C 319.618 178.617,322.813 176.782,323.837 175.480 C 328.422 169.651,340.136 163.000,345.819 163.000 C 347.057 163.000,349.184 163.730,350.546 164.622 C 352.884 166.154,353.216 166.113,356.559 163.872 C 358.505 162.567,361.619 159.405,363.479 156.845 C 365.900 153.512,367.803 151.986,370.180 151.474 C 374.330 150.580,379.000 148.238,379.000 147.051 C 379.000 146.557,377.835 144.769,376.411 143.077 C 373.365 139.457,369.965 139.096,366.273 142.000 C 363.813 143.935,360.916 144.582,359.783 143.450 C 359.481 143.147,359.583 141.347,360.011 139.450 C 360.439 137.552,360.417 136.000,359.962 136.000 C 359.506 136.000,357.475 138.025,355.446 140.500 C 353.418 142.975,351.140 145.000,350.384 145.000 C 349.627 145.000,346.217 145.966,342.807 147.146 L 336.606 149.292 335.203 147.179 C 334.023 145.402,333.134 145.157,329.613 145.640 C 325.681 146.179,325.199 145.963,321.713 142.104 C 315.749 135.503,316.824 130.368,324.631 128.159 C 329.256 126.851,331.505 124.759,330.659 122.553 C 329.786 120.279,321.967 115.000,319.472 115.000 C 316.487 115.000,314.560 117.391,315.783 119.576 C 316.422 120.718,316.947 120.895,317.421 120.128 C 318.284 118.732,322.659 118.639,323.500 120.000 C 323.850 120.566,323.022 121.000,321.594 121.000 C 320.205 121.000,317.532 122.350,315.653 124.000 C 311.613 127.547,307.846 127.846,304.856 124.856 L 302.712 122.712 303.227 125.405 C 303.558 127.139,303.101 128.882,301.945 130.299 C 300.284 132.334,300.096 132.366,299.453 130.713 C 299.013 129.583,299.446 128.165,300.629 126.858 C 301.945 125.403,302.500 123.269,302.500 119.658 C 302.500 114.938,302.740 114.414,305.500 113.113 C 307.150 112.335,308.827 111.150,309.226 110.480 C 310.753 107.920,315.656 106.731,319.482 107.994 C 321.462 108.648,323.763 108.921,324.596 108.602 C 325.428 108.282,329.082 107.546,332.715 106.966 C 338.469 106.046,339.826 105.390,343.233 101.879 C 346.924 98.076,347.379 97.888,351.300 98.551 C 355.048 99.184,355.324 99.095,354.115 97.639 C 352.346 95.507,353.399 93.000,356.064 93.000 C 357.234 93.000,359.515 92.057,361.133 90.905 C 363.396 89.294,363.923 88.314,363.415 86.655 C 361.981 81.971,360.730 81.637,358.788 85.421 C 357.778 87.390,356.550 89.000,356.058 89.000 C 355.566 89.000,354.482 89.261,353.649 89.581 C 352.636 89.970,351.586 89.099,350.473 86.948 C 348.939 83.981,348.934 83.297,350.406 78.051 C 351.282 74.926,352.000 70.719,352.000 68.703 C 352.000 65.705,352.409 64.955,354.250 64.580 C 355.488 64.328,357.850 63.837,359.500 63.489 C 361.150 63.142,364.075 62.605,366.000 62.296 C 369.572 61.723,378.000 56.616,378.000 55.025 C 378.000 54.541,376.822 53.219,375.383 52.086 C 371.598 49.109,374.645 48.268,379.760 50.878 C 384.820 53.459,386.794 57.668,384.989 62.026 C 383.905 64.643,383.977 65.317,385.523 67.026 C 386.947 68.599,388.608 69.000,393.705 69.000 C 401.014 69.000,405.119 70.707,407.517 74.745 C 408.606 76.578,411.051 78.209,414.827 79.620 C 419.759 81.463,422.328 81.710,434.500 81.509 C 442.200 81.382,450.750 80.953,453.500 80.554 C 456.960 80.053,459.886 80.286,463.000 81.311 C 476.877 85.878,485.447 86.020,491.106 81.777 C 492.973 80.377,495.625 78.897,497.000 78.487 C 498.375 78.077,501.975 76.472,505.000 74.920 C 508.025 73.368,513.771 71.423,517.768 70.599 C 522.242 69.676,527.241 67.762,530.768 65.621 C 533.921 63.707,540.679 60.763,545.786 59.078 C 556.023 55.700,560.480 53.667,563.500 50.998 C 565.574 49.165,578.646 43.083,580.626 43.030 C 581.245 43.014,584.358 44.153,587.544 45.562 M403.500 80.137 C 402.400 80.729,400.600 82.204,399.500 83.414 C 398.203 84.841,395.255 86.058,391.111 86.875 C 387.597 87.568,383.690 88.812,382.428 89.639 C 380.776 90.722,378.882 90.955,375.662 90.472 L 371.191 89.801 374.345 86.958 C 376.961 84.600,377.311 83.805,376.391 82.307 C 375.781 81.313,374.206 80.500,372.891 80.500 C 370.795 80.500,370.462 81.021,370.193 84.732 C 369.912 88.621,370.264 89.331,374.535 93.482 C 377.092 95.967,379.581 98.000,380.066 98.000 C 380.551 98.000,381.619 96.705,382.437 95.121 C 383.977 92.145,385.809 91.000,389.035 91.000 C 392.333 91.000,396.030 93.273,396.632 95.671 C 397.281 98.256,398.047 98.553,399.727 96.873 C 400.494 96.106,400.551 94.949,399.905 93.251 C 398.636 89.912,400.191 88.192,404.826 87.806 C 408.434 87.506,408.500 87.423,408.500 83.251 C 408.500 78.715,407.407 78.034,403.500 80.137 M323.771 93.466 C 325.822 94.822,329.075 96.461,331.000 97.108 C 336.830 99.066,340.027 103.036,336.750 104.249 C 336.063 104.503,331.739 104.428,327.143 104.082 C 319.629 103.516,318.545 103.172,316.393 100.671 C 313.406 97.198,313.351 94.568,316.223 92.557 C 319.117 90.530,319.379 90.561,323.771 93.466 M293.182 96.812 L 296.863 98.555 293.456 100.890 C 291.582 102.174,289.491 104.765,288.811 106.647 C 287.471 110.351,284.730 111.651,280.500 110.589 C 278.413 110.065,278.000 109.368,278.000 106.363 C 278.000 103.516,278.811 101.954,281.882 98.882 C 286.199 94.566,287.814 94.269,293.182 96.812 M284.408 126.054 C 286.321 127.733,289.518 129.372,291.513 129.696 C 293.781 130.064,295.719 131.168,296.685 132.642 C 298.462 135.354,300.659 135.587,305.473 133.576 C 308.475 132.322,309.034 132.336,310.161 133.694 C 311.238 134.992,311.000 135.588,308.665 137.450 C 306.188 139.425,306.059 139.804,307.470 140.975 C 308.904 142.165,308.886 142.468,307.278 144.246 C 306.303 145.323,304.292 146.832,302.810 147.598 C 300.625 148.728,300.057 149.797,299.808 153.246 C 299.535 157.016,299.220 157.500,297.038 157.500 C 295.338 157.500,294.101 156.599,293.038 154.587 C 291.002 150.730,285.939 146.066,283.750 146.029 C 282.385 146.006,282.000 146.836,282.000 149.800 C 282.000 154.145,280.597 156.000,277.311 156.000 C 270.701 156.000,253.158 145.444,253.054 141.405 C 252.992 138.997,256.393 135.533,258.840 135.513 C 259.772 135.506,260.503 134.700,260.508 133.675 C 260.512 132.672,261.242 131.444,262.131 130.946 C 263.861 129.978,275.995 130.104,275.998 131.089 C 275.999 131.414,277.125 132.192,278.500 132.818 C 280.429 133.697,280.993 133.676,280.968 132.729 C 280.929 131.224,278.472 127.861,277.860 128.474 C 277.616 128.717,277.435 127.585,277.456 125.958 C 277.508 122.041,279.875 122.073,284.408 126.054 M513.139 172.448 C 516.197 173.245,520.859 175.045,523.498 176.448 C 526.138 177.852,528.843 179.000,529.509 179.000 C 530.176 179.000,532.471 180.193,534.610 181.651 C 536.750 183.109,540.750 185.508,543.500 186.983 C 561.608 196.695,563.701 198.294,576.085 211.882 C 586.162 222.938,589.239 226.838,596.696 238.000 C 599.819 242.675,603.390 247.625,604.631 249.000 C 605.873 250.375,608.306 254.200,610.039 257.500 C 611.773 260.800,614.535 265.207,616.178 267.294 C 617.821 269.381,619.551 272.306,620.022 273.794 C 620.494 275.282,622.974 281.900,625.532 288.500 C 628.090 295.100,630.517 302.075,630.924 304.000 C 631.331 305.925,632.615 310.875,633.777 315.000 C 638.366 331.288,639.960 340.897,640.968 358.347 C 641.534 368.163,641.732 376.625,641.406 377.153 C 641.080 377.680,639.975 384.049,638.951 391.306 C 636.921 405.683,636.404 407.976,631.380 424.857 C 629.521 431.103,627.990 436.953,627.978 437.857 C 627.966 438.761,627.076 440.625,626.000 442.000 C 624.924 443.375,624.034 444.930,624.022 445.456 C 624.010 445.982,621.587 451.157,618.637 456.956 C 615.688 462.755,612.692 469.300,611.979 471.500 C 610.630 475.665,606.580 483.570,599.683 495.500 C 597.458 499.350,591.750 506.550,586.999 511.500 C 582.248 516.450,577.717 521.411,576.931 522.524 C 573.921 526.782,552.857 544.409,541.926 551.817 C 527.944 561.294,520.809 565.347,512.710 568.414 C 509.295 569.707,502.692 572.394,498.038 574.383 C 493.383 576.372,489.108 578.003,488.538 578.006 C 487.967 578.010,486.249 578.665,484.720 579.462 C 476.244 583.883,448.333 587.996,436.295 586.598 C 432.904 586.204,429.593 586.496,426.795 587.436 C 422.295 588.948,404.578 589.093,402.222 587.637 C 401.544 587.218,393.308 586.228,383.920 585.436 C 369.046 584.182,366.304 583.676,362.595 581.503 C 360.254 580.131,356.260 578.723,353.719 578.375 C 351.117 578.018,348.106 576.816,346.823 575.621 C 345.571 574.454,344.311 573.461,344.023 573.414 C 343.463 573.321,341.558 572.625,336.000 570.480 C 334.075 569.737,330.700 568.597,328.500 567.946 C 318.085 564.867,299.037 555.128,298.875 552.800 C 298.588 548.674,298.426 548.502,295.080 548.774 C 290.722 549.127,288.461 547.085,284.810 539.500 C 279.474 528.412,273.674 521.730,269.111 521.415 C 267.481 521.302,265.659 520.908,265.062 520.539 C 263.775 519.743,257.959 510.651,256.265 506.787 C 255.611 505.294,253.157 502.861,250.810 501.380 C 244.838 497.610,244.228 496.820,244.701 493.463 C 245.129 490.422,244.415 489.109,234.940 475.500 C 232.643 472.200,230.194 467.925,229.498 466.000 C 228.802 464.075,226.155 459.146,223.616 455.046 C 221.077 450.946,219.000 447.190,219.000 446.699 C 219.000 446.209,217.307 443.884,215.239 441.534 C 211.561 437.356,207.048 425.481,206.968 419.771 C 206.951 418.522,206.276 416.626,205.468 415.559 C 204.600 414.410,203.986 411.348,203.965 408.059 C 203.945 405.001,203.286 401.375,202.500 400.000 C 201.707 398.613,201.055 394.792,201.035 391.417 C 201.016 388.071,200.508 382.886,199.908 379.894 C 199.040 375.576,199.143 372.552,200.408 365.227 C 201.283 360.152,202.000 352.827,202.000 348.950 C 202.000 344.703,202.585 340.770,203.470 339.057 C 204.904 336.284,206.376 328.156,207.826 315.000 C 208.220 311.425,209.356 307.287,210.350 305.805 C 211.780 303.673,212.026 302.003,211.528 297.805 C 210.940 292.856,211.135 292.172,214.430 287.600 C 217.041 283.979,217.805 282.071,217.357 280.288 C 217.025 278.962,217.448 276.217,218.298 274.188 C 219.148 272.160,220.427 267.665,221.139 264.200 C 222.184 259.121,223.362 256.802,227.217 252.243 C 229.848 249.132,232.001 246.117,232.003 245.543 C 232.004 244.969,233.497 242.025,235.319 239.000 C 237.142 235.975,239.164 231.976,239.812 230.113 C 240.461 228.251,241.761 226.164,242.702 225.476 C 243.642 224.788,246.007 220.912,247.956 216.863 C 251.284 209.949,251.921 209.258,258.410 205.536 C 262.503 203.188,266.070 200.301,267.158 198.457 C 268.169 196.744,271.134 193.818,273.748 191.956 C 281.855 186.178,284.206 183.556,284.380 180.095 C 284.558 176.568,285.753 175.484,291.100 174.002 C 293.903 173.225,295.398 173.352,297.850 174.575 C 302.339 176.814,301.828 178.763,296.395 180.131 C 286.103 182.722,271.981 201.764,266.457 220.500 C 265.403 224.076,263.670 227.380,262.167 228.679 C 260.261 230.326,259.082 233.203,257.333 240.473 C 256.060 245.762,253.440 253.507,251.510 257.685 C 249.579 261.863,248.000 266.125,248.000 267.156 C 248.000 268.187,246.701 271.386,245.114 274.265 C 243.313 277.533,241.984 281.751,241.577 285.491 C 241.219 288.786,239.810 293.919,238.447 296.897 C 235.772 302.740,235.820 305.766,238.714 313.720 C 239.558 316.041,239.993 318.920,239.679 320.118 C 239.361 321.334,239.926 323.884,240.958 325.898 C 241.975 327.879,243.597 331.975,244.563 335.000 C 245.529 338.025,247.797 342.161,249.603 344.190 C 255.936 351.306,258.611 359.737,257.616 369.445 C 257.105 374.436,257.336 376.638,258.668 379.429 C 260.182 382.606,260.224 383.600,259.039 388.226 C 258.303 391.095,256.871 394.805,255.855 396.471 C 254.839 398.137,254.006 400.654,254.004 402.065 C 253.999 405.390,264.263 425.608,267.932 429.500 C 269.487 431.150,271.261 433.476,271.872 434.670 C 272.484 435.863,274.536 437.352,276.431 437.977 C 279.074 438.850,279.951 439.743,280.189 441.807 C 280.454 444.099,280.946 444.480,283.500 444.368 C 285.150 444.295,287.455 443.920,288.623 443.535 C 290.477 442.922,290.836 443.320,291.452 446.667 C 292.524 452.487,295.453 458.468,300.446 465.034 C 302.929 468.299,305.590 472.440,306.359 474.236 C 308.361 478.914,313.783 484.523,319.000 487.314 C 324.162 490.076,326.996 494.653,326.998 500.230 C 327.000 503.912,332.713 519.553,337.524 529.048 C 338.886 531.735,340.000 535.239,340.000 536.834 C 340.000 539.036,341.509 541.296,346.267 546.221 C 353.314 553.516,356.498 555.461,363.000 556.444 C 365.475 556.818,369.863 558.049,372.750 559.178 C 377.850 561.174,378.000 561.345,378.000 565.182 C 378.000 570.694,379.207 572.416,384.710 574.757 C 395.821 579.484,405.979 579.687,420.500 575.473 C 423.250 574.675,428.200 573.347,431.500 572.523 C 434.800 571.699,440.650 570.118,444.500 569.010 C 451.655 566.950,457.538 565.613,464.323 564.506 C 466.996 564.070,469.890 562.321,473.943 558.691 C 477.132 555.836,485.045 550.125,491.528 546.000 C 502.899 538.765,512.979 530.207,516.262 525.000 C 517.129 523.625,518.154 519.800,518.540 516.500 C 518.926 513.200,519.862 508.983,520.621 507.128 C 521.379 505.273,522.006 502.348,522.013 500.628 C 522.020 498.908,522.975 494.575,524.135 491.000 C 525.811 485.837,526.271 481.757,526.372 471.166 C 526.497 458.143,526.443 457.786,524.043 455.839 C 521.688 453.927,521.532 453.919,520.269 455.647 C 519.544 456.638,518.010 460.610,516.859 464.472 C 514.419 472.668,508.197 480.000,503.684 480.000 C 501.277 480.000,501.084 479.648,500.802 474.750 L 500.500 469.500 493.151 468.767 C 489.109 468.364,484.008 468.438,481.815 468.930 C 477.856 469.820,477.831 469.806,478.429 467.163 C 479.000 464.636,478.954 464.598,477.528 466.424 C 475.570 468.930,474.619 474.181,475.384 478.257 C 477.287 488.393,477.296 488.949,475.578 489.608 C 474.523 490.013,472.964 489.375,471.385 487.892 C 468.148 484.851,461.215 470.269,460.386 464.758 C 460.014 462.288,458.694 459.370,457.243 457.810 C 454.302 454.648,454.833 452.000,458.410 452.000 C 461.489 452.000,461.884 452.645,462.999 459.492 C 465.466 474.654,470.500 473.988,470.500 458.500 L 470.500 452.500 479.967 452.186 C 490.827 451.826,492.000 452.526,492.000 459.362 C 492.000 463.949,494.239 467.000,497.605 467.000 C 498.868 467.000,500.311 467.733,500.812 468.628 C 501.435 469.742,501.944 469.900,502.421 469.128 C 503.608 467.208,505.000 467.882,505.000 470.378 C 505.000 471.685,505.655 473.298,506.454 473.962 C 508.785 475.897,506.696 469.825,503.284 464.747 C 499.882 459.684,497.494 454.173,498.337 453.329 C 498.671 452.996,499.382 453.874,499.917 455.281 C 501.148 458.518,503.893 460.128,506.137 458.927 C 508.819 457.491,510.963 450.174,511.242 441.500 L 511.500 433.500 506.000 433.767 C 502.975 433.914,499.488 433.793,498.250 433.498 C 492.368 432.096,499.119 421.691,508.643 417.479 C 512.173 415.918,514.374 414.178,515.450 412.096 C 517.069 408.965,523.404 405.000,526.786 405.000 C 529.325 405.000,532.640 408.816,533.456 412.681 C 534.304 416.694,536.139 418.233,539.585 417.822 C 541.720 417.568,542.895 416.340,545.158 412.000 C 547.780 406.970,547.973 405.898,547.414 399.453 C 546.961 394.225,547.203 391.450,548.352 388.699 C 550.894 382.617,551.534 373.601,549.619 370.867 C 547.391 367.686,547.583 365.929,550.500 362.783 C 553.346 359.714,553.652 357.244,551.532 354.441 C 550.724 353.374,550.049 351.039,550.032 349.254 C 550.014 347.469,549.016 343.194,547.813 339.754 C 546.610 336.314,545.552 330.800,545.461 327.500 C 545.247 319.655,543.354 307.551,541.900 304.731 C 541.267 303.504,539.006 300.208,536.875 297.408 C 534.744 294.607,533.000 291.882,533.000 291.352 C 533.000 290.822,531.875 288.864,530.500 287.000 C 528.261 283.965,528.000 282.653,528.000 274.431 C 528.000 268.802,528.584 263.597,529.509 260.973 C 531.320 255.840,531.478 248.446,530.293 224.123 L 529.398 205.745 526.284 203.123 C 524.572 201.680,521.398 199.314,519.233 197.865 C 516.134 195.791,515.049 194.251,514.139 190.639 C 513.396 187.686,511.380 184.243,508.492 180.991 C 505.750 177.904,504.000 174.972,504.000 173.467 C 504.000 170.534,505.255 170.395,513.139 172.448 M223.717 190.898 C 226.036 193.591,228.700 197.753,229.636 200.147 C 230.572 202.541,231.937 205.388,232.669 206.473 C 234.689 209.466,234.267 210.405,231.667 208.701 C 230.384 207.861,227.234 206.858,224.667 206.473 C 219.461 205.692,218.517 203.652,221.933 200.561 C 224.366 198.359,223.545 196.000,220.345 196.000 C 215.883 196.000,210.718 188.088,214.250 186.662 C 217.592 185.314,219.733 186.272,223.717 190.898 M212.610 203.765 C 213.221 204.169,214.482 205.986,215.413 207.801 C 216.343 209.617,217.749 211.350,218.537 211.653 C 221.660 212.851,227.252 218.900,226.661 220.440 C 225.811 222.655,223.831 222.397,216.621 219.128 C 210.722 216.453,210.114 216.360,207.769 217.783 C 205.185 219.351,202.000 218.908,202.000 216.980 C 202.000 216.385,203.620 215.221,205.601 214.393 C 209.003 212.972,209.165 212.695,208.541 209.369 C 207.672 204.737,209.752 201.874,212.610 203.765 M213.879 226.159 C 220.027 227.653,222.000 229.516,222.000 233.826 C 222.000 237.360,219.717 241.000,217.500 241.000 C 216.845 241.000,215.495 241.900,214.500 243.000 C 212.297 245.434,210.253 245.539,207.825 243.342 C 206.818 242.430,204.307 241.412,202.247 241.080 C 199.012 240.559,198.454 240.074,198.164 237.534 C 197.979 235.916,197.192 233.684,196.414 232.574 C 194.428 229.738,194.649 228.811,197.225 229.180 C 198.449 229.356,199.929 230.465,200.514 231.643 C 202.611 235.866,204.213 237.000,208.087 237.000 C 210.916 237.000,212.214 236.468,213.008 234.985 C 214.075 232.991,212.841 231.612,210.399 232.069 C 207.624 232.588,205.839 231.706,204.954 229.378 C 203.798 226.338,205.404 223.557,207.789 224.473 C 208.597 224.782,211.337 225.541,213.879 226.159 M172.930 237.250 C 172.806 242.984,171.692 244.481,167.398 244.687 C 165.254 244.790,161.813 245.177,159.750 245.547 C 155.513 246.306,155.050 245.397,158.039 242.189 C 159.544 240.573,161.238 240.000,164.508 240.000 C 168.034 240.000,168.820 239.694,168.362 238.500 C 167.469 236.173,168.727 234.000,170.969 234.000 C 172.608 234.000,172.986 234.627,172.930 237.250 M194.000 243.112 C 196.475 244.250,201.200 245.779,204.500 246.511 C 209.471 247.613,209.900 247.856,207.000 247.927 C 204.204 247.995,203.157 248.615,201.797 251.006 C 200.756 252.835,199.279 254.000,198.000 254.000 C 196.732 254.000,195.240 255.162,194.215 256.948 C 192.156 260.535,189.181 262.000,183.953 262.000 C 180.457 262.000,180.000 261.725,180.000 259.621 C 180.000 257.082,181.822 256.033,189.750 254.008 C 192.088 253.411,194.000 252.584,194.000 252.170 C 194.000 251.755,191.995 249.448,189.543 247.043 C 183.197 240.814,185.185 239.061,194.000 243.112 M707.160 284.240 C 704.907 286.493,705.945 288.931,710.049 291.025 C 712.276 292.161,714.368 293.858,714.700 294.795 C 715.736 297.729,727.827 308.018,730.191 307.978 C 731.012 307.964,730.755 307.312,729.500 306.228 C 724.670 302.055,722.020 298.195,721.435 294.477 C 720.418 288.014,716.529 285.307,712.933 288.560 C 711.079 290.238,710.987 290.187,710.376 287.130 C 709.633 283.417,708.764 282.636,707.160 284.240 M144.291 289.722 C 144.726 289.968,144.794 291.073,144.444 292.178 C 143.998 293.582,144.626 295.044,146.528 297.029 C 148.615 299.208,149.100 300.467,148.606 302.435 C 147.224 307.942,139.000 304.089,139.000 297.934 C 139.000 296.248,138.552 294.031,138.004 293.007 C 136.402 290.013,137.776 287.911,140.854 288.645 C 142.309 288.993,143.856 289.477,144.291 289.722 M467.500 294.028 C 463.170 294.674,443.683 304.661,438.000 309.147 C 436.075 310.666,432.866 312.589,430.870 313.418 C 423.575 316.450,420.030 323.743,423.467 328.650 C 424.274 329.802,425.423 332.939,426.021 335.622 C 428.509 346.791,431.170 353.919,433.078 354.525 C 434.127 354.858,437.308 356.967,440.149 359.212 C 444.775 362.869,445.438 363.122,446.516 361.647 C 448.058 359.539,449.297 359.566,451.274 361.750 C 453.010 363.668,453.000 363.632,453.000 368.129 C 453.000 370.621,454.139 372.352,458.590 376.629 C 461.664 379.583,464.353 382.000,464.565 382.000 C 464.955 382.000,467.632 376.174,469.950 370.283 C 471.841 365.475,473.618 364.344,475.956 366.460 C 478.124 368.423,480.000 367.775,480.000 365.063 C 480.000 361.942,482.726 360.458,486.111 361.736 L 489.062 362.850 488.419 359.421 C 487.820 356.228,488.012 355.893,491.201 354.561 C 496.061 352.530,502.729 344.962,503.560 340.534 C 503.936 338.528,503.942 334.550,503.574 331.694 C 503.205 328.837,502.671 323.575,502.386 320.000 C 501.638 310.587,495.025 297.329,490.034 295.234 C 486.306 293.669,474.241 293.023,467.500 294.028 M488.413 302.535 C 489.808 303.449,492.154 306.660,493.627 309.670 C 495.963 314.444,496.409 316.949,497.118 329.280 C 497.993 344.475,497.618 346.034,492.716 347.590 C 491.605 347.943,488.627 349.440,486.098 350.917 C 478.785 355.187,470.724 356.180,455.872 354.638 C 437.747 352.756,434.167 350.111,431.775 336.836 C 429.407 323.693,430.625 320.433,440.592 313.231 C 449.150 307.047,452.591 305.415,463.098 302.555 C 473.794 299.644,483.988 299.636,488.413 302.535 M702.378 309.458 C 701.335 312.176,702.543 314.501,705.797 316.038 C 708.683 317.401,710.991 319.981,713.815 325.000 C 719.611 335.303,719.873 337.660,715.483 340.009 C 712.931 341.375,712.166 343.000,714.076 343.000 C 714.667 343.000,716.130 341.809,717.326 340.354 C 718.522 338.899,720.737 336.389,722.250 334.777 C 725.543 331.267,725.662 330.345,722.931 329.478 C 720.200 328.611,717.012 323.260,716.988 319.500 C 716.966 315.901,716.248 314.694,713.167 313.070 C 711.237 312.053,710.532 312.114,709.086 313.422 C 707.054 315.261,706.000 314.584,706.000 311.440 C 706.000 308.867,703.194 307.332,702.378 309.458 M141.346 311.176 C 143.081 312.373,144.657 313.468,144.850 313.609 C 145.884 314.369,142.470 321.301,140.391 322.664 C 138.158 324.126,137.594 324.117,133.480 322.545 C 128.716 320.726,127.947 318.928,130.117 314.684 C 131.476 312.027,135.011 309.053,136.846 309.022 C 137.586 309.010,139.611 309.979,141.346 311.176 M156.996 312.495 C 157.678 313.317,157.991 314.927,157.691 316.074 C 157.257 317.732,157.489 318.013,158.823 317.450 C 163.094 315.649,165.027 315.845,168.050 318.389 C 171.641 321.410,174.550 321.659,179.375 319.358 C 183.684 317.304,185.554 317.997,187.671 322.436 C 188.643 324.475,190.709 326.583,192.627 327.493 C 194.435 328.351,196.121 329.386,196.372 329.793 C 196.944 330.718,194.419 340.745,192.870 343.698 C 192.236 344.907,190.020 346.575,187.944 347.406 C 185.868 348.236,183.878 349.388,183.522 349.965 C 182.493 351.630,185.878 352.377,188.676 351.102 C 192.858 349.196,194.061 351.067,193.336 358.351 C 192.542 366.333,191.624 368.000,188.024 368.000 C 183.773 368.000,183.410 369.727,187.317 371.359 C 190.301 372.606,190.793 373.340,191.357 377.389 C 191.711 379.925,192.271 383.918,192.603 386.262 C 193.080 389.630,192.790 391.038,191.222 392.974 L 189.238 395.425 192.123 400.962 C 194.679 405.871,194.888 406.925,193.961 410.235 C 193.203 412.941,193.232 414.565,194.067 416.126 C 194.782 417.462,194.972 420.150,194.568 423.199 C 193.957 427.804,194.116 428.306,197.051 431.048 C 199.966 433.771,200.162 434.376,199.843 439.673 C 199.507 445.261,199.557 445.385,202.500 446.196 C 207.315 447.524,208.952 449.397,210.523 455.377 C 211.335 458.470,212.659 463.509,213.465 466.575 C 214.270 469.641,215.845 473.632,216.965 475.443 C 218.084 477.254,219.000 479.820,219.000 481.145 C 219.000 482.470,220.688 485.881,222.750 488.726 C 228.738 496.985,230.737 500.132,233.871 506.237 C 235.490 509.392,238.227 513.162,239.952 514.613 C 241.677 516.064,243.977 518.994,245.063 521.123 C 246.149 523.253,248.717 526.122,250.769 527.500 C 252.821 528.877,256.210 531.148,258.301 532.547 C 260.391 533.945,263.861 537.881,266.011 541.294 C 272.187 551.096,272.917 551.943,275.790 552.639 C 277.280 553.000,281.352 555.002,284.837 557.087 C 288.322 559.173,292.576 561.187,294.291 561.564 C 296.181 561.979,299.700 564.540,303.229 568.069 C 306.431 571.271,308.816 573.512,308.531 573.050 C 307.589 571.527,310.428 571.249,315.003 572.416 C 317.620 573.084,322.355 575.750,326.312 578.783 C 330.056 581.652,333.531 584.000,334.034 584.000 C 334.537 584.000,335.647 585.350,336.500 587.000 C 337.961 589.826,337.941 590.000,336.148 590.000 C 335.101 590.000,333.651 589.284,332.925 588.410 C 331.725 586.964,331.487 586.981,330.303 588.601 C 328.495 591.074,328.658 591.758,331.250 592.572 C 332.488 592.960,334.491 594.340,335.702 595.639 C 336.913 596.938,338.466 598.000,339.152 598.000 C 340.123 598.000,340.133 597.733,339.200 596.800 C 337.302 594.902,337.786 592.487,340.636 589.636 C 344.018 586.255,345.758 586.318,350.850 590.006 C 354.150 592.397,355.000 593.636,355.000 596.057 C 355.000 598.592,354.413 599.347,351.500 600.564 C 347.840 602.094,347.016 603.685,349.410 604.604 C 351.093 605.250,356.571 602.587,357.700 600.574 C 358.140 599.790,360.286 597.936,362.469 596.455 C 366.375 593.806,366.512 593.788,370.969 595.320 C 373.461 596.177,379.084 597.830,383.465 598.995 C 391.667 601.175,394.384 602.570,393.430 604.113 C 392.542 605.549,393.998 605.135,396.846 603.142 C 398.843 601.744,402.225 601.112,410.500 600.589 C 416.550 600.207,424.200 599.511,427.500 599.043 C 443.995 596.701,445.000 596.653,445.000 598.202 C 445.000 599.412,445.869 599.540,449.750 598.901 C 452.363 598.471,456.776 598.092,459.559 598.060 C 462.371 598.026,465.480 597.348,466.559 596.532 C 467.626 595.724,469.850 595.042,471.500 595.015 C 478.850 594.895,499.000 587.471,499.000 584.884 C 499.000 583.688,504.525 581.000,506.984 581.000 C 508.129 581.000,511.189 579.930,513.783 578.623 C 516.377 577.316,520.075 575.911,522.000 575.500 C 523.925 575.089,527.750 573.608,530.500 572.207 C 533.582 570.638,537.982 569.438,541.971 569.081 L 548.442 568.500 549.507 564.693 C 550.121 562.498,551.828 559.931,553.536 558.633 C 564.366 550.403,573.000 549.078,573.000 555.647 C 573.000 557.523,572.334 558.183,569.964 558.657 C 568.295 558.991,566.443 560.173,565.848 561.284 C 564.820 563.205,564.985 563.274,569.234 562.691 C 573.337 562.129,573.938 562.338,576.601 565.251 C 578.195 566.996,578.600 567.783,577.500 567.000 C 576.308 566.152,576.611 566.795,578.250 568.593 C 579.763 570.252,581.000 572.303,581.000 573.150 C 581.000 573.997,581.900 575.505,583.000 576.500 C 584.100 577.495,585.007 579.028,585.015 579.905 C 585.024 580.827,585.341 581.078,585.765 580.500 C 586.169 579.950,587.801 579.407,589.390 579.293 C 590.980 579.178,593.379 578.054,594.721 576.793 C 596.731 574.904,597.051 573.885,596.540 571.000 C 595.582 565.600,595.561 563.898,596.387 558.373 C 597.137 553.358,597.081 553.194,593.827 550.873 C 591.050 548.892,589.277 548.498,583.097 548.491 C 576.638 548.482,575.596 548.227,574.918 546.491 C 573.753 543.507,573.858 542.641,575.250 543.759 C 575.938 544.311,579.258 544.954,582.628 545.187 C 586.437 545.450,589.843 546.342,591.628 547.545 C 593.208 548.609,595.850 549.934,597.500 550.490 C 600.945 551.650,601.923 555.357,600.006 559.986 C 599.179 561.983,599.150 563.842,599.902 566.636 C 600.876 570.252,601.298 570.598,606.152 571.750 C 610.865 572.870,611.676 572.798,614.736 570.993 C 616.594 569.897,619.085 569.000,620.271 569.000 C 622.159 569.000,622.246 569.179,620.964 570.435 C 620.159 571.224,617.700 572.523,615.500 573.321 C 613.300 574.120,609.250 575.694,606.500 576.820 C 603.750 577.946,599.969 579.430,598.098 580.118 C 596.227 580.806,592.712 583.086,590.287 585.184 C 587.862 587.283,585.793 588.985,585.689 588.966 C 585.585 588.947,581.905 588.080,577.511 587.038 C 573.117 585.997,569.340 585.327,569.118 585.548 C 568.896 585.770,569.247 586.592,569.897 587.376 C 570.842 588.515,570.271 589.951,567.039 594.565 C 564.818 597.737,563.000 601.113,563.000 602.068 C 563.000 604.794,568.825 608.017,571.746 606.907 C 575.581 605.448,574.210 608.933,570.030 611.268 C 567.340 612.770,566.162 612.958,564.793 612.103 C 563.822 611.496,561.908 611.000,560.539 611.000 C 558.766 611.000,557.589 610.105,556.441 607.885 C 554.552 604.233,552.362 605.322,553.386 609.404 C 553.850 611.250,555.542 612.671,559.513 614.550 C 562.672 616.044,565.000 617.800,565.000 618.689 C 565.000 619.817,564.394 620.057,562.750 619.580 C 557.525 618.063,549.964 617.772,547.055 618.977 C 541.105 621.442,534.557 617.464,535.642 612.042 C 536.164 609.428,535.881 608.905,533.440 607.977 C 531.900 607.392,528.635 606.638,526.185 606.302 C 522.688 605.822,521.828 605.983,522.183 607.050 C 522.432 607.797,524.180 608.805,526.068 609.289 C 529.901 610.273,533.000 612.646,533.000 614.596 C 533.000 615.304,530.525 617.816,527.500 620.178 C 524.475 622.541,522.000 624.817,522.000 625.237 C 522.000 626.548,525.453 626.072,527.785 624.438 C 529.806 623.022,530.071 623.022,530.614 624.437 C 530.987 625.407,530.105 627.040,528.286 628.749 C 526.676 630.262,524.895 632.336,524.329 633.358 C 523.732 634.435,521.047 635.800,517.937 636.606 C 514.987 637.371,511.882 638.736,511.037 639.640 C 510.192 640.543,510.063 640.967,510.750 640.582 C 512.196 639.772,512.361 640.882,511.092 642.885 C 509.880 644.798,505.359 643.540,503.944 640.895 C 502.339 637.896,503.584 634.307,506.756 632.794 C 508.585 631.922,509.605 630.571,509.816 628.743 C 510.099 626.290,509.815 626.000,507.125 626.000 C 505.471 626.000,503.882 626.382,503.593 626.850 C 503.304 627.317,499.206 627.997,494.486 628.359 C 485.580 629.044,482.000 628.208,482.000 625.443 C 482.000 624.626,480.867 623.441,479.482 622.810 C 477.324 621.826,476.674 621.973,474.943 623.831 C 472.356 626.608,467.377 626.762,466.529 624.092 C 465.873 622.025,463.372 620.652,461.910 621.556 C 461.409 621.865,461.000 623.161,461.000 624.437 C 461.000 625.712,460.316 627.323,459.481 628.016 C 458.412 628.903,458.144 630.251,458.578 632.563 C 459.128 635.497,458.864 636.019,456.100 637.448 C 454.398 638.329,451.316 639.007,449.253 638.955 C 444.417 638.834,436.992 640.502,439.000 641.258 C 439.825 641.568,442.750 642.338,445.500 642.969 C 449.665 643.924,451.527 645.183,456.652 650.508 C 460.035 654.023,464.274 658.947,466.071 661.450 C 469.156 665.745,470.053 666.394,472.532 666.125 C 473.100 666.063,473.649 667.031,473.752 668.276 C 473.903 670.093,472.943 670.997,468.887 672.857 C 463.744 675.217,461.004 675.187,457.653 672.736 C 455.911 671.462,456.037 671.133,459.876 666.943 C 465.647 660.644,465.338 657.775,459.500 663.448 C 457.025 665.854,455.000 668.452,455.000 669.223 C 455.000 671.660,451.137 678.733,449.453 679.380 C 448.564 679.721,446.508 680.000,444.885 680.000 C 443.262 680.000,439.644 681.160,436.846 682.578 C 433.768 684.138,430.884 684.937,429.545 684.601 C 428.327 684.295,424.588 680.958,421.235 677.186 C 406.668 660.795,406.363 660.574,397.000 659.622 C 386.640 658.569,375.145 656.987,370.000 655.906 C 366.975 655.271,362.192 654.452,359.370 654.086 C 353.934 653.381,347.000 649.101,347.000 646.449 C 347.000 644.540,344.375 644.579,343.638 646.500 C 343.195 647.654,341.269 648.002,335.281 648.011 C 324.821 648.025,311.756 651.965,315.115 654.092 C 316.017 654.663,314.750 654.975,311.482 654.985 C 307.795 654.996,305.489 655.663,302.785 657.500 C 298.543 660.383,298.000 660.509,298.000 658.617 C 298.000 657.856,299.012 656.949,300.250 656.601 C 302.318 656.019,302.357 655.883,300.730 654.923 C 299.756 654.348,298.022 654.176,296.875 654.540 C 295.118 655.097,294.903 655.696,295.508 658.351 C 296.873 664.347,296.627 665.376,293.500 666.750 C 285.062 670.460,285.574 669.668,284.698 680.357 C 283.600 693.756,283.038 695.000,278.084 695.000 C 275.903 695.000,273.871 695.399,273.570 695.887 C 273.269 696.374,271.443 697.069,269.514 697.431 C 266.997 697.904,265.573 698.925,264.477 701.045 C 262.971 703.956,262.826 704.000,254.697 704.000 C 245.589 704.000,243.041 702.927,241.116 698.281 C 240.422 696.606,237.982 694.371,235.038 692.717 C 230.110 689.947,229.735 689.398,228.467 683.120 C 228.034 680.976,225.904 677.819,222.642 674.485 C 219.814 671.595,215.707 667.266,213.516 664.865 C 211.325 662.464,208.178 660.050,206.522 659.500 C 204.311 658.766,202.758 657.038,200.681 653.000 L 197.851 647.500 199.425 638.442 C 200.291 633.461,201.000 628.252,201.000 626.867 C 201.000 625.474,202.117 623.299,203.500 622.000 C 205.458 620.161,206.001 618.659,206.006 615.076 C 206.010 612.559,206.685 609.211,207.506 607.636 C 208.328 606.060,209.002 603.810,209.004 602.636 C 209.006 601.461,209.923 598.998,211.043 597.161 C 212.194 595.273,212.821 593.012,212.487 591.958 C 212.161 590.932,212.555 587.871,213.361 585.155 L 214.828 580.217 211.259 574.859 C 209.296 571.911,204.385 566.125,200.346 562.000 C 196.306 557.875,192.329 553.528,191.507 552.340 C 186.903 545.686,173.080 539.407,155.688 536.069 C 149.309 534.845,144.585 533.316,142.188 531.701 C 140.160 530.335,136.829 528.926,134.787 528.570 C 132.745 528.214,128.621 526.800,125.622 525.427 C 122.623 524.054,117.319 522.313,113.835 521.558 C 102.204 519.036,94.519 516.947,92.500 515.756 C 91.400 515.107,88.250 514.334,85.500 514.038 C 80.588 513.509,80.475 513.421,79.093 509.000 C 78.319 506.525,76.078 501.184,74.113 497.131 C 71.350 491.433,70.535 488.506,70.520 484.226 C 70.498 478.102,72.328 476.101,73.979 480.444 C 75.234 483.745,77.583 484.674,79.787 482.740 C 80.729 481.913,82.400 480.946,83.500 480.592 C 84.600 480.237,87.194 477.259,89.265 473.974 C 93.239 467.669,95.714 466.526,98.987 469.488 C 101.093 471.394,106.095 472.323,107.878 471.139 C 109.008 470.388,108.763 469.214,106.517 464.624 C 104.788 461.091,103.995 458.189,104.367 456.762 C 105.275 453.280,109.253 448.925,111.688 448.745 C 112.920 448.654,114.096 447.741,114.381 446.653 C 114.813 445.000,115.507 444.805,119.184 445.298 C 122.268 445.712,123.955 445.446,125.158 444.357 C 126.081 443.522,127.723 442.988,128.809 443.170 C 130.601 443.470,130.677 443.822,129.631 447.000 C 128.493 450.455,128.413 450.496,123.424 450.175 C 118.892 449.883,117.943 450.206,114.233 453.306 C 110.026 456.820,109.787 458.000,113.280 458.000 C 115.263 458.000,115.332 459.850,113.560 465.500 C 113.077 467.038,113.670 467.915,116.123 469.293 C 119.744 471.329,122.254 470.216,120.046 467.555 C 118.174 465.300,119.523 463.000,122.719 462.999 C 125.205 462.998,125.845 462.229,128.754 455.749 C 130.544 451.762,132.006 447.494,132.004 446.263 C 132.001 444.663,132.968 443.623,135.404 442.605 C 138.499 441.311,140.973 437.640,139.644 436.311 C 139.348 436.014,137.566 436.723,135.685 437.886 C 131.145 440.692,121.547 440.890,120.112 438.208 C 119.584 437.223,119.231 435.536,119.326 434.458 C 119.481 432.709,118.950 432.533,114.347 432.812 C 111.446 432.988,108.908 432.660,108.538 432.062 C 108.176 431.476,108.623 431.000,109.533 431.000 C 110.441 431.000,112.380 430.076,113.842 428.946 C 122.700 422.103,124.581 420.928,125.964 421.374 C 131.456 423.145,131.873 423.127,133.961 421.039 C 135.755 419.245,136.000 418.183,135.457 414.561 C 134.749 409.839,136.129 406.000,138.535 406.000 C 140.374 406.000,140.370 406.506,138.507 409.350 C 137.275 411.229,137.231 412.091,138.256 414.263 C 139.760 417.450,141.163 417.883,147.899 417.236 C 151.994 416.842,153.031 416.393,152.788 415.118 C 152.375 412.951,148.645 412.518,147.040 414.452 C 144.456 417.565,143.698 416.133,144.333 409.336 C 144.795 404.394,145.659 401.656,147.680 398.741 C 150.201 395.102,150.296 394.619,148.952 392.235 C 148.153 390.819,146.938 389.474,146.251 389.247 C 144.453 388.652,143.482 391.941,144.822 394.086 C 146.218 396.322,144.864 397.380,142.734 395.718 C 140.072 393.641,136.081 386.953,136.638 385.502 C 137.535 383.163,142.865 382.568,145.067 384.561 C 146.460 385.821,147.000 385.940,147.000 384.984 C 147.000 382.978,143.927 380.000,141.858 380.000 C 139.462 380.000,135.000 372.901,135.000 369.088 C 135.000 366.980,134.180 365.553,132.132 364.094 C 130.118 362.660,129.018 360.778,128.438 357.776 C 127.163 351.181,127.257 350.898,131.162 349.555 C 134.646 348.357,134.845 348.408,135.263 350.598 C 135.594 352.326,135.199 352.975,133.680 353.200 C 132.567 353.365,131.459 354.100,131.217 354.833 C 130.882 355.849,131.518 355.784,133.889 354.557 C 137.058 352.919,137.893 350.293,135.884 348.284 C 135.063 347.463,135.195 346.559,136.384 344.862 C 137.273 343.593,138.000 341.283,138.000 339.728 C 138.000 334.343,143.739 327.000,147.948 327.000 C 149.039 327.000,151.718 329.179,154.097 332.000 C 158.626 337.372,159.951 337.906,162.477 335.380 C 163.645 334.212,164.013 332.331,163.798 328.630 L 163.500 323.500 158.525 323.500 C 153.710 323.500,153.476 323.364,151.205 319.259 C 148.294 313.995,148.925 311.000,152.945 311.000 C 154.491 311.000,156.313 311.673,156.996 312.495 M325.728 320.961 C 320.930 321.891,317.256 325.336,315.970 330.112 C 315.072 333.448,310.132 339.000,308.062 339.000 C 307.630 339.000,307.495 340.139,307.761 341.531 C 308.052 343.052,307.138 346.530,305.472 350.242 C 302.911 355.948,302.796 356.729,303.972 360.460 C 304.672 362.682,305.328 368.100,305.430 372.500 C 305.670 382.793,306.359 384.634,310.823 386.901 C 316.284 389.675,331.735 391.556,337.383 390.134 C 339.859 389.510,344.091 389.000,346.785 389.000 C 351.353 389.000,351.812 389.236,353.557 392.475 C 354.586 394.386,355.952 396.151,356.593 396.397 C 358.160 396.999,367.649 390.524,369.057 387.893 C 369.675 386.740,369.973 385.005,369.721 384.040 C 369.468 383.074,369.615 381.653,370.047 380.881 C 370.479 380.109,371.132 377.458,371.499 374.989 C 371.866 372.520,373.704 367.965,375.585 364.866 C 379.914 357.733,380.508 354.588,378.560 349.124 C 377.702 346.718,377.000 342.809,377.000 340.439 C 377.000 333.729,375.638 331.256,371.295 330.078 C 359.865 326.977,351.102 324.917,348.000 324.601 C 346.075 324.405,341.702 323.289,338.282 322.122 C 331.644 319.857,331.496 319.843,325.728 320.961 M667.205 322.345 C 665.305 323.399,661.000 329.021,661.000 330.447 C 661.000 330.666,662.688 331.387,664.750 332.049 C 666.813 332.711,669.271 333.926,670.213 334.748 C 672.093 336.389,674.987 335.807,675.022 333.781 C 675.034 333.077,675.924 331.375,677.000 330.000 C 679.569 326.716,679.502 324.465,676.777 322.557 C 674.111 320.689,670.338 320.606,667.205 322.345 M338.500 327.057 C 340.700 327.613,348.281 329.154,355.347 330.482 C 362.413 331.810,369.313 333.630,370.679 334.525 C 373.126 336.129,373.159 336.333,372.832 347.827 C 372.529 358.480,372.269 359.850,369.855 363.500 C 368.400 365.700,366.708 369.075,366.095 371.000 C 364.850 374.910,360.369 378.328,354.953 379.498 C 353.054 379.908,349.925 381.028,348.000 381.985 C 343.114 384.416,318.157 385.499,315.174 383.409 C 312.469 381.514,310.652 375.668,311.449 371.421 C 311.841 369.328,311.450 365.672,310.453 362.119 L 308.811 356.266 311.906 349.215 C 313.607 345.338,315.000 341.911,315.000 341.602 C 315.000 340.137,322.240 329.956,324.603 328.097 C 327.541 325.787,332.111 325.445,338.500 327.057 M671.022 343.119 C 671.037 344.815,671.972 345.932,674.272 347.000 C 676.047 347.825,677.650 349.400,677.834 350.500 C 678.018 351.600,678.773 352.976,679.512 353.557 C 680.250 354.138,681.968 357.132,683.329 360.208 C 686.098 366.470,689.220 368.449,691.473 365.368 C 692.635 363.778,692.473 363.357,690.149 361.940 C 686.366 359.632,685.516 358.274,683.449 351.228 C 681.329 344.004,679.673 342.146,674.624 341.326 C 671.305 340.788,671.002 340.939,671.022 343.119 M411.400 361.765 C 407.777 364.184,406.908 374.324,409.494 384.000 C 410.961 389.490,410.728 393.000,408.897 393.000 C 407.107 393.000,403.854 383.560,403.274 376.686 C 402.753 370.505,402.403 369.646,399.505 367.436 C 397.749 366.096,395.609 365.000,394.750 365.000 C 391.864 365.000,386.956 377.492,385.908 387.500 C 385.390 392.450,384.516 399.592,383.966 403.372 C 383.044 409.698,383.157 410.663,385.388 415.537 C 388.215 421.712,391.297 424.054,397.522 424.755 C 401.257 425.176,402.666 424.811,405.874 422.587 C 407.997 421.116,410.772 418.807,412.041 417.456 C 414.832 414.486,417.509 414.357,421.500 417.000 C 424.686 419.110,427.985 419.569,429.550 418.121 C 430.072 417.637,432.143 416.717,434.151 416.076 C 436.524 415.318,439.092 413.263,441.487 410.205 C 444.819 405.950,445.103 405.117,444.451 401.500 C 444.055 399.300,443.741 395.905,443.753 393.955 C 443.767 391.680,442.831 389.112,441.138 386.788 C 434.157 377.201,430.321 373.110,427.734 372.494 C 426.213 372.131,424.188 370.718,423.234 369.355 C 417.597 361.295,414.795 359.498,411.400 361.765 M428.471 380.601 C 432.760 384.912,433.825 386.769,435.353 392.601 C 439.065 406.772,438.682 408.465,431.205 410.932 C 421.542 414.122,417.109 409.235,414.486 392.500 C 410.660 368.098,411.183 365.586,418.803 371.771 C 421.330 373.822,425.680 377.795,428.471 380.601 M533.587 374.509 C 533.217 375.982,533.585 378.231,534.479 379.959 C 537.000 384.834,536.380 386.337,529.611 391.761 C 522.757 397.253,516.488 400.401,514.174 399.513 C 511.893 398.638,513.335 390.932,516.187 388.755 C 521.095 385.008,527.156 378.359,528.497 375.250 C 529.458 373.019,530.575 372.000,532.057 372.000 C 533.863 372.000,534.114 372.411,533.587 374.509 M398.877 378.935 C 400.045 381.650,401.000 384.343,401.000 384.920 C 401.000 385.498,402.575 390.678,404.500 396.431 C 408.637 408.798,408.897 412.811,405.750 415.759 C 402.431 418.868,398.458 420.125,395.500 419.000 C 393.346 418.181,393.000 417.429,393.000 413.562 C 393.000 411.094,392.052 406.695,390.894 403.787 C 389.141 399.388,388.889 397.240,389.393 391.000 C 390.139 381.760,392.733 374.000,395.074 374.000 C 396.133 374.000,397.538 375.824,398.877 378.935 M664.200 380.200 C 663.540 380.860,663.000 381.981,663.000 382.692 C 663.000 383.402,662.100 384.545,661.000 385.232 C 658.752 386.636,658.436 389.124,660.155 391.877 C 661.205 393.558,661.510 393.350,663.480 389.614 C 666.054 384.734,669.253 383.713,671.077 387.189 C 671.744 388.460,673.574 391.140,675.145 393.144 C 676.715 395.148,678.000 397.025,678.000 397.314 C 678.000 397.604,676.655 398.136,675.011 398.497 C 673.368 398.858,671.806 399.505,671.540 399.935 C 670.688 401.314,683.965 397.178,685.583 395.560 C 686.441 394.702,687.898 394.032,688.821 394.070 C 690.175 394.127,690.113 394.307,688.500 395.000 C 685.508 396.286,688.209 396.172,691.993 394.853 L 695.285 393.705 692.632 392.315 C 690.474 391.185,689.229 391.151,685.947 392.134 C 682.492 393.169,681.682 393.111,680.298 391.726 C 679.409 390.838,678.624 388.398,678.554 386.305 C 678.441 382.964,678.039 382.374,675.261 381.465 C 673.521 380.896,671.775 380.108,671.382 379.715 C 670.237 378.571,665.510 378.890,664.200 380.200 M113.286 400.619 C 113.626 400.960,113.251 401.892,112.452 402.690 C 110.431 404.711,110.640 406.737,113.000 408.000 C 115.333 409.248,115.620 412.241,113.570 413.942 C 111.289 415.835,104.844 414.862,104.015 412.500 C 102.824 409.107,104.768 404.345,108.254 402.113 C 111.782 399.853,112.351 399.684,113.286 400.619 M436.442 444.271 C 438.241 447.017,438.428 458.140,436.803 465.750 C 435.046 473.977,434.188 473.076,432.065 460.775 C 431.522 457.626,430.446 453.801,429.676 452.275 C 428.072 449.100,428.411 447.427,431.302 444.250 C 433.864 441.433,434.584 441.436,436.442 444.271 M332.800 454.407 C 334.285 455.181,336.892 457.394,338.593 459.326 C 340.505 461.497,343.258 463.262,345.801 463.946 C 351.369 465.446,351.906 466.809,348.144 469.901 C 342.594 474.463,343.509 477.071,354.334 487.551 C 363.560 496.483,365.752 500.057,364.473 504.085 C 363.749 506.367,361.886 506.510,358.135 504.570 C 355.173 503.038,352.829 499.845,345.969 488.000 C 343.580 483.875,340.132 478.411,338.306 475.857 C 336.481 473.303,334.359 469.435,333.592 467.260 C 332.824 465.085,331.252 461.455,330.098 459.193 C 326.828 452.783,327.477 451.634,332.800 454.407 M450.171 455.655 C 451.304 456.680,452.000 458.693,452.000 460.944 C 452.000 462.942,452.900 466.342,454.000 468.500 C 455.100 470.658,456.000 473.172,456.000 474.087 C 456.000 475.002,457.089 478.214,458.421 481.225 C 460.884 486.794,464.547 504.786,463.443 505.891 C 462.380 506.953,459.992 502.712,460.158 500.057 C 460.439 495.568,457.969 486.282,456.027 484.524 C 454.994 483.589,453.328 482.988,452.324 483.188 C 450.684 483.515,450.525 484.560,450.746 493.526 L 450.993 503.500 448.906 499.000 C 446.009 492.751,441.000 475.687,441.000 472.067 C 441.000 470.100,441.683 468.705,442.988 468.006 C 446.406 466.177,446.635 462.273,443.516 459.016 C 442.012 457.447,441.082 455.676,441.450 455.081 C 442.473 453.425,448.118 453.796,450.171 455.655 M321.611 458.180 C 322.013 458.830,322.243 461.515,322.122 464.149 C 321.966 467.571,322.538 470.038,324.125 472.796 C 325.478 475.148,326.078 477.353,325.661 478.442 C 325.042 480.055,324.759 480.085,322.738 478.749 C 321.507 477.936,320.126 475.972,319.670 474.385 C 319.213 472.798,318.208 469.550,317.437 467.167 C 316.214 463.389,316.228 462.461,317.543 459.917 C 319.150 456.810,320.427 456.265,321.611 458.180 M407.752 463.235 C 406.928 468.849,408.839 474.436,412.957 478.458 C 417.194 482.596,418.511 482.501,419.503 477.989 C 419.864 476.345,420.789 475.000,421.559 475.000 C 423.422 475.000,426.783 481.748,427.614 487.158 C 427.981 489.546,429.054 493.075,429.999 495.000 C 430.943 496.925,432.014 499.738,432.377 501.250 C 433.210 504.715,436.694 505.075,437.209 501.750 C 437.533 499.658,437.678 499.725,439.279 502.700 C 442.813 509.272,440.874 512.228,434.716 509.655 C 432.106 508.564,430.527 506.849,428.599 503.010 C 427.170 500.164,426.000 496.718,426.000 495.352 C 426.000 491.222,424.230 489.000,420.940 489.000 C 417.435 489.000,416.000 491.692,416.000 498.265 C 416.000 503.162,415.001 502.556,411.075 495.275 C 408.348 490.218,405.236 488.729,402.368 491.109 C 401.170 492.103,400.982 493.662,401.481 498.436 C 401.941 502.832,401.825 504.087,401.058 503.000 C 399.486 500.773,398.024 494.867,397.421 488.311 C 397.127 485.115,396.258 480.857,395.491 478.849 C 393.484 473.598,392.467 465.000,393.852 465.000 C 394.462 465.000,395.237 466.238,395.574 467.750 C 397.211 475.113,400.045 484.445,400.904 485.304 C 402.933 487.333,405.000 485.144,405.000 480.966 C 405.000 478.712,405.399 476.111,405.887 475.184 C 406.414 474.183,406.356 471.222,405.744 467.886 C 405.178 464.798,405.039 460.980,405.436 459.400 C 406.082 456.827,406.263 456.718,407.178 458.354 C 407.741 459.359,407.999 461.555,407.752 463.235 M361.921 478.179 C 362.409 480.556,363.398 483.956,364.118 485.736 C 365.659 489.543,364.400 491.579,361.145 490.546 C 359.218 489.934,350.000 478.739,350.000 477.009 C 350.000 476.573,351.020 475.961,352.266 475.648 C 353.621 475.308,355.018 473.792,355.741 471.874 L 356.951 468.668 358.993 471.264 C 360.115 472.691,361.433 475.803,361.921 478.179 M95.997 476.507 C 94.899 479.069,93.038 481.481,91.685 482.098 C 89.361 483.157,86.000 489.137,86.000 492.214 C 86.000 494.421,88.277 496.008,92.402 496.678 C 97.030 497.429,98.252 496.313,100.519 489.267 C 101.633 485.806,103.699 482.175,105.687 480.187 C 107.509 478.365,108.993 476.340,108.985 475.687 C 108.974 474.869,108.711 474.908,108.137 475.813 C 107.490 476.832,106.621 476.552,104.258 474.563 C 99.898 470.895,98.235 471.287,95.997 476.507 M520.000 487.300 C 520.000 489.296,517.848 491.000,515.326 491.000 C 513.768 491.000,512.527 492.024,511.386 494.250 C 510.470 496.038,509.221 497.831,508.610 498.235 C 507.902 498.704,508.084 498.975,509.115 498.985 C 511.485 499.007,516.000 502.871,516.000 504.876 C 516.000 505.829,514.451 508.109,512.558 509.943 C 509.525 512.883,508.646 513.216,505.151 512.747 C 500.911 512.178,499.000 513.249,499.000 516.192 C 499.000 517.178,497.650 519.187,496.000 520.658 C 494.350 522.128,493.000 523.853,493.000 524.491 C 493.000 526.385,488.872 529.658,483.000 532.421 C 475.128 536.126,469.000 540.785,469.000 543.066 C 469.000 544.130,469.900 545.900,471.000 547.000 C 473.608 549.608,473.539 550.109,470.135 553.371 C 468.114 555.306,464.648 556.793,458.385 558.411 C 453.498 559.673,445.563 562.122,440.752 563.853 C 434.700 566.030,430.196 567.000,426.139 567.000 C 421.132 567.000,419.725 567.437,416.508 569.994 C 413.021 572.765,412.324 572.940,407.121 572.353 C 401.550 571.725,394.000 568.722,394.000 567.135 C 394.000 566.681,394.900 565.495,396.000 564.500 C 399.058 561.733,398.548 559.274,394.750 558.474 C 392.962 558.097,390.150 557.198,388.500 556.476 C 386.850 555.754,382.903 554.976,379.728 554.747 C 375.289 554.428,373.326 553.745,371.228 551.791 C 369.728 550.393,367.825 549.004,367.000 548.704 C 365.967 548.328,366.152 548.133,367.595 548.079 C 370.279 547.978,373.420 544.536,372.653 542.537 C 371.732 540.137,369.732 540.702,365.706 544.500 C 360.729 549.195,356.555 549.273,352.424 544.750 C 347.238 539.071,344.904 535.053,343.392 529.198 C 342.582 526.064,339.845 519.225,337.309 514.000 C 332.225 503.528,330.766 495.394,333.001 489.998 C 334.440 486.524,334.285 486.575,337.800 488.411 C 341.681 490.438,345.409 494.747,348.315 500.563 C 349.706 503.347,351.593 506.247,352.508 507.007 C 353.424 507.767,355.949 511.921,358.120 516.238 C 360.291 520.556,362.655 524.314,363.374 524.590 C 365.590 525.440,375.844 521.068,376.503 518.992 C 376.835 517.946,377.483 514.707,377.943 511.795 C 378.656 507.288,378.489 506.091,376.821 503.748 C 374.554 500.565,374.741 496.665,377.183 496.200 C 379.275 495.801,380.949 498.800,381.390 503.734 C 382.135 512.072,388.859 518.680,395.357 517.461 C 397.958 516.973,399.278 517.356,401.579 519.265 C 406.594 523.425,418.204 529.963,423.464 531.590 C 428.275 533.078,428.946 533.036,438.500 530.642 C 444.000 529.263,449.952 527.561,451.726 526.858 C 454.744 525.662,455.145 525.765,457.957 528.459 C 461.254 531.618,461.089 531.643,469.500 526.689 C 474.295 523.864,474.837 521.561,472.010 516.020 C 470.763 513.575,470.160 511.070,470.536 509.888 C 471.368 507.266,473.410 508.003,473.835 511.078 C 474.348 514.792,475.695 515.586,477.976 513.521 C 479.089 512.514,480.000 511.158,480.000 510.508 C 480.000 509.858,482.907 506.630,486.460 503.334 C 492.939 497.323,495.000 493.969,495.000 489.435 C 495.000 486.351,498.104 486.150,501.727 489.000 C 505.062 491.623,507.735 491.523,513.093 488.574 C 518.147 485.793,520.000 485.451,520.000 487.300 M665.135 494.412 C 665.534 495.906,666.371 497.742,666.993 498.492 C 668.967 500.870,663.559 509.082,661.044 507.527 C 659.608 506.639,659.731 502.669,661.242 501.158 C 662.847 499.553,660.681 498.037,656.750 498.015 C 653.098 497.995,653.209 495.844,657.027 492.631 C 660.692 489.547,664.030 490.279,665.135 494.412 M411.989 507.487 C 412.668 508.304,413.285 511.342,413.361 514.237 C 413.492 519.215,413.358 519.516,410.876 519.804 C 406.784 520.279,404.667 517.482,405.444 512.628 C 406.441 506.393,409.250 504.186,411.989 507.487 M632.010 517.010 C 633.628 518.628,633.896 519.798,633.382 523.010 C 632.802 526.638,632.942 527.000,634.923 527.000 C 636.468 527.000,637.528 525.982,638.564 523.500 C 639.369 521.575,640.546 520.000,641.182 520.000 C 644.050 520.000,655.589 522.310,656.378 523.042 C 656.861 523.490,657.243 525.351,657.226 527.178 C 657.178 532.414,657.048 532.655,655.710 530.000 C 654.007 526.622,650.460 526.153,649.644 529.198 C 648.444 533.677,648.978 537.670,651.024 539.522 C 652.138 540.530,652.874 541.837,652.659 542.427 C 651.683 545.120,654.099 547.000,658.535 547.000 C 660.991 547.000,663.000 547.254,663.000 547.565 C 663.000 547.875,662.047 550.344,660.883 553.050 C 659.139 557.104,658.158 558.138,655.313 558.924 C 653.220 559.502,650.286 561.665,647.863 564.419 C 642.805 570.164,637.811 571.918,631.983 569.994 C 626.166 568.074,625.640 567.013,627.967 561.884 C 629.061 559.473,629.966 556.970,629.978 556.321 C 630.017 554.242,626.942 552.000,624.051 552.000 C 620.881 552.000,619.570 550.733,618.619 546.750 C 617.868 543.608,619.530 542.945,620.500 546.000 C 621.364 548.722,623.616 548.515,625.570 545.534 C 626.974 543.390,627.533 539.721,628.088 529.000 C 628.159 527.625,627.635 524.622,626.923 522.327 C 625.859 518.900,625.862 517.872,626.936 516.577 C 628.654 514.508,629.587 514.587,632.010 517.010 M634.484 534.887 C 634.854 537.575,634.711 541.389,634.165 543.363 C 633.324 546.411,633.488 547.350,635.254 549.596 C 637.156 552.013,637.767 552.189,642.417 551.646 C 648.866 550.895,651.446 548.192,650.505 543.175 C 649.541 538.038,648.087 536.325,641.880 533.017 C 634.128 528.885,633.675 528.999,634.484 534.887 M486.942 595.121 L 483.384 596.981 483.520 604.241 C 483.692 613.424,488.056 626.000,491.071 626.000 C 491.526 626.000,491.246 624.439,490.449 622.532 C 489.652 620.625,489.000 618.228,489.000 617.206 C 489.000 615.219,492.375 611.695,495.250 610.680 C 496.212 610.341,497.000 609.599,497.000 609.031 C 497.000 607.558,492.267 607.752,491.662 609.250 C 491.339 610.051,491.130 609.920,491.079 608.885 C 491.036 607.997,491.900 606.126,493.000 604.727 C 495.275 601.835,495.514 599.222,493.839 595.547 C 492.505 592.618,491.812 592.575,486.942 595.121 M366.334 599.429 C 368.789 605.826,367.749 609.006,363.880 606.936 C 362.445 606.168,361.999 605.500,362.753 605.249 C 363.439 605.020,364.000 604.399,364.000 603.869 C 364.000 603.338,361.975 604.297,359.500 606.000 C 354.684 609.313,354.332 609.932,356.200 611.800 C 357.689 613.289,363.000 613.389,363.000 611.928 C 363.000 611.212,364.828 611.084,368.508 611.544 C 372.319 612.020,374.475 611.851,375.508 610.994 C 377.869 609.034,377.258 606.986,373.970 605.840 C 372.303 605.259,370.281 603.510,369.477 601.955 C 367.779 598.671,365.270 596.654,366.334 599.429 M339.165 609.447 C 332.457 611.878,333.182 616.474,340.100 615.368 C 344.591 614.650,346.016 616.476,344.153 620.564 C 342.660 623.841,344.877 623.870,348.653 620.622 L 351.417 618.245 347.959 613.148 C 344.237 607.664,344.167 607.634,339.165 609.447 M421.244 617.750 C 421.205 620.362,421.636 623.059,422.202 623.742 C 423.376 625.159,422.316 636.313,421.079 635.549 C 420.022 634.895,414.473 640.806,415.335 641.669 C 415.714 642.048,417.482 641.265,419.262 639.929 C 421.941 637.920,423.675 637.496,429.299 637.479 C 436.277 637.457,438.375 636.337,437.689 633.000 C 437.370 631.446,437.151 631.422,432.918 632.484 C 431.165 632.924,429.632 632.522,427.990 631.193 C 425.657 629.303,425.632 629.120,426.846 622.535 C 428.220 615.074,427.500 613.000,423.536 613.000 C 421.565 613.000,421.309 613.532,421.244 617.750 M376.000 619.446 C 376.000 621.441,379.201 625.771,381.425 626.784 C 383.538 627.747,384.000 628.643,384.000 631.779 C 384.000 636.148,385.399 638.000,388.700 638.000 C 391.606 638.000,391.678 635.833,388.918 631.368 C 386.939 628.165,386.928 628.000,388.696 628.000 C 389.718 628.000,391.585 627.278,392.845 626.396 C 394.108 625.512,396.236 625.003,397.591 625.262 C 400.371 625.794,401.290 624.918,400.396 622.590 C 399.569 620.435,397.410 620.590,395.025 622.975 C 390.784 627.216,385.140 626.818,379.518 621.882 C 377.583 620.183,376.000 619.087,376.000 619.446 M352.526 628.500 C 351.596 632.822,350.692 634.200,348.174 635.131 C 346.475 635.760,345.533 635.458,344.222 633.867 C 340.943 629.886,339.835 628.984,338.919 629.550 C 337.266 630.572,337.954 635.954,340.000 638.000 C 343.031 641.031,347.034 640.518,351.729 636.500 C 356.127 632.735,359.018 632.112,361.000 634.500 C 362.583 636.408,364.000 636.426,364.000 634.539 C 364.000 633.681,362.354 632.634,360.014 632.004 C 357.331 631.281,355.561 630.042,354.600 628.215 L 353.172 625.500 352.526 628.500 M477.985 631.750 C 477.976 632.163,477.545 633.170,477.027 633.990 C 476.344 635.070,476.795 636.220,478.667 638.175 C 482.526 642.203,481.365 645.066,474.761 647.803 C 466.566 651.200,463.529 650.586,468.504 646.538 C 470.174 645.179,471.299 642.906,471.882 639.714 C 472.362 637.082,473.555 634.044,474.533 632.964 C 476.335 630.972,478.013 630.382,477.985 631.750 M484.658 664.000 L 484.031 670.000 487.092 670.000 C 490.699 670.000,496.000 674.715,496.000 677.923 C 496.000 681.405,492.075 680.626,491.350 677.000 C 491.020 675.350,490.372 674.000,489.910 674.000 C 488.833 674.000,482.248 679.678,479.182 683.250 C 476.268 686.646,474.519 686.722,472.437 683.544 C 470.509 680.602,471.249 679.000,474.533 679.000 C 476.197 679.000,477.424 678.081,478.474 676.050 C 480.616 671.909,480.397 670.461,477.250 667.955 C 474.627 665.866,474.588 665.712,476.414 664.632 C 477.467 664.010,479.717 662.276,481.414 660.779 C 483.111 659.283,484.677 658.045,484.892 658.029 C 485.108 658.013,485.003 660.700,484.658 664.000 M212.766 680.969 C 211.389 682.053,209.982 684.338,209.640 686.049 C 209.081 688.843,208.687 689.131,205.759 688.889 C 202.664 688.632,193.779 691.890,192.728 693.667 C 192.457 694.125,192.638 695.568,193.130 696.872 C 193.890 698.883,194.496 699.151,197.113 698.627 C 198.810 698.288,201.842 696.719,203.850 695.142 C 205.857 693.565,208.909 691.554,210.631 690.673 C 215.055 688.411,218.947 683.513,218.297 681.026 C 217.629 678.474,215.960 678.457,212.766 680.969 "
     stroke="none"
     fill="undefined"
     fill-rule="evenodd"
     id="path1"
     style="fill:url(#radialGradient2);fill-opacity:1" />
</svg>
